<svg width="200" height="210" viewBox="0 0 200 210" fill="none" xmlns="http://www.w3.org/2000/svg">
<path d="M105.619 140.872C122.914 140.872 136.935 126.824 136.935 109.496C136.935 92.1674 122.914 78.1199 105.619 78.1199C88.3235 78.1199 74.3027 92.1674 74.3027 109.496C74.3027 126.824 88.3235 140.872 105.619 140.872Z" fill="#FFB953"/>
<path d="M104.608 104.667C104.437 105.206 104.209 105.705 103.915 106.162C103.621 106.62 103.263 107.028 102.839 107.396C102.415 107.755 101.958 108.058 101.46 108.287L104.576 113.802C104.706 114.039 104.788 114.276 104.804 114.521C104.82 114.766 104.804 115.003 104.739 115.24C104.674 115.477 104.559 115.689 104.404 115.885C104.249 116.081 104.054 116.237 103.834 116.359C103.597 116.482 103.361 116.555 103.116 116.588C102.871 116.621 102.635 116.604 102.406 116.531C102.178 116.466 101.966 116.359 101.77 116.212C101.575 116.065 101.411 115.877 101.281 115.657L97.4561 108.85H95.7027V114.733C95.7027 114.995 95.6538 115.24 95.5478 115.469C95.4499 115.689 95.3113 115.885 95.14 116.057C94.9687 116.229 94.773 116.359 94.5365 116.457C94.3 116.555 94.0553 116.604 93.8025 116.604C93.5334 116.604 93.2887 116.555 93.0604 116.457C92.8321 116.359 92.6282 116.229 92.4569 116.057C92.2856 115.885 92.147 115.689 92.0491 115.469C91.9513 115.248 91.9023 115.003 91.9023 114.733V98.8982C91.9023 98.6367 91.9513 98.3916 92.0491 98.1628C92.147 97.9422 92.2775 97.738 92.4569 97.5745C92.6282 97.4111 92.8321 97.2722 93.0604 97.1742C93.2887 97.0761 93.5334 97.0271 93.8025 97.0271H98.8751C99.6988 97.0271 100.474 97.1823 101.199 97.4928C101.925 97.8033 102.561 98.2282 103.108 98.7593C103.654 99.2986 104.078 99.9196 104.388 100.639C104.698 101.358 104.853 102.126 104.853 102.951C104.861 103.564 104.78 104.128 104.608 104.667ZM95.6946 100.786V105.067H98.8996C99.185 105.067 99.4623 105.01 99.7233 104.887C99.9842 104.765 100.221 104.601 100.416 104.397C100.612 104.193 100.775 103.956 100.898 103.694C101.02 103.433 101.077 103.155 101.077 102.869C101.077 102.583 101.02 102.314 100.898 102.06C100.775 101.807 100.612 101.586 100.416 101.398C100.221 101.211 99.9842 101.063 99.7233 100.957C99.4541 100.851 99.185 100.794 98.8996 100.794H95.6946V100.786Z" fill="black"/>
<path d="M113.139 116.547C112.551 116.392 112.005 116.171 111.483 115.877V119.914C111.483 120.175 111.434 120.42 111.328 120.649C111.222 120.87 111.092 121.066 110.92 121.237C110.749 121.409 110.553 121.54 110.317 121.638C110.08 121.736 109.836 121.785 109.583 121.785C109.314 121.785 109.069 121.736 108.841 121.638C108.612 121.54 108.408 121.409 108.237 121.237C108.066 121.066 107.927 120.87 107.829 120.649C107.732 120.42 107.683 120.183 107.683 119.914V104.079C107.683 103.817 107.732 103.572 107.829 103.343C107.927 103.123 108.058 102.918 108.237 102.755C108.408 102.592 108.612 102.453 108.841 102.355C109.069 102.257 109.314 102.208 109.583 102.208C109.95 102.208 110.284 102.306 110.578 102.493C110.879 102.681 111.108 102.927 111.271 103.237C111.817 102.91 112.405 102.657 113.024 102.477C113.644 102.297 114.288 102.208 114.965 102.208C115.968 102.208 116.914 102.395 117.795 102.779C118.676 103.164 119.443 103.686 120.095 104.348C120.747 105.01 121.269 105.778 121.653 106.661C122.036 107.543 122.223 108.491 122.223 109.496C122.223 110.493 122.036 111.441 121.653 112.323C121.269 113.214 120.756 113.982 120.095 114.635C119.443 115.289 118.668 115.812 117.795 116.196C116.914 116.58 115.968 116.768 114.965 116.768C114.337 116.776 113.718 116.694 113.139 116.547ZM111.768 110.852C111.948 111.277 112.201 111.645 112.519 111.963C112.837 112.282 113.204 112.527 113.628 112.707C114.052 112.887 114.5 112.977 114.982 112.977C115.471 112.977 115.928 112.887 116.344 112.707C116.759 112.527 117.135 112.282 117.444 111.963C117.754 111.645 117.999 111.277 118.187 110.852C118.366 110.427 118.464 109.978 118.464 109.496C118.464 109.006 118.374 108.556 118.187 108.131C118.007 107.715 117.754 107.347 117.444 107.028C117.135 106.71 116.768 106.465 116.344 106.285C115.919 106.105 115.463 106.015 114.982 106.015C114.5 106.015 114.052 106.105 113.628 106.285C113.204 106.465 112.837 106.71 112.519 107.028C112.201 107.347 111.956 107.715 111.768 108.131C111.589 108.548 111.491 109.006 111.491 109.496C111.499 109.978 111.589 110.427 111.768 110.852Z" fill="black"/>
<path d="M105.032 61.4106C78.625 61.4106 57.2256 82.8591 57.2256 109.308C57.2256 135.757 78.6332 157.205 105.032 157.205C131.43 157.205 152.838 135.757 152.838 109.308C152.838 82.8591 131.439 61.4106 105.032 61.4106ZM105.032 140.913C87.6121 140.913 73.4872 126.761 73.4872 109.308C73.4872 91.8552 87.6121 77.7033 105.032 77.7033C122.451 77.7033 136.576 91.8552 136.576 109.308C136.576 126.761 122.451 140.913 105.032 140.913Z" fill="#F53B4B"/>
<path d="M105.032 51.2542C73.0308 51.2542 47.0889 77.2456 47.0889 109.308C47.0889 141.37 73.0308 167.362 105.032 167.362C137.033 167.362 162.975 141.37 162.975 109.308C162.975 77.2456 137.033 51.2542 105.032 51.2542ZM105.032 153.651C80.5907 153.651 60.7734 133.796 60.7734 109.308C60.7734 84.8199 80.5907 64.9648 105.032 64.9648C129.473 64.9648 149.291 84.8199 149.291 109.308C149.291 133.796 129.473 153.651 105.032 153.651Z" fill="#88C3BF"/>
<path d="M105.033 36.6201C64.9659 36.6201 32.4834 69.1645 32.4834 109.308C32.4834 149.451 64.9659 181.996 105.033 181.996C145.1 181.996 177.582 149.451 177.582 109.308C177.582 69.1645 145.1 36.6201 105.033 36.6201ZM105.033 166.455C73.5371 166.455 47.9947 140.872 47.9947 109.308C47.9947 77.7439 73.5289 52.161 105.033 52.161C136.528 52.161 162.071 77.7439 162.071 109.308C162.071 140.872 136.537 166.455 105.033 166.455Z" fill="#F9D797"/>
<path d="M105.032 140.913C122.454 140.913 136.576 126.763 136.576 109.308C136.576 91.8531 122.454 77.7031 105.032 77.7031C87.6103 77.7031 73.4873 91.8531 73.4873 109.308C73.4873 126.763 87.6103 140.913 105.032 140.913Z" stroke="#0A0A0A" stroke-width="2.281" stroke-miterlimit="10"/>
<path d="M159.256 171.235C154.795 166.847 150.334 162.459 145.873 158.08C141.959 154.231 138.052 150.391 134.138 146.542C134.757 154.15 135.377 161.765 135.997 169.372C143.753 169.985 151.508 170.614 159.256 171.235Z" fill="#F9D797"/>
<path d="M78.0293 145.913C61.0989 131.688 55.8387 108.417 64.6954 90.0002C71.7497 75.3336 87.2855 64.7524 105.031 64.9648C121.717 65.1691 136.967 74.8679 144.372 90.0002" stroke="#0A0A0A" stroke-width="2.281" stroke-miterlimit="10"/>
<path d="M147.479 96.2183C147.479 96.2346 148.099 99.9278 148.099 99.9442C148.107 99.9768 149.021 105.5 149.029 105.533" stroke="#0A0A0A" stroke-width="2.281" stroke-miterlimit="10"/>
<path d="M70.9019 155.546C68.2922 153.496 48.1487 137.113 48.0019 109.308C47.9774 105.181 48.2955 82.3113 67.1831 65.7736C87.8241 47.6997 113.211 52.4306 116.172 53.0352" stroke="#0A0A0A" stroke-width="2.281" stroke-miterlimit="10"/>
<path d="M125.779 55.8379C130.061 57.6845 135.639 60.6587 141.282 65.4631C144.789 68.4537 147.538 71.485 149.65 74.1569" stroke="#0A0A0A" stroke-width="2.281" stroke-miterlimit="10"/>
<path d="M25.5913 111.849L4.4854 97.3296L0 111.04L25.5913 111.849Z" fill="#FFBA53"/>
<path d="M25.3949 121.809L6.00977 121.025L8.66023 131.639L25.3949 121.809Z" fill="#FFBA53"/>
<path d="M176.365 147.58L190.939 168.685L199.999 157.467L176.365 147.58Z" fill="#FFBA53"/>
<path d="M169.965 57.5784L192.498 49.0399L185.46 37.4863L169.965 57.5784Z" fill="#FFBA53"/>
<path d="M162.38 47.9041L176.293 34.2589L167.346 28L162.38 47.9041Z" fill="#FFBA53"/>
</svg>
