<svg width="200" height="210" viewBox="0 0 200 210" fill="none" xmlns="http://www.w3.org/2000/svg">
<mask id="mask0" mask-type="alpha" maskUnits="userSpaceOnUse" x="2" y="42" width="148" height="125">
<path d="M42.6466 75.5748C38.5124 78.3191 33.3713 78.9502 28.1097 79.6097C17.8842 80.9003 7.2261 82.2972 2.70901 99.5572C-0.24802 110.861 13.0905 125.128 24.167 124.986C29.8895 124.915 34.9243 125.724 45.9298 118.632C57.5948 111.109 68.7067 110.556 76.5567 115.569C83.5699 120.051 86.2858 127.043 87.0304 134.332C87.6544 140.452 85.9596 144.693 87.7324 152.273C89.7605 160.953 95.5114 167.044 107.893 166.945C122.352 166.831 126.493 151.174 124.642 145.678C121.876 137.453 117.445 130.475 122.883 125.546C127.131 121.703 130.592 121.235 134.18 120.731C136.605 120.391 139.087 120.037 141.916 118.611C145.433 116.846 151.518 111.577 148.979 104.074C141.703 82.6092 124.678 99.8692 113.686 86.3959C104.021 74.5465 108.247 45.9903 90.0016 42.5298C86.0092 41.771 82.7686 41.8561 79.9534 42.6007C67.7778 45.8485 63.7784 61.5697 42.6466 75.5748Z" fill="#F9D797"/>
</mask>
<g mask="url(#mask0)">
<path d="M107.886 166.952C122.345 166.838 126.486 151.181 124.635 145.685C121.869 137.46 117.437 130.482 122.876 125.553C129.982 119.115 134.896 122.143 141.909 118.618C145.419 116.853 151.511 111.577 148.972 104.081C141.696 82.6162 124.67 99.8762 113.679 86.403C104.014 74.5536 108.24 45.9973 89.9945 42.5368C68.7138 38.5019 68.6571 58.336 42.6466 75.5818C30.471 83.6516 9.54492 73.4332 2.70901 99.5713C-0.24802 110.875 13.0905 125.142 24.167 125C29.8895 124.929 34.9243 125.738 45.9298 118.647C57.5948 111.123 68.7067 110.57 76.5567 115.583C83.5699 120.065 86.2858 127.057 87.0304 134.346C87.6544 140.466 85.9596 144.707 87.7324 152.28C89.7605 160.953 95.5043 167.051 107.886 166.952Z" fill="#F9D797"/>
<path d="M134.619 146.841C140.654 134.907 135.002 124.915 126.982 119.122C118.104 112.704 107.134 110.818 102.482 101.053C97.5463 90.6931 107.509 82.8857 105.41 63.4842C104.269 52.9679 98.6171 40.4307 86.0089 40.0336C76.4996 39.7358 66.65 47.8056 65.0615 59.5202C62.8562 75.8016 73.415 94.9407 54.6517 103.982C37.7888 112.109 32.8746 100.209 23.9681 91.6362C17.4229 85.3392 7.31086 81.3469 -3.09901 85.1407C-17.4232 90.3598 -19.7775 101.755 -19.9831 111.633C-20.0966 117.143 -18.4656 121.873 -20.4583 125.532C-23.1174 130.397 -32.3076 133.425 -37.9026 139.488C-44.0506 146.146 -46.1496 156.024 -37.4771 165.477C-30.6341 172.937 -15.9695 170.1 -12.4168 163.222C-7.67283 154.053 -14.3811 141.728 1.81519 134.148C21.4932 124.929 21.6847 144.267 44.7594 138.842C53.9993 136.672 57.247 122.164 71.2167 126.411C75.053 127.581 81.5769 132.375 86.8882 138.31C92.7526 144.863 97.6172 152.684 106.488 155.911C117.465 159.91 128.577 158.783 134.619 146.841Z" fill="#F9D797"/>
<path d="M59.0909 51.4151C69.7561 43.5226 84.7965 45.7634 92.6961 56.4215C100.589 67.0867 98.3478 82.1271 87.6897 90.0267C77.0246 97.9263 61.9841 95.6783 54.0845 85.0203C46.185 74.3551 48.4258 59.3076 59.0909 51.4151Z" fill="#F9D797"/>
<path d="M219.572 35.9348C216.821 21.9936 204.709 17.4268 195.434 18.292C182.436 19.5046 174.529 28.0282 159.786 21.4121C147.724 15.9944 150.667 1.08164 145.186 -10.0941C140.775 -19.0857 131.932 -24.3616 122.005 -19.2701C111.892 -14.0793 108.489 -1.11663 114.275 9.0025C118.799 16.9234 129.287 22.2843 127.897 29.73C126.252 38.5657 120.615 42.948 116.332 49.4932C112.396 55.5136 109.73 63.6614 109.496 71.9439C109.276 79.6379 112.275 85.7292 117.665 90.7001C124.387 96.8978 133.06 99.1245 132.854 108.371C132.599 119.547 122.543 118.327 120.381 129.822C119.721 133.325 121.274 138.069 123.855 141.232C126.564 144.551 131.188 146.572 136.024 148.649C142.023 151.223 152.369 150.195 157.95 143.317C178.387 118.122 160.971 97.7842 173.146 78.9075C181.407 66.1008 193.874 67.6396 205.447 62.4275C215.566 57.8537 221.934 47.8977 219.572 35.9348Z" fill="#F9D797"/>
<path d="M123.33 38.9557C125.55 24.9151 115.743 16.4624 106.737 14.0797C94.1145 10.7469 83.7542 16.0298 72.1885 4.74065C62.7288 -4.49208 70.6213 -17.4902 69.3165 -29.8644C68.2671 -39.8275 61.7857 -47.8193 50.7022 -46.4578C39.4201 -45.0679 31.7687 -34.0624 33.7117 -22.5675C35.2363 -13.5759 43.2351 -4.93174 39.3704 1.57797C34.7824 9.30737 27.982 11.4844 21.7134 16.1575C15.9482 20.4547 10.6369 27.1843 7.56645 34.8853C4.71579 42.0332 5.432 48.784 8.78613 55.3079C12.9628 63.4415 20.3448 68.5117 16.9623 77.1275C12.8778 87.5374 3.85775 82.9281 -2.12721 92.9763C-3.94965 96.0397 -4.12693 101.032 -2.79379 104.882C-1.39682 108.932 2.24805 112.42 6.0773 116.03C10.8213 120.511 20.8908 123.107 28.4996 118.568C56.3538 101.947 47.0006 76.851 64.9271 63.321C77.0956 54.1379 88.2642 59.8747 100.929 58.9599C112.02 58.1586 121.43 50.9965 123.33 38.9557Z" fill="#F9D797"/>
</g>
<path d="M173.401 81.9426L185.18 93.7778L189.704 85.545L173.401 81.9426Z" fill="#FFBA53"/>
<path d="M174.557 66.7746L189.874 60.1373L183.867 52.9185L174.557 66.7746Z" fill="#FFBA53"/>
<path d="M178.981 73.8019L200 74.3976L196.993 62.9595L178.981 73.8019Z" fill="#FFBA53"/>
<path d="M72.784 64.2004C72.7131 68.753 71.9898 77.149 67.3947 86.3037C65.5652 89.9557 61.0623 98.9118 51.7586 104.634C39.2072 112.357 30.8821 106.194 18.8697 112.179C12.9131 115.151 5.50277 121.377 0 135.899C27.3153 144.345 54.6376 152.791 81.9529 161.243C87.4557 146.721 94.866 140.487 100.823 137.523C112.835 131.538 121.16 137.694 133.712 129.978C143.015 124.256 147.511 115.3 149.348 111.648C153.943 102.493 154.673 94.0969 154.737 89.5444C127.422 81.0917 100.099 72.646 72.784 64.2004Z" fill="#FFB953"/>
<path d="M155.219 89.5374C152.766 106.542 145.738 116.938 141.739 121.887C139.058 125.206 136.704 128.071 132.57 130.517C122.103 136.701 113.707 132.219 104.531 134.829C98.0215 136.687 89.5547 142.558 82.428 161.251C55.1127 152.805 27.7904 144.359 0.475098 135.907" stroke="#0A0A0A" stroke-width="2.281" stroke-miterlimit="10"/>
<path d="M84.0518 81.9924L126.649 96.0117" stroke="#0A0A0A" stroke-width="2.281" stroke-miterlimit="10"/>
<path d="M76.5068 91.7002L119.635 106.251" stroke="#0A0A0A" stroke-width="2.281" stroke-miterlimit="10"/>
<path d="M68.416 101.94L111.013 117.037" stroke="#0A0A0A" stroke-width="2.281" stroke-miterlimit="10"/>
<path d="M73.9753 129.12C79.3078 130.418 82.1089 135.602 80.2297 140.7C78.3505 145.799 72.4932 148.884 67.1535 147.586C61.8139 146.288 59.0058 141.104 60.892 136.006C62.7783 130.907 68.6356 127.823 73.9753 129.12Z" fill="#F53B4B"/>
<path d="M76.2021 138.545C76.2163 138.899 76.1524 139.247 76.0106 139.601C75.8688 139.956 75.6702 140.268 75.4008 140.544C75.1313 140.821 74.8335 141.041 74.4931 141.204C74.1598 141.367 73.7982 141.473 73.4223 141.523C73.0394 141.573 72.6636 141.537 72.2948 141.438C72.0537 141.374 71.841 141.282 71.6424 141.168C71.4439 141.055 71.2737 140.92 71.1248 140.764L70.5504 142.189C70.5149 142.282 70.4582 142.36 70.3873 142.438C70.3164 142.502 70.2384 142.558 70.1533 142.601C70.0682 142.643 69.976 142.672 69.8767 142.679C69.7775 142.693 69.6782 142.686 69.5789 142.658C69.4796 142.629 69.3945 142.587 69.3236 142.53C69.2456 142.473 69.196 142.409 69.1534 142.331C69.1109 142.253 69.0896 142.168 69.0825 142.083C69.0825 141.991 69.0967 141.906 69.1393 141.807L71.3801 136.226C71.4155 136.134 71.4723 136.049 71.5361 135.978C71.607 135.914 71.685 135.857 71.7772 135.815C71.8623 135.772 71.9545 135.744 72.0608 135.737C72.153 135.722 72.2523 135.737 72.3516 135.765C72.4863 135.8 72.5998 135.864 72.6778 135.956C72.7629 136.056 72.8125 136.162 72.8338 136.297C73.089 136.233 73.3372 136.205 73.5925 136.212C73.8478 136.212 74.096 136.247 74.3513 136.311C74.7271 136.41 75.0462 136.573 75.3228 136.8C75.5922 137.027 75.805 137.282 75.9539 137.58C76.1028 137.878 76.1808 138.204 76.2021 138.545ZM74.3158 139.672C74.4435 139.544 74.5357 139.388 74.6066 139.218C74.6775 139.048 74.7058 138.878 74.6988 138.715C74.6917 138.552 74.6491 138.396 74.5782 138.254C74.5073 138.112 74.4009 137.984 74.2733 137.878C74.1385 137.779 73.9896 137.694 73.8053 137.644C73.628 137.594 73.4436 137.587 73.2663 137.601C73.082 137.623 72.9118 137.672 72.7487 137.757C72.5856 137.828 72.4438 137.935 72.3161 138.062C72.1885 138.19 72.0963 138.346 72.0254 138.516C71.9545 138.686 71.9261 138.857 71.9332 139.02C71.9403 139.183 71.9828 139.339 72.0537 139.488C72.1246 139.63 72.231 139.757 72.3587 139.857C72.4863 139.963 72.6423 140.041 72.8267 140.091C73.004 140.14 73.1883 140.154 73.3656 140.133C73.5429 140.119 73.7202 140.062 73.8833 139.984C74.0464 139.906 74.1882 139.8 74.3158 139.672Z" fill="black"/>
<path d="M68.8485 139.339C68.8627 139.438 68.8556 139.53 68.8343 139.615C68.8059 139.708 68.7634 139.786 68.7066 139.864C68.6499 139.942 68.5719 140.005 68.4939 140.055C68.4017 140.112 68.3166 140.14 68.2103 140.169C68.1039 140.183 68.0117 140.183 67.9195 140.176C67.8841 140.168 67.8557 140.161 67.8273 140.154C67.7706 140.14 67.7139 140.112 67.6642 140.083C67.5933 140.041 67.5295 139.977 67.4728 139.906C67.4231 139.835 67.3877 139.75 67.3735 139.665L66.9197 136.878L66.2673 136.701L65.4305 138.779C65.3951 138.871 65.3383 138.949 65.2674 139.027C65.1965 139.091 65.1114 139.147 65.0263 139.19C64.9412 139.232 64.849 139.261 64.7498 139.268C64.6505 139.282 64.5512 139.275 64.459 139.247C64.3597 139.218 64.2746 139.176 64.2037 139.119C64.1328 139.069 64.0761 138.998 64.0335 138.92C63.9981 138.842 63.9768 138.757 63.9697 138.672C63.9697 138.58 63.9839 138.495 64.0265 138.396L66.2673 132.815C66.3027 132.723 66.3595 132.638 66.4233 132.567C66.4942 132.503 66.5722 132.446 66.6573 132.404C66.7495 132.361 66.8417 132.333 66.9409 132.326C67.0402 132.311 67.1395 132.326 67.2388 132.354L69.1179 132.865C69.4228 132.95 69.6923 133.077 69.9192 133.262C70.1462 133.446 70.3234 133.659 70.444 133.907C70.5645 134.148 70.6425 134.41 70.6567 134.701C70.6638 134.985 70.6142 135.276 70.4936 135.566C70.4085 135.772 70.3022 135.963 70.1603 136.141C70.0185 136.318 69.8625 136.467 69.6923 136.602C69.515 136.729 69.3307 136.836 69.1179 136.928C68.9052 137.013 68.6996 137.07 68.4797 137.098L68.8485 139.339ZM68.9123 135.396C68.9974 135.318 69.0541 135.226 69.0967 135.127C69.1392 135.027 69.1534 134.928 69.1392 134.822C69.1321 134.715 69.1108 134.623 69.0612 134.538C69.0116 134.453 68.9477 134.375 68.8626 134.304C68.7776 134.24 68.6854 134.198 68.579 134.169L67.3948 133.843L66.792 135.354L67.9762 135.68C68.0826 135.708 68.189 135.715 68.3095 135.701C68.423 135.687 68.5365 135.651 68.6428 135.602C68.7421 135.545 68.8343 135.481 68.9123 135.396Z" fill="black"/>
<path d="M116.955 112.25C115.104 112.633 114.558 113.357 114.366 113.825C113.565 115.817 116.891 119.058 119.798 120.646C123.571 122.71 128.91 123.242 129.988 121.334C130.435 120.547 130.073 119.491 129.726 118.767" fill="#FFFFFB"/>
<path d="M116.955 112.25C115.104 112.633 114.558 113.357 114.366 113.825C113.565 115.817 116.891 119.058 119.798 120.646C123.571 122.71 128.91 123.242 129.988 121.334C130.435 120.547 130.073 119.491 129.726 118.767" stroke="black" stroke-width="2.281" stroke-miterlimit="10"/>
<path d="M118.678 108.698C116.827 109.081 116.281 109.804 116.089 110.272C115.288 112.265 118.614 115.505 121.521 117.094C125.294 119.157 130.634 119.689 131.711 117.782C132.158 116.994 131.796 115.938 131.449 115.215" fill="#FFFFFB"/>
<path d="M118.678 108.698C116.827 109.081 116.281 109.804 116.089 110.272C115.288 112.265 118.614 115.505 121.521 117.094C125.294 119.157 130.634 119.689 131.711 117.782C132.158 116.994 131.796 115.938 131.449 115.215" stroke="black" stroke-width="2.281" stroke-miterlimit="10"/>
<path d="M120.663 105.032C118.812 105.415 118.266 106.138 118.075 106.606C117.274 108.599 120.599 111.839 123.507 113.428C127.279 115.491 132.619 116.023 133.697 114.116C134.143 113.328 133.782 112.272 133.434 111.549" fill="#FFFFFB"/>
<path d="M120.663 105.032C118.812 105.415 118.266 106.138 118.075 106.606C117.274 108.599 120.599 111.839 123.507 113.428C127.279 115.491 132.619 116.023 133.697 114.116C134.143 113.328 133.782 112.272 133.434 111.549" stroke="black" stroke-width="2.281" stroke-miterlimit="10"/>
<path d="M169.933 78.7445C168.614 92.3312 156.353 102.422 142.767 101.103C139.654 104.585 136.548 108.067 133.435 111.555C132.711 111.74 128.811 112.676 125.024 110.336C122.16 108.563 121.011 105.946 120.663 105.039C122.372 100.678 124.088 96.3165 125.797 91.9554C124.216 89.8635 119.373 82.907 120.415 73.9508C121.784 62.144 132.967 50.1741 147.581 51.5923C161.161 52.8971 171.252 65.1578 169.933 78.7445Z" fill="#88C3BF"/>
<path d="M169.933 78.7445C168.614 92.3312 156.353 102.422 142.767 101.103C139.654 104.585 136.548 108.067 133.435 111.555C132.711 111.74 128.811 112.676 125.024 110.336C122.16 108.563 121.011 105.946 120.663 105.039C122.372 100.678 124.088 96.3165 125.797 91.9554C124.216 89.8635 119.373 82.907 120.415 73.9508C121.784 62.144 132.967 50.1741 147.581 51.5923C161.161 52.8971 171.252 65.1578 169.933 78.7445Z" stroke="black" stroke-width="2.281" stroke-miterlimit="10"/>
<path d="M134.973 82.4319C136.908 82.4319 138.476 80.8635 138.476 78.9288C138.476 76.9942 136.908 75.4258 134.973 75.4258C133.039 75.4258 131.47 76.9942 131.47 78.9288C131.47 80.8635 133.039 82.4319 134.973 82.4319Z" fill="#FFFFFB" stroke="black" stroke-width="2.281" stroke-miterlimit="10"/>
<path d="M145.532 79.5032C147.467 79.5032 149.035 77.9348 149.035 76.0001C149.035 74.0654 147.467 72.4971 145.532 72.4971C143.598 72.4971 142.029 74.0654 142.029 76.0001C142.029 77.9348 143.598 79.5032 145.532 79.5032Z" fill="#FFFFFB" stroke="black" stroke-width="2.281" stroke-miterlimit="10"/>
<path d="M148.035 90.2038C149.97 90.2038 151.538 88.6355 151.538 86.7008C151.538 84.7661 149.97 83.1978 148.035 83.1978C146.101 83.1978 144.532 84.7661 144.532 86.7008C144.532 88.6355 146.101 90.2038 148.035 90.2038Z" fill="#FFFFFB" stroke="black" stroke-width="2.281" stroke-miterlimit="10"/>
<path d="M133.86 82.0703C133.995 86.2399 134.137 90.4025 134.272 94.5721C138.122 93.0475 141.973 91.53 145.823 90.0053" stroke="black" stroke-width="2.281" stroke-miterlimit="10"/>
<path d="M143.618 79.2266C137.406 89.2748 131.194 99.3301 124.982 109.378" stroke="black" stroke-width="2.281" stroke-miterlimit="10"/>
<path d="M151.141 57.478C152.907 58.0666 157.552 59.8819 161.005 64.6685C165.82 71.3413 164.614 78.6807 164.366 80.0706" stroke="black" stroke-width="2.281" stroke-miterlimit="10"/>
<path d="M162.977 84.2119C162.842 85.0629 162.48 86.5378 161.424 88.0341C160.729 89.0197 159.963 89.6863 159.381 90.1189" stroke="black" stroke-width="2.281" stroke-miterlimit="10"/>
<path d="M13.4521 125.972C17.2247 124.355 20.9972 122.738 24.7768 121.122C26.1241 123.547 27.4714 125.972 28.8188 128.397C33.6691 126.646 38.5266 124.894 43.377 123.143C44.3201 125.298 45.2632 127.454 46.2064 129.61C51.3262 127.454 56.4531 125.298 61.573 123.143" stroke="#0A0A0A" stroke-width="2.281" stroke-miterlimit="10"/>
<path d="M56.3184 121.526C58.0699 122.065 59.8214 122.604 61.5729 123.143C61.034 124.894 60.4951 126.646 59.9561 128.397" stroke="#0A0A0A" stroke-width="2.281" stroke-miterlimit="10"/>
</svg>
