<svg width="818" height="142" viewBox="0 0 818 142" fill="none" xmlns="http://www.w3.org/2000/svg">
<line x1="112" y1="11" x2="707" y2="11" stroke="#FFBA53" stroke-width="2"/>
<path d="M604.547 98C604.387 98 604.247 97.94 604.127 97.82C604.007 97.7 603.947 97.56 603.947 97.4L604.007 97.07L611.447 77.66C611.607 77.22 611.927 77 612.407 77H614.327C614.807 77 615.127 77.22 615.287 77.66L622.727 97.07L622.787 97.4C622.787 97.56 622.717 97.7 622.577 97.82C622.457 97.94 622.317 98 622.157 98H620.747C620.547 98 620.377 97.95 620.237 97.85C620.117 97.73 620.037 97.61 619.997 97.49L618.317 93.17H608.387L606.737 97.49C606.577 97.83 606.327 98 605.987 98H604.547ZM609.257 90.68H617.477L613.367 79.91L609.257 90.68ZM629.19 98C628.91 98 628.7 97.94 628.56 97.82C628.42 97.7 628.31 97.51 628.23 97.25L623.97 83.33L623.91 83.03C623.91 82.85 623.97 82.7 624.09 82.58C624.21 82.46 624.36 82.4 624.54 82.4H625.77C625.97 82.4 626.13 82.46 626.25 82.58C626.39 82.68 626.47 82.78 626.49 82.88L629.88 94.34L633.48 83.03C633.52 82.87 633.61 82.73 633.75 82.61C633.89 82.47 634.08 82.4 634.32 82.4H635.28C635.52 82.4 635.71 82.47 635.85 82.61C635.99 82.73 636.08 82.87 636.12 83.03L639.72 94.34L643.11 82.88C643.13 82.78 643.2 82.68 643.32 82.58C643.46 82.46 643.63 82.4 643.83 82.4H645.06C645.24 82.4 645.39 82.46 645.51 82.58C645.63 82.7 645.69 82.85 645.69 83.03L645.63 83.33L641.37 97.25C641.29 97.51 641.18 97.7 641.04 97.82C640.9 97.94 640.69 98 640.41 98H639.33C638.81 98 638.47 97.75 638.31 97.25L634.8 86.39L631.29 97.25C631.13 97.75 630.79 98 630.27 98H629.19ZM652.924 98.3C651.944 98.3 651.034 98.1 650.194 97.7C649.374 97.3 648.714 96.76 648.214 96.08C647.734 95.38 647.494 94.61 647.494 93.77C647.494 92.45 648.034 91.37 649.114 90.53C650.194 89.69 651.664 89.13 653.524 88.85L658.024 88.22V87.35C658.024 85.29 656.834 84.26 654.454 84.26C653.534 84.26 652.794 84.45 652.234 84.83C651.674 85.19 651.264 85.62 651.004 86.12C650.924 86.32 650.834 86.46 650.734 86.54C650.654 86.6 650.534 86.63 650.374 86.63H649.204C649.024 86.63 648.864 86.57 648.724 86.45C648.604 86.31 648.544 86.15 648.544 85.97C648.544 85.51 648.754 84.98 649.174 84.38C649.614 83.76 650.284 83.23 651.184 82.79C652.084 82.33 653.184 82.1 654.484 82.1C656.724 82.1 658.324 82.62 659.284 83.66C660.264 84.7 660.754 86 660.754 87.56V97.31C660.754 97.51 660.684 97.68 660.544 97.82C660.424 97.94 660.264 98 660.064 98H658.744C658.544 98 658.384 97.94 658.264 97.82C658.144 97.68 658.084 97.51 658.084 97.31V95.99C657.644 96.65 657.004 97.2 656.164 97.64C655.324 98.08 654.244 98.3 652.924 98.3ZM653.524 96.11C654.844 96.11 655.924 95.68 656.764 94.82C657.604 93.96 658.024 92.71 658.024 91.07V90.23L654.514 90.74C653.074 90.94 651.984 91.28 651.244 91.76C650.504 92.24 650.134 92.84 650.134 93.56C650.134 94.38 650.464 95.01 651.124 95.45C651.804 95.89 652.604 96.11 653.524 96.11ZM665.789 98C665.589 98 665.419 97.94 665.279 97.82C665.159 97.68 665.099 97.51 665.099 97.31V83.12C665.099 82.92 665.159 82.75 665.279 82.61C665.419 82.47 665.589 82.4 665.789 82.4H667.049C667.269 82.4 667.439 82.47 667.559 82.61C667.699 82.73 667.769 82.9 667.769 83.12V84.44C668.589 83.08 669.979 82.4 671.939 82.4H673.109C673.329 82.4 673.499 82.46 673.619 82.58C673.739 82.7 673.799 82.87 673.799 83.09V84.2C673.799 84.4 673.739 84.57 673.619 84.71C673.499 84.83 673.329 84.89 673.109 84.89H671.399C670.299 84.89 669.429 85.21 668.789 85.85C668.169 86.49 667.859 87.36 667.859 88.46V97.31C667.859 97.51 667.789 97.68 667.649 97.82C667.509 97.94 667.339 98 667.139 98H665.789ZM681.756 98.3C679.656 98.3 678.076 97.62 677.016 96.26C675.976 94.9 675.416 93.18 675.336 91.1L675.306 90.2L675.336 89.3C675.416 87.24 675.986 85.53 677.046 84.17C678.106 82.79 679.676 82.1 681.756 82.1C683.836 82.1 685.456 82.84 686.616 84.32V77.39C686.616 77.19 686.676 77.03 686.796 76.91C686.936 76.77 687.106 76.7 687.306 76.7H688.656C688.856 76.7 689.016 76.77 689.136 76.91C689.276 77.03 689.346 77.19 689.346 77.39V97.31C689.346 97.51 689.276 97.68 689.136 97.82C689.016 97.94 688.856 98 688.656 98H687.366C687.166 98 687.006 97.94 686.886 97.82C686.766 97.68 686.706 97.51 686.706 97.31V96.02C685.566 97.54 683.916 98.3 681.756 98.3ZM682.326 95.96C683.726 95.96 684.776 95.5 685.476 94.58C686.176 93.64 686.556 92.53 686.616 91.25C686.636 91.03 686.646 90.65 686.646 90.11C686.646 89.55 686.636 89.16 686.616 88.94C686.576 87.72 686.186 86.67 685.446 85.79C684.726 84.89 683.686 84.44 682.326 84.44C680.886 84.44 679.836 84.89 679.176 85.79C678.516 86.69 678.156 87.87 678.096 89.33L678.066 90.2C678.066 94.04 679.486 95.96 682.326 95.96ZM694.318 79.46C694.118 79.46 693.948 79.4 693.808 79.28C693.688 79.14 693.628 78.97 693.628 78.77V77.21C693.628 77.01 693.688 76.84 693.808 76.7C693.948 76.56 694.118 76.49 694.318 76.49H696.088C696.288 76.49 696.458 76.56 696.598 76.7C696.738 76.84 696.808 77.01 696.808 77.21V78.77C696.808 78.97 696.738 79.14 696.598 79.28C696.458 79.4 696.288 79.46 696.088 79.46H694.318ZM694.558 98C694.358 98 694.188 97.94 694.048 97.82C693.928 97.68 693.868 97.51 693.868 97.31V83.09C693.868 82.89 693.928 82.73 694.048 82.61C694.188 82.47 694.358 82.4 694.558 82.4H695.878C696.078 82.4 696.238 82.47 696.358 82.61C696.498 82.73 696.568 82.89 696.568 83.09V97.31C696.568 97.51 696.498 97.68 696.358 97.82C696.238 97.94 696.078 98 695.878 98H694.558ZM701.765 98C701.565 98 701.395 97.94 701.255 97.82C701.135 97.68 701.075 97.51 701.075 97.31V83.09C701.075 82.89 701.135 82.73 701.255 82.61C701.395 82.47 701.565 82.4 701.765 82.4H703.055C703.275 82.4 703.445 82.46 703.565 82.58C703.685 82.7 703.745 82.87 703.745 83.09V84.41C704.345 83.67 705.035 83.1 705.815 82.7C706.615 82.3 707.605 82.1 708.785 82.1C710.705 82.1 712.195 82.72 713.255 83.96C714.315 85.18 714.845 86.8 714.845 88.82V97.31C714.845 97.51 714.775 97.68 714.635 97.82C714.515 97.94 714.355 98 714.155 98H712.775C712.575 98 712.405 97.94 712.265 97.82C712.145 97.68 712.085 97.51 712.085 97.31V89C712.085 87.56 711.735 86.44 711.035 85.64C710.335 84.84 709.335 84.44 708.035 84.44C706.755 84.44 705.735 84.85 704.975 85.67C704.215 86.47 703.835 87.58 703.835 89V97.31C703.835 97.51 703.765 97.68 703.625 97.82C703.505 97.94 703.345 98 703.145 98H701.765ZM725.511 104.6C723.851 104.6 722.521 104.32 721.521 103.76C720.521 103.2 719.811 102.56 719.391 101.84C718.991 101.12 718.791 100.5 718.791 99.98C718.791 99.8 718.861 99.64 719.001 99.5C719.141 99.38 719.301 99.32 719.481 99.32H720.801C720.981 99.32 721.131 99.36 721.251 99.44C721.371 99.54 721.471 99.71 721.551 99.95C722.111 101.55 723.381 102.35 725.361 102.35C726.861 102.35 727.971 102.03 728.691 101.39C729.411 100.75 729.771 99.62 729.771 98V95.93C728.611 97.41 726.991 98.15 724.911 98.15C722.791 98.15 721.201 97.47 720.141 96.11C719.101 94.75 718.551 93.03 718.491 90.95L718.461 90.11L718.491 89.3C718.551 87.24 719.101 85.53 720.141 84.17C721.201 82.79 722.791 82.1 724.911 82.1C727.011 82.1 728.651 82.87 729.831 84.41V83.12C729.831 82.92 729.891 82.75 730.011 82.61C730.151 82.47 730.321 82.4 730.521 82.4H731.811C732.011 82.4 732.171 82.47 732.291 82.61C732.431 82.75 732.501 82.92 732.501 83.12V97.67C732.501 102.29 730.171 104.6 725.511 104.6ZM725.451 95.81C726.851 95.81 727.901 95.36 728.601 94.46C729.321 93.54 729.711 92.44 729.771 91.16C729.791 90.98 729.801 90.63 729.801 90.11C729.801 89.61 729.791 89.27 729.771 89.09C729.711 87.81 729.321 86.72 728.601 85.82C727.901 84.9 726.851 84.44 725.451 84.44C724.011 84.44 722.961 84.9 722.301 85.82C721.661 86.72 721.311 87.89 721.251 89.33L721.221 90.11L721.251 90.92C721.311 92.36 721.661 93.54 722.301 94.46C722.961 95.36 724.011 95.81 725.451 95.81ZM745.455 98C745.255 98 745.095 97.94 744.975 97.82C744.855 97.68 744.795 97.51 744.795 97.31V77.72C744.795 77.5 744.855 77.33 744.975 77.21C745.095 77.07 745.255 77 745.455 77H746.775C746.975 77 747.125 77.04 747.225 77.12C747.325 77.2 747.425 77.3 747.525 77.42L757.575 92.9V77.72C757.575 77.5 757.635 77.33 757.755 77.21C757.895 77.07 758.065 77 758.265 77H759.615C759.835 77 760.005 77.07 760.125 77.21C760.265 77.33 760.335 77.5 760.335 77.72V97.28C760.335 97.48 760.265 97.65 760.125 97.79C760.005 97.93 759.845 98 759.645 98H758.295C757.955 98 757.715 97.86 757.575 97.58L747.525 82.25V97.31C747.525 97.51 747.455 97.68 747.315 97.82C747.195 97.94 747.035 98 746.835 98H745.455ZM765.656 79.46C765.456 79.46 765.286 79.4 765.146 79.28C765.026 79.14 764.966 78.97 764.966 78.77V77.21C764.966 77.01 765.026 76.84 765.146 76.7C765.286 76.56 765.456 76.49 765.656 76.49H767.426C767.626 76.49 767.796 76.56 767.936 76.7C768.076 76.84 768.146 77.01 768.146 77.21V78.77C768.146 78.97 768.076 79.14 767.936 79.28C767.796 79.4 767.626 79.46 767.426 79.46H765.656ZM765.896 98C765.696 98 765.526 97.94 765.386 97.82C765.266 97.68 765.206 97.51 765.206 97.31V83.09C765.206 82.89 765.266 82.73 765.386 82.61C765.526 82.47 765.696 82.4 765.896 82.4H767.216C767.416 82.4 767.576 82.47 767.696 82.61C767.836 82.73 767.906 82.89 767.906 83.09V97.31C767.906 97.51 767.836 97.68 767.696 97.82C767.576 97.94 767.416 98 767.216 98H765.896ZM778.743 104.6C777.083 104.6 775.753 104.32 774.753 103.76C773.753 103.2 773.043 102.56 772.623 101.84C772.223 101.12 772.023 100.5 772.023 99.98C772.023 99.8 772.093 99.64 772.233 99.5C772.373 99.38 772.533 99.32 772.713 99.32H774.033C774.213 99.32 774.363 99.36 774.483 99.44C774.603 99.54 774.703 99.71 774.783 99.95C775.343 101.55 776.613 102.35 778.593 102.35C780.093 102.35 781.203 102.03 781.923 101.39C782.643 100.75 783.003 99.62 783.003 98V95.93C781.843 97.41 780.223 98.15 778.143 98.15C776.023 98.15 774.433 97.47 773.373 96.11C772.333 94.75 771.783 93.03 771.723 90.95L771.693 90.11L771.723 89.3C771.783 87.24 772.333 85.53 773.373 84.17C774.433 82.79 776.023 82.1 778.143 82.1C780.243 82.1 781.883 82.87 783.063 84.41V83.12C783.063 82.92 783.123 82.75 783.243 82.61C783.383 82.47 783.553 82.4 783.753 82.4H785.043C785.243 82.4 785.403 82.47 785.523 82.61C785.663 82.75 785.733 82.92 785.733 83.12V97.67C785.733 102.29 783.403 104.6 778.743 104.6ZM778.683 95.81C780.083 95.81 781.133 95.36 781.833 94.46C782.553 93.54 782.943 92.44 783.003 91.16C783.023 90.98 783.033 90.63 783.033 90.11C783.033 89.61 783.023 89.27 783.003 89.09C782.943 87.81 782.553 86.72 781.833 85.82C781.133 84.9 780.083 84.44 778.683 84.44C777.243 84.44 776.193 84.9 775.533 85.82C774.893 86.72 774.543 87.89 774.483 89.33L774.453 90.11L774.483 90.92C774.543 92.36 774.893 93.54 775.533 94.46C776.193 95.36 777.243 95.81 778.683 95.81ZM790.975 98C790.775 98 790.605 97.94 790.465 97.82C790.345 97.68 790.285 97.51 790.285 97.31V77.39C790.285 77.17 790.345 77 790.465 76.88C790.605 76.76 790.775 76.7 790.975 76.7H792.355C792.575 76.7 792.745 76.76 792.865 76.88C792.985 77 793.045 77.17 793.045 77.39V84.38C793.625 83.64 794.305 83.08 795.085 82.7C795.885 82.3 796.865 82.1 798.025 82.1C799.945 82.1 801.435 82.72 802.495 83.96C803.575 85.18 804.115 86.8 804.115 88.82V97.31C804.115 97.51 804.045 97.68 803.905 97.82C803.785 97.94 803.625 98 803.425 98H802.015C801.815 98 801.645 97.94 801.505 97.82C801.385 97.68 801.325 97.51 801.325 97.31V89C801.325 87.56 800.975 86.44 800.275 85.64C799.575 84.84 798.565 84.44 797.245 84.44C795.965 84.44 794.945 84.85 794.185 85.67C793.425 86.47 793.045 87.58 793.045 89V97.31C793.045 97.51 792.975 97.68 792.835 97.82C792.715 97.94 792.555 98 792.355 98H790.975ZM814.272 98C811.172 98 809.622 96.25 809.622 92.75V84.71H807.252C807.052 84.71 806.892 84.65 806.772 84.53C806.652 84.41 806.592 84.25 806.592 84.05V83.09C806.592 82.89 806.652 82.73 806.772 82.61C806.892 82.47 807.052 82.4 807.252 82.4H809.622V77.39C809.622 77.19 809.682 77.03 809.802 76.91C809.922 76.77 810.082 76.7 810.282 76.7H811.602C811.802 76.7 811.962 76.77 812.082 76.91C812.222 77.03 812.292 77.19 812.292 77.39V82.4H816.012C816.212 82.4 816.372 82.47 816.492 82.61C816.632 82.73 816.702 82.89 816.702 83.09V84.05C816.702 84.25 816.632 84.41 816.492 84.53C816.372 84.65 816.212 84.71 816.012 84.71H812.292V92.54C812.292 93.56 812.452 94.33 812.772 94.85C813.112 95.37 813.682 95.63 814.482 95.63H816.312C816.512 95.63 816.672 95.7 816.792 95.84C816.912 95.96 816.972 96.12 816.972 96.32V97.31C816.972 97.51 816.912 97.68 816.792 97.82C816.672 97.94 816.512 98 816.312 98H814.272Z" fill="white"/>
<path d="M647.582 60C647.422 60 647.278 59.944 647.15 59.832C647.038 59.704 646.982 59.56 646.982 59.4V56.76H639.542C639.382 56.76 639.238 56.704 639.11 56.592C638.998 56.464 638.942 56.32 638.942 56.16V53.736C638.942 53.496 639.03 53.256 639.206 53.016L646.166 43.608C646.39 43.336 646.686 43.2 647.054 43.2H650.702C650.878 43.2 651.022 43.256 651.134 43.368C651.262 43.48 651.326 43.624 651.326 43.8V53.04H653.438C653.63 53.04 653.782 53.104 653.894 53.232C654.006 53.344 654.062 53.48 654.062 53.64V56.16C654.062 56.32 654.006 56.464 653.894 56.592C653.782 56.704 653.638 56.76 653.462 56.76H651.326V59.4C651.326 59.576 651.262 59.72 651.134 59.832C651.022 59.944 650.878 60 650.702 60H647.582ZM643.214 53.208H647.078V47.808L643.214 53.208ZM659.919 60C659.791 60 659.671 59.952 659.559 59.856C659.463 59.744 659.415 59.624 659.415 59.496C659.415 59.4 659.423 59.328 659.439 59.28L665.031 43.896C665.191 43.432 665.511 43.2 665.991 43.2H669.735C670.215 43.2 670.535 43.432 670.695 43.896L676.287 59.28C676.303 59.328 676.311 59.4 676.311 59.496C676.311 59.624 676.255 59.744 676.143 59.856C676.047 59.952 675.935 60 675.807 60H672.687C672.303 60 672.031 59.824 671.871 59.472L671.007 57.144H664.719L663.855 59.472C663.695 59.824 663.423 60 663.039 60H659.919ZM665.727 53.544H669.999L667.863 47.424L665.727 53.544ZM678.488 64.56C678.312 64.56 678.16 64.504 678.032 64.392C677.92 64.28 677.864 64.136 677.864 63.96V48.12C677.864 47.944 677.92 47.8 678.032 47.688C678.16 47.576 678.312 47.52 678.488 47.52H681.344C681.52 47.52 681.664 47.576 681.776 47.688C681.888 47.8 681.944 47.944 681.944 48.12V48.984C682.808 47.848 684.048 47.28 685.664 47.28C687.216 47.28 688.432 47.768 689.312 48.744C690.208 49.704 690.688 51.08 690.752 52.872C690.768 53.08 690.776 53.376 690.776 53.76C690.776 54.144 690.768 54.448 690.752 54.672C690.688 56.4 690.208 57.76 689.312 58.752C688.416 59.744 687.2 60.24 685.664 60.24C684.112 60.24 682.952 59.712 682.184 58.656V63.96C682.184 64.136 682.128 64.28 682.016 64.392C681.904 64.504 681.76 64.56 681.584 64.56H678.488ZM684.272 56.904C684.992 56.904 685.504 56.696 685.808 56.28C686.128 55.848 686.312 55.256 686.36 54.504C686.376 54.344 686.384 54.096 686.384 53.76C686.384 53.424 686.376 53.176 686.36 53.016C686.312 52.264 686.128 51.68 685.808 51.264C685.504 50.832 684.992 50.616 684.272 50.616C683.584 50.616 683.072 50.84 682.736 51.288C682.4 51.72 682.216 52.272 682.184 52.944C682.168 53.152 682.16 53.456 682.16 53.856C682.16 54.24 682.168 54.536 682.184 54.744C682.216 55.368 682.4 55.888 682.736 56.304C683.088 56.704 683.6 56.904 684.272 56.904ZM693.675 60C693.515 60 693.371 59.944 693.243 59.832C693.131 59.704 693.075 59.56 693.075 59.4V48.144C693.075 47.968 693.131 47.824 693.243 47.712C693.355 47.584 693.499 47.52 693.675 47.52H696.603C696.779 47.52 696.923 47.584 697.035 47.712C697.163 47.824 697.227 47.968 697.227 48.144V49.056C697.675 48.56 698.195 48.184 698.787 47.928C699.395 47.656 700.067 47.52 700.803 47.52H701.883C702.059 47.52 702.203 47.576 702.315 47.688C702.427 47.8 702.483 47.944 702.483 48.12V50.736C702.483 50.896 702.427 51.04 702.315 51.168C702.203 51.28 702.059 51.336 701.883 51.336H699.459C698.819 51.336 698.323 51.512 697.971 51.864C697.635 52.216 697.467 52.712 697.467 53.352V59.4C697.467 59.576 697.403 59.72 697.275 59.832C697.163 59.944 697.019 60 696.843 60H693.675ZM704.738 45.792C704.562 45.792 704.418 45.736 704.306 45.624C704.194 45.496 704.138 45.344 704.138 45.168V42.936C704.138 42.76 704.194 42.616 704.306 42.504C704.434 42.376 704.578 42.312 704.738 42.312H707.738C707.914 42.312 708.058 42.376 708.17 42.504C708.298 42.616 708.362 42.76 708.362 42.936V45.168C708.362 45.344 708.298 45.496 708.17 45.624C708.058 45.736 707.914 45.792 707.738 45.792H704.738ZM704.738 60C704.578 60 704.434 59.944 704.306 59.832C704.194 59.704 704.138 59.56 704.138 59.4V48.12C704.138 47.944 704.194 47.8 704.306 47.688C704.434 47.576 704.578 47.52 704.738 47.52H707.738C707.914 47.52 708.058 47.576 708.17 47.688C708.298 47.8 708.362 47.944 708.362 48.12V59.4C708.362 59.576 708.298 59.72 708.17 59.832C708.058 59.944 707.914 60 707.738 60H704.738ZM711.722 60C711.546 60 711.394 59.944 711.266 59.832C711.154 59.72 711.098 59.576 711.098 59.4V43.56C711.098 43.384 711.154 43.24 711.266 43.128C711.394 43.016 711.546 42.96 711.722 42.96H714.722C714.898 42.96 715.042 43.016 715.154 43.128C715.266 43.24 715.322 43.384 715.322 43.56V59.4C715.322 59.56 715.266 59.704 715.154 59.832C715.042 59.944 714.898 60 714.722 60H711.722ZM723.314 60C723.154 60 723.01 59.944 722.882 59.832C722.77 59.704 722.714 59.56 722.714 59.4V57.6C722.714 57.12 722.914 56.72 723.314 56.4L725.546 54.216C727.066 53.064 728.21 52.168 728.978 51.528C729.762 50.888 730.354 50.312 730.754 49.8C731.17 49.272 731.378 48.776 731.378 48.312C731.378 47.128 730.786 46.536 729.602 46.536C728.978 46.536 728.498 46.728 728.162 47.112C727.826 47.48 727.602 47.944 727.49 48.504C727.394 48.872 727.122 49.056 726.674 49.056H723.506C723.362 49.056 723.234 49.008 723.122 48.912C723.026 48.8 722.978 48.68 722.978 48.552C723.01 47.496 723.298 46.544 723.842 45.696C724.402 44.832 725.178 44.152 726.17 43.656C727.162 43.144 728.306 42.888 729.602 42.888C730.946 42.888 732.106 43.104 733.082 43.536C734.058 43.968 734.794 44.576 735.29 45.36C735.802 46.144 736.058 47.056 736.058 48.096C736.058 49.248 735.698 50.288 734.978 51.216C734.274 52.144 733.194 53.152 731.738 54.24L729.746 56.232H735.818C735.994 56.232 736.138 56.288 736.25 56.4C736.362 56.512 736.418 56.656 736.418 56.832V59.4C736.418 59.56 736.362 59.704 736.25 59.832C736.138 59.944 735.994 60 735.818 60H723.314ZM745.664 60.24C743.456 60.224 741.776 59.64 740.624 58.488C739.472 57.336 738.84 55.816 738.728 53.928C738.696 53.064 738.68 52.288 738.68 51.6C738.68 50.896 738.696 50.096 738.728 49.2C738.792 48 739.088 46.936 739.616 46.008C740.16 45.064 740.936 44.32 741.944 43.776C742.968 43.232 744.208 42.96 745.664 42.96C747.12 42.96 748.36 43.232 749.384 43.776C750.408 44.32 751.184 45.064 751.712 46.008C752.256 46.936 752.56 48 752.624 49.2C752.656 49.648 752.672 50.448 752.672 51.6C752.672 52.72 752.656 53.496 752.624 53.928C752.512 55.816 751.88 57.336 750.728 58.488C749.576 59.64 747.888 60.224 745.664 60.24ZM745.664 56.616C746.416 56.616 746.976 56.376 747.344 55.896C747.712 55.4 747.912 54.704 747.944 53.808C747.976 53.344 747.992 52.592 747.992 51.552C747.992 50.512 747.976 49.776 747.944 49.344C747.912 48.48 747.712 47.8 747.344 47.304C746.976 46.792 746.416 46.536 745.664 46.536C744.224 46.536 743.464 47.472 743.384 49.344C743.368 49.776 743.36 50.512 743.36 51.552C743.36 52.592 743.368 53.344 743.384 53.808C743.464 55.68 744.224 56.616 745.664 56.616ZM755.471 60C755.311 60 755.167 59.944 755.039 59.832C754.927 59.704 754.871 59.56 754.871 59.4V57.6C754.871 57.12 755.071 56.72 755.471 56.4L757.703 54.216C759.223 53.064 760.367 52.168 761.135 51.528C761.919 50.888 762.511 50.312 762.911 49.8C763.327 49.272 763.535 48.776 763.535 48.312C763.535 47.128 762.943 46.536 761.759 46.536C761.135 46.536 760.655 46.728 760.319 47.112C759.983 47.48 759.759 47.944 759.647 48.504C759.551 48.872 759.279 49.056 758.831 49.056H755.663C755.519 49.056 755.391 49.008 755.279 48.912C755.183 48.8 755.135 48.68 755.135 48.552C755.167 47.496 755.455 46.544 755.999 45.696C756.559 44.832 757.335 44.152 758.327 43.656C759.319 43.144 760.463 42.888 761.759 42.888C763.103 42.888 764.263 43.104 765.239 43.536C766.215 43.968 766.951 44.576 767.447 45.36C767.959 46.144 768.215 47.056 768.215 48.096C768.215 49.248 767.855 50.288 767.135 51.216C766.431 52.144 765.351 53.152 763.895 54.24L761.903 56.232H767.975C768.151 56.232 768.295 56.288 768.407 56.4C768.519 56.512 768.575 56.656 768.575 56.832V59.4C768.575 59.56 768.519 59.704 768.407 59.832C768.295 59.944 768.151 60 767.975 60H755.471ZM776.285 60C776.125 60 775.981 59.944 775.853 59.832C775.741 59.704 775.685 59.56 775.685 59.4V48.168L772.469 50.64C772.341 50.72 772.221 50.76 772.109 50.76C771.917 50.76 771.749 50.664 771.605 50.472L770.117 48.552C770.053 48.44 770.021 48.32 770.021 48.192C770.021 47.968 770.109 47.792 770.285 47.664L775.853 43.368C776.013 43.256 776.197 43.2 776.405 43.2H779.573C779.749 43.2 779.893 43.256 780.005 43.368C780.133 43.48 780.197 43.624 780.197 43.8V59.4C780.197 59.576 780.133 59.72 780.005 59.832C779.893 59.944 779.749 60 779.573 60H776.285Z" fill="white"/>
<circle cx="711" cy="12" r="12" fill="#FFBA53"/>
<path d="M322.522 98C322.322 98 322.162 97.94 322.042 97.82C321.922 97.68 321.862 97.51 321.862 97.31V77.72C321.862 77.5 321.922 77.33 322.042 77.21C322.162 77.07 322.322 77 322.522 77H330.112C332.372 77 334.142 77.55 335.422 78.65C336.722 79.73 337.372 81.31 337.372 83.39C337.372 85.47 336.722 87.05 335.422 88.13C334.142 89.21 332.372 89.75 330.112 89.75H324.712V97.31C324.712 97.51 324.642 97.68 324.502 97.82C324.382 97.94 324.222 98 324.022 98H322.522ZM329.962 87.32C332.982 87.32 334.492 86.01 334.492 83.39C334.492 82.11 334.112 81.13 333.352 80.45C332.612 79.77 331.482 79.43 329.962 79.43H324.712V87.32H329.962ZM346.665 98.3C344.625 98.3 342.995 97.67 341.775 96.41C340.555 95.13 339.885 93.39 339.765 91.19L339.735 90.17L339.765 89.18C339.885 87.02 340.555 85.3 341.775 84.02C342.995 82.74 344.625 82.1 346.665 82.1C348.865 82.1 350.565 82.8 351.765 84.2C352.985 85.6 353.595 87.5 353.595 89.9V90.44C353.595 90.64 353.525 90.81 353.385 90.95C353.265 91.07 353.105 91.13 352.905 91.13H342.495V91.4C342.555 92.7 342.955 93.81 343.695 94.73C344.435 95.65 345.415 96.11 346.635 96.11C347.575 96.11 348.335 95.93 348.915 95.57C349.515 95.19 349.965 94.8 350.265 94.4C350.445 94.16 350.585 94.02 350.685 93.98C350.785 93.92 350.955 93.89 351.195 93.89H352.515C352.695 93.89 352.845 93.94 352.965 94.04C353.105 94.14 353.175 94.27 353.175 94.43C353.175 94.87 352.905 95.4 352.365 96.02C351.825 96.64 351.055 97.18 350.055 97.64C349.075 98.08 347.945 98.3 346.665 98.3ZM350.865 89.09V89C350.865 87.6 350.485 86.46 349.725 85.58C348.965 84.7 347.945 84.26 346.665 84.26C345.365 84.26 344.345 84.7 343.605 85.58C342.865 86.46 342.495 87.6 342.495 89V89.09H350.865ZM357.933 98C357.733 98 357.563 97.94 357.423 97.82C357.303 97.68 357.243 97.51 357.243 97.31V83.09C357.243 82.89 357.303 82.73 357.423 82.61C357.563 82.47 357.733 82.4 357.933 82.4H359.223C359.443 82.4 359.613 82.46 359.733 82.58C359.853 82.7 359.913 82.87 359.913 83.09V84.41C360.513 83.67 361.203 83.1 361.983 82.7C362.783 82.3 363.773 82.1 364.953 82.1C366.873 82.1 368.363 82.72 369.423 83.96C370.483 85.18 371.013 86.8 371.013 88.82V97.31C371.013 97.51 370.943 97.68 370.803 97.82C370.683 97.94 370.523 98 370.323 98H368.943C368.743 98 368.573 97.94 368.433 97.82C368.313 97.68 368.253 97.51 368.253 97.31V89C368.253 87.56 367.903 86.44 367.203 85.64C366.503 84.84 365.503 84.44 364.203 84.44C362.923 84.44 361.903 84.85 361.143 85.67C360.383 86.47 360.003 87.58 360.003 89V97.31C360.003 97.51 359.933 97.68 359.793 97.82C359.673 97.94 359.513 98 359.313 98H357.933ZM381.679 104.6C380.019 104.6 378.689 104.32 377.689 103.76C376.689 103.2 375.979 102.56 375.559 101.84C375.159 101.12 374.959 100.5 374.959 99.98C374.959 99.8 375.029 99.64 375.169 99.5C375.309 99.38 375.469 99.32 375.649 99.32H376.969C377.149 99.32 377.299 99.36 377.419 99.44C377.539 99.54 377.639 99.71 377.719 99.95C378.279 101.55 379.549 102.35 381.529 102.35C383.029 102.35 384.139 102.03 384.859 101.39C385.579 100.75 385.939 99.62 385.939 98V95.93C384.779 97.41 383.159 98.15 381.079 98.15C378.959 98.15 377.369 97.47 376.309 96.11C375.269 94.75 374.719 93.03 374.659 90.95L374.629 90.11L374.659 89.3C374.719 87.24 375.269 85.53 376.309 84.17C377.369 82.79 378.959 82.1 381.079 82.1C383.179 82.1 384.819 82.87 385.999 84.41V83.12C385.999 82.92 386.059 82.75 386.179 82.61C386.319 82.47 386.489 82.4 386.689 82.4H387.979C388.179 82.4 388.339 82.47 388.459 82.61C388.599 82.75 388.669 82.92 388.669 83.12V97.67C388.669 102.29 386.339 104.6 381.679 104.6ZM381.619 95.81C383.019 95.81 384.069 95.36 384.769 94.46C385.489 93.54 385.879 92.44 385.939 91.16C385.959 90.98 385.969 90.63 385.969 90.11C385.969 89.61 385.959 89.27 385.939 89.09C385.879 87.81 385.489 86.72 384.769 85.82C384.069 84.9 383.019 84.44 381.619 84.44C380.179 84.44 379.129 84.9 378.469 85.82C377.829 86.72 377.479 87.89 377.419 89.33L377.389 90.11L377.419 90.92C377.479 92.36 377.829 93.54 378.469 94.46C379.129 95.36 380.179 95.81 381.619 95.81ZM399.01 98.3C397.11 98.3 395.64 97.69 394.6 96.47C393.56 95.23 393.04 93.59 393.04 91.55V83.09C393.04 82.89 393.1 82.73 393.22 82.61C393.36 82.47 393.53 82.4 393.73 82.4H395.11C395.31 82.4 395.47 82.47 395.59 82.61C395.73 82.73 395.8 82.89 395.8 83.09V91.4C395.8 94.44 397.12 95.96 399.76 95.96C401.04 95.96 402.05 95.56 402.79 94.76C403.55 93.94 403.93 92.82 403.93 91.4V83.09C403.93 82.89 403.99 82.73 404.11 82.61C404.25 82.47 404.42 82.4 404.62 82.4H406C406.2 82.4 406.36 82.47 406.48 82.61C406.62 82.73 406.69 82.89 406.69 83.09V97.31C406.69 97.51 406.62 97.68 406.48 97.82C406.36 97.94 406.2 98 406 98H404.71C404.51 98 404.34 97.94 404.2 97.82C404.08 97.68 404.02 97.51 404.02 97.31V95.96C403.44 96.74 402.76 97.33 401.98 97.73C401.2 98.11 400.21 98.3 399.01 98.3ZM411.869 98C411.669 98 411.499 97.94 411.359 97.82C411.239 97.68 411.179 97.51 411.179 97.31V83.09C411.179 82.89 411.239 82.73 411.359 82.61C411.499 82.47 411.669 82.4 411.869 82.4H413.129C413.329 82.4 413.489 82.47 413.609 82.61C413.729 82.73 413.789 82.89 413.789 83.09V84.11C414.869 82.77 416.329 82.1 418.169 82.1C420.369 82.1 421.929 83.02 422.849 84.86C423.329 84.02 424.009 83.35 424.889 82.85C425.789 82.35 426.789 82.1 427.889 82.1C429.529 82.1 430.869 82.66 431.909 83.78C432.949 84.9 433.469 86.52 433.469 88.64V97.31C433.469 97.51 433.399 97.68 433.259 97.82C433.139 97.94 432.979 98 432.779 98H431.489C431.289 98 431.119 97.94 430.979 97.82C430.859 97.68 430.799 97.51 430.799 97.31V88.91C430.799 87.31 430.469 86.17 429.809 85.49C429.149 84.79 428.279 84.44 427.199 84.44C426.239 84.44 425.409 84.8 424.709 85.52C424.029 86.22 423.689 87.35 423.689 88.91V97.31C423.689 97.51 423.619 97.68 423.479 97.82C423.359 97.94 423.199 98 422.999 98H421.679C421.479 98 421.309 97.94 421.169 97.82C421.049 97.68 420.989 97.51 420.989 97.31V88.91C420.989 87.33 420.639 86.19 419.939 85.49C419.259 84.79 418.409 84.44 417.389 84.44C416.429 84.44 415.599 84.79 414.899 85.49C414.219 86.19 413.879 87.32 413.879 88.88V97.31C413.879 97.51 413.809 97.68 413.669 97.82C413.549 97.94 413.389 98 413.189 98H411.869ZM443.63 98.3C441.73 98.3 440.26 97.69 439.22 96.47C438.18 95.23 437.66 93.59 437.66 91.55V83.09C437.66 82.89 437.72 82.73 437.84 82.61C437.98 82.47 438.15 82.4 438.35 82.4H439.73C439.93 82.4 440.09 82.47 440.21 82.61C440.35 82.73 440.42 82.89 440.42 83.09V91.4C440.42 94.44 441.74 95.96 444.38 95.96C445.66 95.96 446.67 95.56 447.41 94.76C448.17 93.94 448.55 92.82 448.55 91.4V83.09C448.55 82.89 448.61 82.73 448.73 82.61C448.87 82.47 449.04 82.4 449.24 82.4H450.62C450.82 82.4 450.98 82.47 451.1 82.61C451.24 82.73 451.31 82.89 451.31 83.09V97.31C451.31 97.51 451.24 97.68 451.1 97.82C450.98 97.94 450.82 98 450.62 98H449.33C449.13 98 448.96 97.94 448.82 97.82C448.7 97.68 448.64 97.51 448.64 97.31V95.96C448.06 96.74 447.38 97.33 446.6 97.73C445.82 98.11 444.83 98.3 443.63 98.3ZM456.488 98C456.288 98 456.118 97.94 455.978 97.82C455.858 97.68 455.798 97.51 455.798 97.31V83.09C455.798 82.89 455.858 82.73 455.978 82.61C456.118 82.47 456.288 82.4 456.488 82.4H457.748C457.948 82.4 458.108 82.47 458.228 82.61C458.348 82.73 458.408 82.89 458.408 83.09V84.11C459.488 82.77 460.948 82.1 462.788 82.1C464.988 82.1 466.548 83.02 467.468 84.86C467.948 84.02 468.628 83.35 469.508 82.85C470.408 82.35 471.408 82.1 472.508 82.1C474.148 82.1 475.488 82.66 476.528 83.78C477.568 84.9 478.088 86.52 478.088 88.64V97.31C478.088 97.51 478.018 97.68 477.878 97.82C477.758 97.94 477.598 98 477.398 98H476.108C475.908 98 475.738 97.94 475.598 97.82C475.478 97.68 475.418 97.51 475.418 97.31V88.91C475.418 87.31 475.088 86.17 474.428 85.49C473.768 84.79 472.898 84.44 471.818 84.44C470.858 84.44 470.028 84.8 469.328 85.52C468.648 86.22 468.308 87.35 468.308 88.91V97.31C468.308 97.51 468.238 97.68 468.098 97.82C467.978 97.94 467.818 98 467.618 98H466.298C466.098 98 465.928 97.94 465.788 97.82C465.668 97.68 465.608 97.51 465.608 97.31V88.91C465.608 87.33 465.258 86.19 464.558 85.49C463.878 84.79 463.028 84.44 462.008 84.44C461.048 84.44 460.218 84.79 459.518 85.49C458.838 86.19 458.498 87.32 458.498 88.88V97.31C458.498 97.51 458.428 97.68 458.288 97.82C458.168 97.94 458.008 98 457.808 98H456.488ZM486.749 98.3C485.769 98.3 484.859 98.1 484.019 97.7C483.199 97.3 482.539 96.76 482.039 96.08C481.559 95.38 481.319 94.61 481.319 93.77C481.319 92.45 481.859 91.37 482.939 90.53C484.019 89.69 485.489 89.13 487.349 88.85L491.849 88.22V87.35C491.849 85.29 490.659 84.26 488.279 84.26C487.359 84.26 486.619 84.45 486.059 84.83C485.499 85.19 485.089 85.62 484.829 86.12C484.749 86.32 484.659 86.46 484.559 86.54C484.479 86.6 484.359 86.63 484.199 86.63H483.029C482.849 86.63 482.689 86.57 482.549 86.45C482.429 86.31 482.369 86.15 482.369 85.97C482.369 85.51 482.579 84.98 482.999 84.38C483.439 83.76 484.109 83.23 485.009 82.79C485.909 82.33 487.009 82.1 488.309 82.1C490.549 82.1 492.149 82.62 493.109 83.66C494.089 84.7 494.579 86 494.579 87.56V97.31C494.579 97.51 494.509 97.68 494.369 97.82C494.249 97.94 494.089 98 493.889 98H492.569C492.369 98 492.209 97.94 492.089 97.82C491.969 97.68 491.909 97.51 491.909 97.31V95.99C491.469 96.65 490.829 97.2 489.989 97.64C489.149 98.08 488.069 98.3 486.749 98.3ZM487.349 96.11C488.669 96.11 489.749 95.68 490.589 94.82C491.429 93.96 491.849 92.71 491.849 91.07V90.23L488.339 90.74C486.899 90.94 485.809 91.28 485.069 91.76C484.329 92.24 483.959 92.84 483.959 93.56C483.959 94.38 484.289 95.01 484.949 95.45C485.629 95.89 486.429 96.11 487.349 96.11ZM499.613 98C499.413 98 499.243 97.94 499.103 97.82C498.983 97.68 498.923 97.51 498.923 97.31V83.09C498.923 82.89 498.983 82.73 499.103 82.61C499.243 82.47 499.413 82.4 499.613 82.4H500.903C501.123 82.4 501.293 82.46 501.413 82.58C501.533 82.7 501.593 82.87 501.593 83.09V84.41C502.193 83.67 502.883 83.1 503.663 82.7C504.463 82.3 505.453 82.1 506.633 82.1C508.553 82.1 510.043 82.72 511.103 83.96C512.163 85.18 512.693 86.8 512.693 88.82V97.31C512.693 97.51 512.623 97.68 512.483 97.82C512.363 97.94 512.203 98 512.003 98H510.623C510.423 98 510.253 97.94 510.113 97.82C509.993 97.68 509.933 97.51 509.933 97.31V89C509.933 87.56 509.583 86.44 508.883 85.64C508.183 84.84 507.183 84.44 505.883 84.44C504.603 84.44 503.583 84.85 502.823 85.67C502.063 86.47 501.683 87.58 501.683 89V97.31C501.683 97.51 501.613 97.68 501.473 97.82C501.353 97.94 501.193 98 500.993 98H499.613ZM346.17 134C345.97 134 345.8 133.94 345.66 133.82C345.54 133.68 345.48 133.51 345.48 133.31V115.58H339.69C339.49 115.58 339.32 115.52 339.18 115.4C339.06 115.26 339 115.09 339 114.89V113.72C339 113.5 339.06 113.33 339.18 113.21C339.32 113.07 339.49 113 339.69 113H354.09C354.31 113 354.48 113.07 354.6 113.21C354.72 113.33 354.78 113.5 354.78 113.72V114.89C354.78 115.09 354.71 115.26 354.57 115.4C354.45 115.52 354.29 115.58 354.09 115.58H348.33V133.31C348.33 133.51 348.26 133.68 348.12 133.82C347.98 133.94 347.81 134 347.61 134H346.17ZM359.381 134.3C358.401 134.3 357.491 134.1 356.651 133.7C355.831 133.3 355.171 132.76 354.671 132.08C354.191 131.38 353.951 130.61 353.951 129.77C353.951 128.45 354.491 127.37 355.571 126.53C356.651 125.69 358.121 125.13 359.981 124.85L364.481 124.22V123.35C364.481 121.29 363.291 120.26 360.911 120.26C359.991 120.26 359.251 120.45 358.691 120.83C358.131 121.19 357.721 121.62 357.461 122.12C357.381 122.32 357.291 122.46 357.191 122.54C357.111 122.6 356.991 122.63 356.831 122.63H355.661C355.481 122.63 355.321 122.57 355.181 122.45C355.061 122.31 355.001 122.15 355.001 121.97C355.001 121.51 355.211 120.98 355.631 120.38C356.071 119.76 356.741 119.23 357.641 118.79C358.541 118.33 359.641 118.1 360.941 118.1C363.181 118.1 364.781 118.62 365.741 119.66C366.721 120.7 367.211 122 367.211 123.56V133.31C367.211 133.51 367.141 133.68 367.001 133.82C366.881 133.94 366.721 134 366.521 134H365.201C365.001 134 364.841 133.94 364.721 133.82C364.601 133.68 364.541 133.51 364.541 133.31V131.99C364.101 132.65 363.461 133.2 362.621 133.64C361.781 134.08 360.701 134.3 359.381 134.3ZM359.981 132.11C361.301 132.11 362.381 131.68 363.221 130.82C364.061 129.96 364.481 128.71 364.481 127.07V126.23L360.971 126.74C359.531 126.94 358.441 127.28 357.701 127.76C356.961 128.24 356.591 128.84 356.591 129.56C356.591 130.38 356.921 131.01 357.581 131.45C358.261 131.89 359.061 132.11 359.981 132.11ZM372.275 134C372.075 134 371.905 133.94 371.765 133.82C371.645 133.68 371.585 133.51 371.585 133.31V113.39C371.585 113.17 371.645 113 371.765 112.88C371.905 112.76 372.075 112.7 372.275 112.7H373.655C373.875 112.7 374.045 112.76 374.165 112.88C374.285 113 374.345 113.17 374.345 113.39V120.38C374.925 119.64 375.605 119.08 376.385 118.7C377.185 118.3 378.165 118.1 379.325 118.1C381.245 118.1 382.735 118.72 383.795 119.96C384.875 121.18 385.415 122.8 385.415 124.82V133.31C385.415 133.51 385.345 133.68 385.205 133.82C385.085 133.94 384.925 134 384.725 134H383.315C383.115 134 382.945 133.94 382.805 133.82C382.685 133.68 382.625 133.51 382.625 133.31V125C382.625 123.56 382.275 122.44 381.575 121.64C380.875 120.84 379.865 120.44 378.545 120.44C377.265 120.44 376.245 120.85 375.485 121.67C374.725 122.47 374.345 123.58 374.345 125V133.31C374.345 133.51 374.275 133.68 374.135 133.82C374.015 133.94 373.855 134 373.655 134H372.275ZM394.097 134.3C393.117 134.3 392.207 134.1 391.367 133.7C390.547 133.3 389.887 132.76 389.387 132.08C388.907 131.38 388.667 130.61 388.667 129.77C388.667 128.45 389.207 127.37 390.287 126.53C391.367 125.69 392.837 125.13 394.697 124.85L399.197 124.22V123.35C399.197 121.29 398.007 120.26 395.627 120.26C394.707 120.26 393.967 120.45 393.407 120.83C392.847 121.19 392.437 121.62 392.177 122.12C392.097 122.32 392.007 122.46 391.907 122.54C391.827 122.6 391.707 122.63 391.547 122.63H390.377C390.197 122.63 390.037 122.57 389.897 122.45C389.777 122.31 389.717 122.15 389.717 121.97C389.717 121.51 389.927 120.98 390.347 120.38C390.787 119.76 391.457 119.23 392.357 118.79C393.257 118.33 394.357 118.1 395.657 118.1C397.897 118.1 399.497 118.62 400.457 119.66C401.437 120.7 401.927 122 401.927 123.56V133.31C401.927 133.51 401.857 133.68 401.717 133.82C401.597 133.94 401.437 134 401.237 134H399.917C399.717 134 399.557 133.94 399.437 133.82C399.317 133.68 399.257 133.51 399.257 133.31V131.99C398.817 132.65 398.177 133.2 397.337 133.64C396.497 134.08 395.417 134.3 394.097 134.3ZM394.697 132.11C396.017 132.11 397.097 131.68 397.937 130.82C398.777 129.96 399.197 128.71 399.197 127.07V126.23L395.687 126.74C394.247 126.94 393.157 127.28 392.417 127.76C391.677 128.24 391.307 128.84 391.307 129.56C391.307 130.38 391.637 131.01 392.297 131.45C392.977 131.89 393.777 132.11 394.697 132.11ZM406.991 139.7C406.791 139.7 406.621 139.64 406.481 139.52C406.361 139.4 406.301 139.23 406.301 139.01V119.09C406.301 118.87 406.361 118.7 406.481 118.58C406.621 118.46 406.791 118.4 406.991 118.4H408.251C408.471 118.4 408.641 118.46 408.761 118.58C408.881 118.7 408.941 118.87 408.941 119.09V120.41C410.101 118.87 411.751 118.1 413.891 118.1C415.991 118.1 417.561 118.77 418.601 120.11C419.661 121.43 420.221 123.12 420.281 125.18C420.301 125.4 420.311 125.74 420.311 126.2C420.311 126.66 420.301 127 420.281 127.22C420.221 129.26 419.661 130.95 418.601 132.29C417.561 133.63 415.991 134.3 413.891 134.3C411.751 134.3 410.131 133.54 409.031 132.02V139.01C409.031 139.21 408.961 139.37 408.821 139.49C408.701 139.63 408.541 139.7 408.341 139.7H406.991ZM413.321 131.96C414.761 131.96 415.811 131.51 416.471 130.61C417.131 129.71 417.491 128.53 417.551 127.07C417.571 126.87 417.581 126.58 417.581 126.2C417.581 122.36 416.161 120.44 413.321 120.44C411.921 120.44 410.861 120.91 410.141 121.85C409.441 122.77 409.071 123.86 409.031 125.12C409.011 125.34 409.001 125.73 409.001 126.29C409.001 126.85 409.011 127.24 409.031 127.46C409.071 128.68 409.451 129.74 410.171 130.64C410.911 131.52 411.961 131.96 413.321 131.96ZM432.517 134C432.317 134 432.157 133.94 432.037 133.82C431.917 133.68 431.857 133.51 431.857 133.31V113.72C431.857 113.5 431.917 113.33 432.037 113.21C432.157 113.07 432.317 113 432.517 113H444.697C444.917 113 445.087 113.07 445.207 113.21C445.347 113.33 445.417 113.5 445.417 113.72V114.83C445.417 115.03 445.347 115.2 445.207 115.34C445.087 115.46 444.917 115.52 444.697 115.52H434.647V122.63H444.097C444.317 122.63 444.487 122.7 444.607 122.84C444.747 122.96 444.817 123.12 444.817 123.32V124.46C444.817 124.66 444.747 124.83 444.607 124.97C444.467 125.09 444.297 125.15 444.097 125.15H434.647V133.31C434.647 133.51 434.577 133.68 434.437 133.82C434.297 133.94 434.127 134 433.927 134H432.517ZM449.407 115.46C449.207 115.46 449.037 115.4 448.897 115.28C448.777 115.14 448.717 114.97 448.717 114.77V113.21C448.717 113.01 448.777 112.84 448.897 112.7C449.037 112.56 449.207 112.49 449.407 112.49H451.177C451.377 112.49 451.547 112.56 451.687 112.7C451.827 112.84 451.897 113.01 451.897 113.21V114.77C451.897 114.97 451.827 115.14 451.687 115.28C451.547 115.4 451.377 115.46 451.177 115.46H449.407ZM449.647 134C449.447 134 449.277 133.94 449.137 133.82C449.017 133.68 448.957 133.51 448.957 133.31V119.09C448.957 118.89 449.017 118.73 449.137 118.61C449.277 118.47 449.447 118.4 449.647 118.4H450.967C451.167 118.4 451.327 118.47 451.447 118.61C451.587 118.73 451.657 118.89 451.657 119.09V133.31C451.657 133.51 451.587 133.68 451.447 133.82C451.327 133.94 451.167 134 450.967 134H449.647ZM456.854 134C456.654 134 456.484 133.94 456.344 133.82C456.224 133.68 456.164 133.51 456.164 133.31V119.09C456.164 118.89 456.224 118.73 456.344 118.61C456.484 118.47 456.654 118.4 456.854 118.4H458.144C458.364 118.4 458.534 118.46 458.654 118.58C458.774 118.7 458.834 118.87 458.834 119.09V120.41C459.434 119.67 460.124 119.1 460.904 118.7C461.704 118.3 462.694 118.1 463.874 118.1C465.794 118.1 467.284 118.72 468.344 119.96C469.404 121.18 469.934 122.8 469.934 124.82V133.31C469.934 133.51 469.864 133.68 469.724 133.82C469.604 133.94 469.444 134 469.244 134H467.864C467.664 134 467.494 133.94 467.354 133.82C467.234 133.68 467.174 133.51 467.174 133.31V125C467.174 123.56 466.824 122.44 466.124 121.64C465.424 120.84 464.424 120.44 463.124 120.44C461.844 120.44 460.824 120.85 460.064 121.67C459.304 122.47 458.924 123.58 458.924 125V133.31C458.924 133.51 458.854 133.68 458.714 133.82C458.594 133.94 458.434 134 458.234 134H456.854ZM478.59 134.3C477.61 134.3 476.7 134.1 475.86 133.7C475.04 133.3 474.38 132.76 473.88 132.08C473.4 131.38 473.16 130.61 473.16 129.77C473.16 128.45 473.7 127.37 474.78 126.53C475.86 125.69 477.33 125.13 479.19 124.85L483.69 124.22V123.35C483.69 121.29 482.5 120.26 480.12 120.26C479.2 120.26 478.46 120.45 477.9 120.83C477.34 121.19 476.93 121.62 476.67 122.12C476.59 122.32 476.5 122.46 476.4 122.54C476.32 122.6 476.2 122.63 476.04 122.63H474.87C474.69 122.63 474.53 122.57 474.39 122.45C474.27 122.31 474.21 122.15 474.21 121.97C474.21 121.51 474.42 120.98 474.84 120.38C475.28 119.76 475.95 119.23 476.85 118.79C477.75 118.33 478.85 118.1 480.15 118.1C482.39 118.1 483.99 118.62 484.95 119.66C485.93 120.7 486.42 122 486.42 123.56V133.31C486.42 133.51 486.35 133.68 486.21 133.82C486.09 133.94 485.93 134 485.73 134H484.41C484.21 134 484.05 133.94 483.93 133.82C483.81 133.68 483.75 133.51 483.75 133.31V131.99C483.31 132.65 482.67 133.2 481.83 133.64C480.99 134.08 479.91 134.3 478.59 134.3ZM479.19 132.11C480.51 132.11 481.59 131.68 482.43 130.82C483.27 129.96 483.69 128.71 483.69 127.07V126.23L480.18 126.74C478.74 126.94 477.65 127.28 476.91 127.76C476.17 128.24 475.8 128.84 475.8 129.56C475.8 130.38 476.13 131.01 476.79 131.45C477.47 131.89 478.27 132.11 479.19 132.11ZM491.484 134C491.284 134 491.114 133.94 490.974 133.82C490.854 133.68 490.794 133.51 490.794 133.31V113.39C490.794 113.17 490.854 113 490.974 112.88C491.114 112.76 491.284 112.7 491.484 112.7H492.804C493.004 112.7 493.164 112.77 493.284 112.91C493.424 113.03 493.494 113.19 493.494 113.39V133.31C493.494 133.51 493.424 133.68 493.284 133.82C493.164 133.94 493.004 134 492.804 134H491.484Z" fill="white"/>
<path d="M332.893 60C332.733 60 332.589 59.944 332.461 59.832C332.349 59.704 332.293 59.56 332.293 59.4V57.6C332.293 57.12 332.493 56.72 332.893 56.4L335.125 54.216C336.645 53.064 337.789 52.168 338.557 51.528C339.341 50.888 339.933 50.312 340.333 49.8C340.749 49.272 340.957 48.776 340.957 48.312C340.957 47.128 340.365 46.536 339.181 46.536C338.557 46.536 338.077 46.728 337.741 47.112C337.405 47.48 337.181 47.944 337.069 48.504C336.973 48.872 336.701 49.056 336.253 49.056H333.085C332.941 49.056 332.813 49.008 332.701 48.912C332.605 48.8 332.557 48.68 332.557 48.552C332.589 47.496 332.877 46.544 333.421 45.696C333.981 44.832 334.757 44.152 335.749 43.656C336.741 43.144 337.885 42.888 339.181 42.888C340.525 42.888 341.685 43.104 342.661 43.536C343.637 43.968 344.373 44.576 344.869 45.36C345.381 46.144 345.637 47.056 345.637 48.096C345.637 49.248 345.277 50.288 344.557 51.216C343.853 52.144 342.773 53.152 341.317 54.24L339.325 56.232H345.397C345.573 56.232 345.717 56.288 345.829 56.4C345.941 56.512 345.997 56.656 345.997 56.832V59.4C345.997 59.56 345.941 59.704 345.829 59.832C345.717 59.944 345.573 60 345.397 60H332.893ZM348.643 60C348.483 60 348.339 59.944 348.211 59.832C348.099 59.704 348.043 59.56 348.043 59.4V57.6C348.043 57.12 348.243 56.72 348.643 56.4L350.875 54.216C352.395 53.064 353.539 52.168 354.307 51.528C355.091 50.888 355.683 50.312 356.083 49.8C356.499 49.272 356.707 48.776 356.707 48.312C356.707 47.128 356.115 46.536 354.931 46.536C354.307 46.536 353.827 46.728 353.491 47.112C353.155 47.48 352.931 47.944 352.819 48.504C352.723 48.872 352.451 49.056 352.003 49.056H348.835C348.691 49.056 348.563 49.008 348.451 48.912C348.355 48.8 348.307 48.68 348.307 48.552C348.339 47.496 348.627 46.544 349.171 45.696C349.731 44.832 350.507 44.152 351.499 43.656C352.491 43.144 353.635 42.888 354.931 42.888C356.275 42.888 357.435 43.104 358.411 43.536C359.387 43.968 360.123 44.576 360.619 45.36C361.131 46.144 361.387 47.056 361.387 48.096C361.387 49.248 361.027 50.288 360.307 51.216C359.603 52.144 358.523 53.152 357.067 54.24L355.075 56.232H361.147C361.323 56.232 361.467 56.288 361.579 56.4C361.691 56.512 361.747 56.656 361.747 56.832V59.4C361.747 59.56 361.691 59.704 361.579 59.832C361.467 59.944 361.323 60 361.147 60H348.643ZM370.104 60C369.928 60 369.776 59.944 369.648 59.832C369.536 59.72 369.48 59.576 369.48 59.4V43.824C369.48 43.648 369.536 43.504 369.648 43.392C369.776 43.264 369.928 43.2 370.104 43.2H372.816C373.216 43.2 373.504 43.376 373.68 43.728L377.808 51.12L381.96 43.728C382.136 43.376 382.424 43.2 382.824 43.2H385.536C385.712 43.2 385.856 43.264 385.968 43.392C386.096 43.504 386.16 43.648 386.16 43.824V59.4C386.16 59.576 386.096 59.72 385.968 59.832C385.856 59.944 385.712 60 385.536 60H382.488C382.328 60 382.184 59.944 382.056 59.832C381.944 59.704 381.888 59.56 381.888 59.4V50.664L379.296 55.416C379.088 55.784 378.808 55.968 378.456 55.968H377.16C376.84 55.968 376.56 55.784 376.32 55.416L373.752 50.664V59.4C373.752 59.576 373.688 59.72 373.56 59.832C373.448 59.944 373.304 60 373.128 60H370.104ZM392.929 60.24C392.081 60.24 391.305 60.08 390.601 59.76C389.913 59.424 389.369 58.968 388.969 58.392C388.585 57.816 388.393 57.184 388.393 56.496C388.393 55.408 388.841 54.528 389.737 53.856C390.649 53.168 391.897 52.696 393.481 52.44L396.457 51.984V51.696C396.457 51.104 396.337 50.672 396.097 50.4C395.857 50.128 395.449 49.992 394.873 49.992C394.553 49.992 394.281 50.048 394.057 50.16C393.849 50.272 393.609 50.44 393.337 50.664C393.129 50.84 392.945 50.968 392.785 51.048C392.721 51.16 392.641 51.216 392.545 51.216H389.761C389.601 51.216 389.465 51.168 389.353 51.072C389.257 50.96 389.217 50.832 389.233 50.688C389.249 50.256 389.465 49.776 389.881 49.248C390.297 48.704 390.929 48.24 391.777 47.856C392.625 47.472 393.673 47.28 394.921 47.28C396.905 47.28 398.377 47.72 399.337 48.6C400.297 49.464 400.777 50.64 400.777 52.128V59.4C400.777 59.56 400.721 59.704 400.609 59.832C400.497 59.944 400.353 60 400.177 60H397.225C397.065 60 396.921 59.944 396.793 59.832C396.681 59.704 396.625 59.56 396.625 59.4V58.56C396.273 59.056 395.785 59.464 395.161 59.784C394.537 60.088 393.793 60.24 392.929 60.24ZM394.129 57.408C394.833 57.408 395.401 57.176 395.833 56.712C396.281 56.248 396.505 55.576 396.505 54.696V54.408L394.513 54.744C393.169 55 392.497 55.48 392.497 56.184C392.497 56.552 392.649 56.848 392.953 57.072C393.273 57.296 393.665 57.408 394.129 57.408ZM403.988 60C403.828 60 403.684 59.944 403.556 59.832C403.444 59.704 403.388 59.56 403.388 59.4V48.144C403.388 47.968 403.444 47.824 403.556 47.712C403.668 47.584 403.812 47.52 403.988 47.52H406.916C407.092 47.52 407.236 47.584 407.348 47.712C407.476 47.824 407.54 47.968 407.54 48.144V49.056C407.988 48.56 408.508 48.184 409.1 47.928C409.708 47.656 410.38 47.52 411.116 47.52H412.196C412.372 47.52 412.516 47.576 412.628 47.688C412.74 47.8 412.796 47.944 412.796 48.12V50.736C412.796 50.896 412.74 51.04 412.628 51.168C412.516 51.28 412.372 51.336 412.196 51.336H409.772C409.132 51.336 408.636 51.512 408.284 51.864C407.948 52.216 407.78 52.712 407.78 53.352V59.4C407.78 59.576 407.716 59.72 407.588 59.832C407.476 59.944 407.332 60 407.156 60H403.988ZM420.212 60.24C418.26 60.24 416.724 59.72 415.604 58.68C414.484 57.624 413.908 56.096 413.876 54.096V53.352C413.94 51.448 414.532 49.96 415.652 48.888C416.772 47.816 418.284 47.28 420.188 47.28C421.564 47.28 422.724 47.56 423.668 48.12C424.628 48.664 425.34 49.424 425.804 50.4C426.284 51.36 426.524 52.456 426.524 53.688V54.288C426.524 54.464 426.46 54.616 426.332 54.744C426.22 54.856 426.076 54.912 425.9 54.912H418.292V55.056C418.308 55.776 418.476 56.36 418.796 56.808C419.116 57.24 419.572 57.456 420.164 57.456C420.548 57.456 420.852 57.384 421.076 57.24C421.316 57.08 421.54 56.88 421.748 56.64C421.892 56.48 422.004 56.384 422.084 56.352C422.18 56.304 422.324 56.28 422.516 56.28H425.66C425.804 56.28 425.924 56.328 426.02 56.424C426.132 56.504 426.188 56.608 426.188 56.736C426.188 57.152 425.948 57.64 425.468 58.2C425.004 58.76 424.316 59.24 423.404 59.64C422.508 60.04 421.444 60.24 420.212 60.24ZM422.108 52.464V52.416C422.108 51.648 421.94 51.056 421.604 50.64C421.268 50.208 420.796 49.992 420.188 49.992C419.58 49.992 419.108 50.208 418.772 50.64C418.452 51.056 418.292 51.648 418.292 52.416V52.464H422.108ZM435.205 60C431.813 60 430.117 58.408 430.117 55.224V50.784H428.221C428.061 50.784 427.917 50.728 427.789 50.616C427.677 50.488 427.621 50.344 427.621 50.184V48.12C427.621 47.944 427.677 47.8 427.789 47.688C427.917 47.576 428.061 47.52 428.221 47.52H430.117V43.56C430.117 43.384 430.173 43.24 430.285 43.128C430.413 43.016 430.557 42.96 430.717 42.96H433.669C433.845 42.96 433.989 43.016 434.101 43.128C434.213 43.24 434.269 43.384 434.269 43.56V47.52H437.269C437.445 47.52 437.589 47.576 437.701 47.688C437.829 47.8 437.893 47.944 437.893 48.12V50.184C437.893 50.36 437.829 50.504 437.701 50.616C437.589 50.728 437.445 50.784 437.269 50.784H434.269V54.864C434.269 55.424 434.373 55.848 434.581 56.136C434.789 56.424 435.125 56.568 435.589 56.568H437.485C437.661 56.568 437.805 56.632 437.917 56.76C438.029 56.872 438.085 57.016 438.085 57.192V59.4C438.085 59.56 438.029 59.704 437.917 59.832C437.805 59.944 437.661 60 437.485 60H435.205ZM445.275 60C445.115 60 444.971 59.944 444.843 59.832C444.731 59.704 444.675 59.56 444.675 59.4V57.6C444.675 57.12 444.875 56.72 445.275 56.4L447.507 54.216C449.027 53.064 450.171 52.168 450.939 51.528C451.723 50.888 452.315 50.312 452.715 49.8C453.131 49.272 453.339 48.776 453.339 48.312C453.339 47.128 452.747 46.536 451.563 46.536C450.939 46.536 450.459 46.728 450.123 47.112C449.787 47.48 449.563 47.944 449.451 48.504C449.355 48.872 449.083 49.056 448.635 49.056H445.467C445.323 49.056 445.195 49.008 445.083 48.912C444.987 48.8 444.939 48.68 444.939 48.552C444.971 47.496 445.259 46.544 445.803 45.696C446.363 44.832 447.139 44.152 448.131 43.656C449.123 43.144 450.267 42.888 451.563 42.888C452.907 42.888 454.067 43.104 455.043 43.536C456.019 43.968 456.755 44.576 457.251 45.36C457.763 46.144 458.019 47.056 458.019 48.096C458.019 49.248 457.659 50.288 456.939 51.216C456.235 52.144 455.155 53.152 453.699 54.24L451.707 56.232H457.779C457.955 56.232 458.099 56.288 458.211 56.4C458.323 56.512 458.379 56.656 458.379 56.832V59.4C458.379 59.56 458.323 59.704 458.211 59.832C458.099 59.944 457.955 60 457.779 60H445.275ZM467.625 60.24C465.417 60.224 463.737 59.64 462.585 58.488C461.433 57.336 460.801 55.816 460.689 53.928C460.657 53.064 460.641 52.288 460.641 51.6C460.641 50.896 460.657 50.096 460.689 49.2C460.753 48 461.049 46.936 461.577 46.008C462.121 45.064 462.897 44.32 463.905 43.776C464.929 43.232 466.169 42.96 467.625 42.96C469.081 42.96 470.321 43.232 471.345 43.776C472.369 44.32 473.145 45.064 473.673 46.008C474.217 46.936 474.521 48 474.585 49.2C474.617 49.648 474.633 50.448 474.633 51.6C474.633 52.72 474.617 53.496 474.585 53.928C474.473 55.816 473.841 57.336 472.689 58.488C471.537 59.64 469.849 60.224 467.625 60.24ZM467.625 56.616C468.377 56.616 468.937 56.376 469.305 55.896C469.673 55.4 469.873 54.704 469.905 53.808C469.937 53.344 469.953 52.592 469.953 51.552C469.953 50.512 469.937 49.776 469.905 49.344C469.873 48.48 469.673 47.8 469.305 47.304C468.937 46.792 468.377 46.536 467.625 46.536C466.185 46.536 465.425 47.472 465.345 49.344C465.329 49.776 465.321 50.512 465.321 51.552C465.321 52.592 465.329 53.344 465.345 53.808C465.425 55.68 466.185 56.616 467.625 56.616ZM477.432 60C477.272 60 477.128 59.944 477 59.832C476.888 59.704 476.832 59.56 476.832 59.4V57.6C476.832 57.12 477.032 56.72 477.432 56.4L479.664 54.216C481.184 53.064 482.328 52.168 483.096 51.528C483.88 50.888 484.472 50.312 484.872 49.8C485.288 49.272 485.496 48.776 485.496 48.312C485.496 47.128 484.904 46.536 483.72 46.536C483.096 46.536 482.616 46.728 482.28 47.112C481.944 47.48 481.72 47.944 481.608 48.504C481.512 48.872 481.24 49.056 480.792 49.056H477.624C477.48 49.056 477.352 49.008 477.24 48.912C477.144 48.8 477.096 48.68 477.096 48.552C477.128 47.496 477.416 46.544 477.96 45.696C478.52 44.832 479.296 44.152 480.288 43.656C481.28 43.144 482.424 42.888 483.72 42.888C485.064 42.888 486.224 43.104 487.2 43.536C488.176 43.968 488.912 44.576 489.408 45.36C489.92 46.144 490.176 47.056 490.176 48.096C490.176 49.248 489.816 50.288 489.096 51.216C488.392 52.144 487.312 53.152 485.856 54.24L483.864 56.232H489.936C490.112 56.232 490.256 56.288 490.368 56.4C490.48 56.512 490.536 56.656 490.536 56.832V59.4C490.536 59.56 490.48 59.704 490.368 59.832C490.256 59.944 490.112 60 489.936 60H477.432ZM498.246 60C498.086 60 497.942 59.944 497.814 59.832C497.702 59.704 497.646 59.56 497.646 59.4V48.168L494.43 50.64C494.302 50.72 494.182 50.76 494.07 50.76C493.878 50.76 493.71 50.664 493.566 50.472L492.078 48.552C492.014 48.44 491.982 48.32 491.982 48.192C491.982 47.968 492.07 47.792 492.246 47.664L497.814 43.368C497.974 43.256 498.158 43.2 498.366 43.2H501.534C501.71 43.2 501.854 43.256 501.966 43.368C502.094 43.48 502.158 43.624 502.158 43.8V59.4C502.158 59.576 502.094 59.72 501.966 59.832C501.854 59.944 501.71 60 501.534 60H498.246Z" fill="white"/>
<circle cx="418" cy="12" r="12" fill="#FFBA53"/>
<path d="M3.71113 98C3.51113 98 3.35113 97.94 3.23113 97.82C3.11113 97.68 3.05113 97.51 3.05113 97.31V77.72C3.05113 77.5 3.11113 77.33 3.23113 77.21C3.35113 77.07 3.51113 77 3.71113 77H11.3011C13.5611 77 15.3311 77.55 16.6111 78.65C17.9111 79.73 18.5611 81.31 18.5611 83.39C18.5611 85.47 17.9111 87.05 16.6111 88.13C15.3311 89.21 13.5611 89.75 11.3011 89.75H5.90113V97.31C5.90113 97.51 5.83113 97.68 5.69113 97.82C5.57113 97.94 5.41113 98 5.21113 98H3.71113ZM11.1511 87.32C14.1711 87.32 15.6811 86.01 15.6811 83.39C15.6811 82.11 15.3011 81.13 14.5411 80.45C13.8011 79.77 12.6711 79.43 11.1511 79.43H5.90113V87.32H11.1511ZM27.8548 98.3C25.8148 98.3 24.1848 97.67 22.9648 96.41C21.7448 95.13 21.0748 93.39 20.9548 91.19L20.9248 90.17L20.9548 89.18C21.0748 87.02 21.7448 85.3 22.9648 84.02C24.1848 82.74 25.8148 82.1 27.8548 82.1C30.0548 82.1 31.7548 82.8 32.9548 84.2C34.1748 85.6 34.7848 87.5 34.7848 89.9V90.44C34.7848 90.64 34.7148 90.81 34.5748 90.95C34.4548 91.07 34.2948 91.13 34.0948 91.13H23.6848V91.4C23.7448 92.7 24.1448 93.81 24.8848 94.73C25.6248 95.65 26.6048 96.11 27.8248 96.11C28.7648 96.11 29.5248 95.93 30.1048 95.57C30.7048 95.19 31.1548 94.8 31.4548 94.4C31.6348 94.16 31.7748 94.02 31.8748 93.98C31.9748 93.92 32.1448 93.89 32.3848 93.89H33.7048C33.8848 93.89 34.0348 93.94 34.1548 94.04C34.2948 94.14 34.3648 94.27 34.3648 94.43C34.3648 94.87 34.0948 95.4 33.5548 96.02C33.0148 96.64 32.2448 97.18 31.2448 97.64C30.2648 98.08 29.1348 98.3 27.8548 98.3ZM32.0548 89.09V89C32.0548 87.6 31.6748 86.46 30.9148 85.58C30.1548 84.7 29.1348 84.26 27.8548 84.26C26.5548 84.26 25.5348 84.7 24.7948 85.58C24.0548 86.46 23.6848 87.6 23.6848 89V89.09H32.0548ZM39.1226 98C38.9226 98 38.7526 97.94 38.6126 97.82C38.4926 97.68 38.4326 97.51 38.4326 97.31V83.09C38.4326 82.89 38.4926 82.73 38.6126 82.61C38.7526 82.47 38.9226 82.4 39.1226 82.4H40.3826C40.5826 82.4 40.7426 82.47 40.8626 82.61C40.9826 82.73 41.0426 82.89 41.0426 83.09V84.11C42.1226 82.77 43.5826 82.1 45.4226 82.1C47.6226 82.1 49.1826 83.02 50.1026 84.86C50.5826 84.02 51.2626 83.35 52.1426 82.85C53.0426 82.35 54.0426 82.1 55.1426 82.1C56.7826 82.1 58.1226 82.66 59.1626 83.78C60.2026 84.9 60.7226 86.52 60.7226 88.64V97.31C60.7226 97.51 60.6526 97.68 60.5126 97.82C60.3926 97.94 60.2326 98 60.0326 98H58.7426C58.5426 98 58.3726 97.94 58.2326 97.82C58.1126 97.68 58.0526 97.51 58.0526 97.31V88.91C58.0526 87.31 57.7226 86.17 57.0626 85.49C56.4026 84.79 55.5326 84.44 54.4526 84.44C53.4926 84.44 52.6626 84.8 51.9626 85.52C51.2826 86.22 50.9426 87.35 50.9426 88.91V97.31C50.9426 97.51 50.8726 97.68 50.7326 97.82C50.6126 97.94 50.4526 98 50.2526 98H48.9326C48.7326 98 48.5626 97.94 48.4226 97.82C48.3026 97.68 48.2426 97.51 48.2426 97.31V88.91C48.2426 87.33 47.8926 86.19 47.1926 85.49C46.5126 84.79 45.6626 84.44 44.6426 84.44C43.6826 84.44 42.8526 84.79 42.1526 85.49C41.4726 86.19 41.1326 87.32 41.1326 88.88V97.31C41.1326 97.51 41.0626 97.68 40.9226 97.82C40.8026 97.94 40.6426 98 40.4426 98H39.1226ZM72.6835 98.3C70.5235 98.3 68.8735 97.54 67.7335 96.02V97.31C67.7335 97.51 67.6635 97.68 67.5235 97.82C67.4035 97.94 67.2435 98 67.0435 98H65.7835C65.5835 98 65.4135 97.94 65.2735 97.82C65.1535 97.68 65.0935 97.51 65.0935 97.31V77.39C65.0935 77.17 65.1535 77 65.2735 76.88C65.4135 76.76 65.5835 76.7 65.7835 76.7H67.1335C67.3335 76.7 67.4935 76.77 67.6135 76.91C67.7535 77.03 67.8235 77.19 67.8235 77.39V84.32C68.9435 82.84 70.5635 82.1 72.6835 82.1C74.7835 82.1 76.3535 82.79 77.3935 84.17C78.4535 85.53 79.0135 87.24 79.0735 89.3C79.0935 89.52 79.1035 89.82 79.1035 90.2C79.1035 90.58 79.0935 90.88 79.0735 91.1C79.0135 93.16 78.4535 94.88 77.3935 96.26C76.3535 97.62 74.7835 98.3 72.6835 98.3ZM72.1135 95.96C73.5535 95.96 74.6035 95.51 75.2635 94.61C75.9235 93.71 76.2835 92.53 76.3435 91.07C76.3635 90.87 76.3735 90.58 76.3735 90.2C76.3735 86.36 74.9535 84.44 72.1135 84.44C70.7535 84.44 69.7035 84.89 68.9635 85.79C68.2435 86.67 67.8635 87.72 67.8235 88.94C67.8035 89.16 67.7935 89.55 67.7935 90.11C67.7935 90.65 67.8035 91.03 67.8235 91.25C67.8635 92.53 68.2335 93.64 68.9335 94.58C69.6535 95.5 70.7135 95.96 72.1135 95.96ZM87.196 98.3C86.216 98.3 85.306 98.1 84.466 97.7C83.646 97.3 82.986 96.76 82.486 96.08C82.006 95.38 81.766 94.61 81.766 93.77C81.766 92.45 82.306 91.37 83.386 90.53C84.466 89.69 85.936 89.13 87.796 88.85L92.296 88.22V87.35C92.296 85.29 91.106 84.26 88.726 84.26C87.806 84.26 87.066 84.45 86.506 84.83C85.946 85.19 85.536 85.62 85.276 86.12C85.196 86.32 85.106 86.46 85.006 86.54C84.926 86.6 84.806 86.63 84.646 86.63H83.476C83.296 86.63 83.136 86.57 82.996 86.45C82.876 86.31 82.816 86.15 82.816 85.97C82.816 85.51 83.026 84.98 83.446 84.38C83.886 83.76 84.556 83.23 85.456 82.79C86.356 82.33 87.456 82.1 88.756 82.1C90.996 82.1 92.596 82.62 93.556 83.66C94.536 84.7 95.026 86 95.026 87.56V97.31C95.026 97.51 94.956 97.68 94.816 97.82C94.696 97.94 94.536 98 94.336 98H93.016C92.816 98 92.656 97.94 92.536 97.82C92.416 97.68 92.356 97.51 92.356 97.31V95.99C91.916 96.65 91.276 97.2 90.436 97.64C89.596 98.08 88.516 98.3 87.196 98.3ZM87.796 96.11C89.116 96.11 90.196 95.68 91.036 94.82C91.876 93.96 92.296 92.71 92.296 91.07V90.23L88.786 90.74C87.346 90.94 86.256 91.28 85.516 91.76C84.776 92.24 84.406 92.84 84.406 93.56C84.406 94.38 84.736 95.01 85.396 95.45C86.076 95.89 86.876 96.11 87.796 96.11ZM105.7 104.6C104.04 104.6 102.71 104.32 101.71 103.76C100.71 103.2 100 102.56 99.5801 101.84C99.1801 101.12 98.9801 100.5 98.9801 99.98C98.9801 99.8 99.0501 99.64 99.1901 99.5C99.3301 99.38 99.4901 99.32 99.6701 99.32H100.99C101.17 99.32 101.32 99.36 101.44 99.44C101.56 99.54 101.66 99.71 101.74 99.95C102.3 101.55 103.57 102.35 105.55 102.35C107.05 102.35 108.16 102.03 108.88 101.39C109.6 100.75 109.96 99.62 109.96 98V95.93C108.8 97.41 107.18 98.15 105.1 98.15C102.98 98.15 101.39 97.47 100.33 96.11C99.2901 94.75 98.7401 93.03 98.6801 90.95L98.6501 90.11L98.6801 89.3C98.7401 87.24 99.2901 85.53 100.33 84.17C101.39 82.79 102.98 82.1 105.1 82.1C107.2 82.1 108.84 82.87 110.02 84.41V83.12C110.02 82.92 110.08 82.75 110.2 82.61C110.34 82.47 110.51 82.4 110.71 82.4H112C112.2 82.4 112.36 82.47 112.48 82.61C112.62 82.75 112.69 82.92 112.69 83.12V97.67C112.69 102.29 110.36 104.6 105.7 104.6ZM105.64 95.81C107.04 95.81 108.09 95.36 108.79 94.46C109.51 93.54 109.9 92.44 109.96 91.16C109.98 90.98 109.99 90.63 109.99 90.11C109.99 89.61 109.98 89.27 109.96 89.09C109.9 87.81 109.51 86.72 108.79 85.82C108.09 84.9 107.04 84.44 105.64 84.44C104.2 84.44 103.15 84.9 102.49 85.82C101.85 86.72 101.5 87.89 101.44 89.33L101.41 90.11L101.44 90.92C101.5 92.36 101.85 93.54 102.49 94.46C103.15 95.36 104.2 95.81 105.64 95.81ZM117.662 79.46C117.462 79.46 117.292 79.4 117.152 79.28C117.032 79.14 116.972 78.97 116.972 78.77V77.21C116.972 77.01 117.032 76.84 117.152 76.7C117.292 76.56 117.462 76.49 117.662 76.49H119.432C119.632 76.49 119.802 76.56 119.942 76.7C120.082 76.84 120.152 77.01 120.152 77.21V78.77C120.152 78.97 120.082 79.14 119.942 79.28C119.802 79.4 119.632 79.46 119.432 79.46H117.662ZM117.902 98C117.702 98 117.532 97.94 117.392 97.82C117.272 97.68 117.212 97.51 117.212 97.31V83.09C117.212 82.89 117.272 82.73 117.392 82.61C117.532 82.47 117.702 82.4 117.902 82.4H119.222C119.422 82.4 119.582 82.47 119.702 82.61C119.842 82.73 119.912 82.89 119.912 83.09V97.31C119.912 97.51 119.842 97.68 119.702 97.82C119.582 97.94 119.422 98 119.222 98H117.902ZM128.739 98.3C127.759 98.3 126.849 98.1 126.009 97.7C125.189 97.3 124.529 96.76 124.029 96.08C123.549 95.38 123.309 94.61 123.309 93.77C123.309 92.45 123.849 91.37 124.929 90.53C126.009 89.69 127.479 89.13 129.339 88.85L133.839 88.22V87.35C133.839 85.29 132.649 84.26 130.269 84.26C129.349 84.26 128.609 84.45 128.049 84.83C127.489 85.19 127.079 85.62 126.819 86.12C126.739 86.32 126.649 86.46 126.549 86.54C126.469 86.6 126.349 86.63 126.189 86.63H125.019C124.839 86.63 124.679 86.57 124.539 86.45C124.419 86.31 124.359 86.15 124.359 85.97C124.359 85.51 124.569 84.98 124.989 84.38C125.429 83.76 126.099 83.23 126.999 82.79C127.899 82.33 128.999 82.1 130.299 82.1C132.539 82.1 134.139 82.62 135.099 83.66C136.079 84.7 136.569 86 136.569 87.56V97.31C136.569 97.51 136.499 97.68 136.359 97.82C136.239 97.94 136.079 98 135.879 98H134.559C134.359 98 134.199 97.94 134.079 97.82C133.959 97.68 133.899 97.51 133.899 97.31V95.99C133.459 96.65 132.819 97.2 131.979 97.64C131.139 98.08 130.059 98.3 128.739 98.3ZM129.339 96.11C130.659 96.11 131.739 95.68 132.579 94.82C133.419 93.96 133.839 92.71 133.839 91.07V90.23L130.329 90.74C128.889 90.94 127.799 91.28 127.059 91.76C126.319 92.24 125.949 92.84 125.949 93.56C125.949 94.38 126.279 95.01 126.939 95.45C127.619 95.89 128.419 96.11 129.339 96.11ZM141.603 98C141.403 98 141.233 97.94 141.093 97.82C140.973 97.68 140.913 97.51 140.913 97.31V83.09C140.913 82.89 140.973 82.73 141.093 82.61C141.233 82.47 141.403 82.4 141.603 82.4H142.893C143.113 82.4 143.283 82.46 143.403 82.58C143.523 82.7 143.583 82.87 143.583 83.09V84.41C144.183 83.67 144.873 83.1 145.653 82.7C146.453 82.3 147.443 82.1 148.623 82.1C150.543 82.1 152.033 82.72 153.093 83.96C154.153 85.18 154.683 86.8 154.683 88.82V97.31C154.683 97.51 154.613 97.68 154.473 97.82C154.353 97.94 154.193 98 153.993 98H152.613C152.413 98 152.243 97.94 152.103 97.82C151.983 97.68 151.923 97.51 151.923 97.31V89C151.923 87.56 151.573 86.44 150.873 85.64C150.173 84.84 149.173 84.44 147.873 84.44C146.593 84.44 145.573 84.85 144.813 85.67C144.053 86.47 143.673 87.58 143.673 89V97.31C143.673 97.51 143.603 97.68 143.463 97.82C143.343 97.94 143.183 98 142.983 98H141.603ZM174.291 98.3C171.631 98.3 169.601 97.58 168.201 96.14C166.821 94.68 166.081 92.69 165.981 90.17C165.961 89.63 165.951 88.75 165.951 87.53C165.951 86.29 165.961 85.39 165.981 84.83C166.081 82.31 166.821 80.33 168.201 78.89C169.601 77.43 171.631 76.7 174.291 76.7C176.071 76.7 177.581 77.02 178.821 77.66C180.061 78.28 180.991 79.1 181.611 80.12C182.251 81.14 182.601 82.23 182.661 83.39C182.661 83.57 182.591 83.72 182.451 83.84C182.331 83.94 182.181 83.99 182.001 83.99H180.501C180.301 83.99 180.141 83.94 180.021 83.84C179.901 83.74 179.811 83.57 179.751 83.33C179.411 81.79 178.791 80.71 177.891 80.09C177.011 79.47 175.811 79.16 174.291 79.16C170.811 79.16 169.001 81.1 168.861 84.98C168.841 85.52 168.831 86.35 168.831 87.47C168.831 88.59 168.841 89.44 168.861 90.02C169.001 93.88 170.811 95.81 174.291 95.81C175.791 95.81 176.991 95.5 177.891 94.88C178.791 94.26 179.411 93.19 179.751 91.67C179.811 91.43 179.901 91.26 180.021 91.16C180.141 91.06 180.301 91.01 180.501 91.01H182.001C182.181 91.01 182.331 91.07 182.451 91.19C182.591 91.29 182.661 91.43 182.661 91.61C182.601 92.77 182.251 93.86 181.611 94.88C180.991 95.9 180.061 96.73 178.821 97.37C177.581 97.99 176.071 98.3 174.291 98.3ZM190.673 98.3C189.693 98.3 188.783 98.1 187.943 97.7C187.123 97.3 186.463 96.76 185.963 96.08C185.483 95.38 185.243 94.61 185.243 93.77C185.243 92.45 185.783 91.37 186.863 90.53C187.943 89.69 189.413 89.13 191.273 88.85L195.773 88.22V87.35C195.773 85.29 194.583 84.26 192.203 84.26C191.283 84.26 190.543 84.45 189.983 84.83C189.423 85.19 189.013 85.62 188.753 86.12C188.673 86.32 188.583 86.46 188.483 86.54C188.403 86.6 188.283 86.63 188.123 86.63H186.953C186.773 86.63 186.613 86.57 186.473 86.45C186.353 86.31 186.293 86.15 186.293 85.97C186.293 85.51 186.503 84.98 186.923 84.38C187.363 83.76 188.033 83.23 188.933 82.79C189.833 82.33 190.933 82.1 192.233 82.1C194.473 82.1 196.073 82.62 197.033 83.66C198.013 84.7 198.503 86 198.503 87.56V97.31C198.503 97.51 198.433 97.68 198.293 97.82C198.173 97.94 198.013 98 197.813 98H196.493C196.293 98 196.133 97.94 196.013 97.82C195.893 97.68 195.833 97.51 195.833 97.31V95.99C195.393 96.65 194.753 97.2 193.913 97.64C193.073 98.08 191.993 98.3 190.673 98.3ZM191.273 96.11C192.593 96.11 193.673 95.68 194.513 94.82C195.353 93.96 195.773 92.71 195.773 91.07V90.23L192.263 90.74C190.823 90.94 189.733 91.28 188.993 91.76C188.253 92.24 187.883 92.84 187.883 93.56C187.883 94.38 188.213 95.01 188.873 95.45C189.553 95.89 190.353 96.11 191.273 96.11ZM208.187 98.3C206.807 98.3 205.637 98.08 204.677 97.64C203.737 97.18 203.037 96.66 202.577 96.08C202.117 95.5 201.887 95.02 201.887 94.64C201.887 94.44 201.957 94.29 202.097 94.19C202.237 94.07 202.387 94.01 202.547 94.01H203.807C203.927 94.01 204.017 94.03 204.077 94.07C204.157 94.11 204.257 94.2 204.377 94.34C204.837 94.9 205.347 95.34 205.907 95.66C206.487 95.98 207.257 96.14 208.217 96.14C209.297 96.14 210.157 95.94 210.797 95.54C211.457 95.14 211.787 94.56 211.787 93.8C211.787 93.3 211.647 92.9 211.367 92.6C211.087 92.3 210.617 92.03 209.957 91.79C209.317 91.55 208.357 91.29 207.077 91.01C205.337 90.63 204.107 90.08 203.387 89.36C202.667 88.64 202.307 87.71 202.307 86.57C202.307 85.83 202.527 85.12 202.967 84.44C203.407 83.74 204.057 83.18 204.917 82.76C205.797 82.32 206.837 82.1 208.037 82.1C209.297 82.1 210.367 82.31 211.247 82.73C212.147 83.15 212.817 83.64 213.257 84.2C213.717 84.76 213.947 85.23 213.947 85.61C213.947 85.79 213.877 85.94 213.737 86.06C213.617 86.18 213.467 86.24 213.287 86.24H212.147C211.867 86.24 211.667 86.13 211.547 85.91C211.207 85.53 210.917 85.24 210.677 85.04C210.457 84.82 210.127 84.64 209.687 84.5C209.247 84.34 208.697 84.26 208.037 84.26C207.057 84.26 206.307 84.47 205.787 84.89C205.267 85.29 205.007 85.83 205.007 86.51C205.007 86.93 205.117 87.29 205.337 87.59C205.557 87.87 205.977 88.14 206.597 88.4C207.217 88.64 208.137 88.89 209.357 89.15C211.257 89.55 212.597 90.12 213.377 90.86C214.177 91.6 214.577 92.55 214.577 93.71C214.577 94.57 214.327 95.35 213.827 96.05C213.347 96.75 212.617 97.3 211.637 97.7C210.677 98.1 209.527 98.3 208.187 98.3ZM224.261 98.3C222.221 98.3 220.591 97.67 219.371 96.41C218.151 95.13 217.481 93.39 217.361 91.19L217.331 90.17L217.361 89.18C217.481 87.02 218.151 85.3 219.371 84.02C220.591 82.74 222.221 82.1 224.261 82.1C226.461 82.1 228.161 82.8 229.361 84.2C230.581 85.6 231.191 87.5 231.191 89.9V90.44C231.191 90.64 231.121 90.81 230.981 90.95C230.861 91.07 230.701 91.13 230.501 91.13H220.091V91.4C220.151 92.7 220.551 93.81 221.291 94.73C222.031 95.65 223.011 96.11 224.231 96.11C225.171 96.11 225.931 95.93 226.511 95.57C227.111 95.19 227.561 94.8 227.861 94.4C228.041 94.16 228.181 94.02 228.281 93.98C228.381 93.92 228.551 93.89 228.791 93.89H230.111C230.291 93.89 230.441 93.94 230.561 94.04C230.701 94.14 230.771 94.27 230.771 94.43C230.771 94.87 230.501 95.4 229.961 96.02C229.421 96.64 228.651 97.18 227.651 97.64C226.671 98.08 225.541 98.3 224.261 98.3ZM228.461 89.09V89C228.461 87.6 228.081 86.46 227.321 85.58C226.561 84.7 225.541 84.26 224.261 84.26C222.961 84.26 221.941 84.7 221.201 85.58C220.461 86.46 220.091 87.6 220.091 89V89.09H228.461Z" fill="white"/>
<path d="M45.5506 60.24C43.9986 60.24 42.6866 60.008 41.6146 59.544C40.5426 59.064 39.7426 58.424 39.2146 57.624C38.7026 56.824 38.4466 55.928 38.4466 54.936C38.4466 54.104 38.6546 53.352 39.0706 52.68C39.5026 51.992 40.0626 51.464 40.7506 51.096C39.6146 50.36 39.0466 49.256 39.0466 47.784C39.0466 46.36 39.5906 45.2 40.6786 44.304C41.7826 43.408 43.4066 42.96 45.5506 42.96C47.6786 42.96 49.2786 43.408 50.3506 44.304C51.4386 45.184 51.9826 46.336 51.9826 47.76C51.9826 49.216 51.4386 50.328 50.3506 51.096C51.0546 51.432 51.6146 51.944 52.0306 52.632C52.4626 53.32 52.6786 54.096 52.6786 54.96C52.6786 55.952 52.4146 56.848 51.8866 57.648C51.3586 58.432 50.5586 59.064 49.4866 59.544C48.4146 60.008 47.1026 60.24 45.5506 60.24ZM45.5506 49.848C46.2226 49.832 46.7746 49.656 47.2066 49.32C47.6386 48.968 47.8546 48.528 47.8546 48C47.8546 47.456 47.6386 47.016 47.2066 46.68C46.7746 46.328 46.2226 46.152 45.5506 46.152C44.8626 46.152 44.3026 46.328 43.8706 46.68C43.4546 47.016 43.2466 47.456 43.2466 48C43.2466 48.544 43.4546 48.992 43.8706 49.344C44.3026 49.68 44.8626 49.848 45.5506 49.848ZM45.5506 57.072C46.3026 57.072 46.9186 56.88 47.3986 56.496C47.8946 56.112 48.1426 55.6 48.1426 54.96C48.1426 54.32 47.8946 53.808 47.3986 53.424C46.9186 53.04 46.3026 52.848 45.5506 52.848C44.7986 52.848 44.1746 53.04 43.6786 53.424C43.1826 53.808 42.9346 54.32 42.9346 54.96C42.9346 55.6 43.1826 56.112 43.6786 56.496C44.1746 56.88 44.7986 57.072 45.5506 57.072ZM61.0216 60C60.8456 60 60.6936 59.944 60.5656 59.832C60.4536 59.72 60.3976 59.576 60.3976 59.4V43.824C60.3976 43.648 60.4536 43.504 60.5656 43.392C60.6936 43.264 60.8456 43.2 61.0216 43.2H63.7336C64.1336 43.2 64.4216 43.376 64.5976 43.728L68.7256 51.12L72.8776 43.728C73.0536 43.376 73.3416 43.2 73.7416 43.2H76.4536C76.6296 43.2 76.7736 43.264 76.8856 43.392C77.0136 43.504 77.0776 43.648 77.0776 43.824V59.4C77.0776 59.576 77.0136 59.72 76.8856 59.832C76.7736 59.944 76.6296 60 76.4536 60H73.4056C73.2456 60 73.1016 59.944 72.9736 59.832C72.8616 59.704 72.8056 59.56 72.8056 59.4V50.664L70.2136 55.416C70.0056 55.784 69.7256 55.968 69.3736 55.968H68.0776C67.7576 55.968 67.4776 55.784 67.2376 55.416L64.6696 50.664V59.4C64.6696 59.576 64.6056 59.72 64.4776 59.832C64.3656 59.944 64.2216 60 64.0456 60H61.0216ZM83.8469 60.24C82.9989 60.24 82.2229 60.08 81.5189 59.76C80.8309 59.424 80.2869 58.968 79.8869 58.392C79.5029 57.816 79.3109 57.184 79.3109 56.496C79.3109 55.408 79.7589 54.528 80.6549 53.856C81.5669 53.168 82.8149 52.696 84.3989 52.44L87.3749 51.984V51.696C87.3749 51.104 87.2549 50.672 87.0149 50.4C86.7749 50.128 86.3669 49.992 85.7909 49.992C85.4709 49.992 85.1989 50.048 84.9749 50.16C84.7669 50.272 84.5269 50.44 84.2549 50.664C84.0469 50.84 83.8629 50.968 83.7029 51.048C83.6389 51.16 83.5589 51.216 83.4629 51.216H80.6789C80.5189 51.216 80.3829 51.168 80.2709 51.072C80.1749 50.96 80.1349 50.832 80.1509 50.688C80.1669 50.256 80.3829 49.776 80.7989 49.248C81.2149 48.704 81.8469 48.24 82.6949 47.856C83.5429 47.472 84.5909 47.28 85.8389 47.28C87.8229 47.28 89.2949 47.72 90.2549 48.6C91.2149 49.464 91.6949 50.64 91.6949 52.128V59.4C91.6949 59.56 91.6389 59.704 91.5269 59.832C91.4149 59.944 91.2709 60 91.0949 60H88.1429C87.9829 60 87.8389 59.944 87.7109 59.832C87.5989 59.704 87.5429 59.56 87.5429 59.4V58.56C87.1909 59.056 86.7029 59.464 86.0789 59.784C85.4549 60.088 84.7109 60.24 83.8469 60.24ZM85.0469 57.408C85.7509 57.408 86.3189 57.176 86.7509 56.712C87.1989 56.248 87.4229 55.576 87.4229 54.696V54.408L85.4309 54.744C84.0869 55 83.4149 55.48 83.4149 56.184C83.4149 56.552 83.5669 56.848 83.8709 57.072C84.1909 57.296 84.5829 57.408 85.0469 57.408ZM94.9055 60C94.7455 60 94.6015 59.944 94.4735 59.832C94.3615 59.704 94.3055 59.56 94.3055 59.4V48.144C94.3055 47.968 94.3615 47.824 94.4735 47.712C94.5855 47.584 94.7295 47.52 94.9055 47.52H97.8335C98.0095 47.52 98.1535 47.584 98.2655 47.712C98.3935 47.824 98.4575 47.968 98.4575 48.144V49.056C98.9055 48.56 99.4255 48.184 100.018 47.928C100.626 47.656 101.298 47.52 102.034 47.52H103.114C103.29 47.52 103.434 47.576 103.546 47.688C103.658 47.8 103.714 47.944 103.714 48.12V50.736C103.714 50.896 103.658 51.04 103.546 51.168C103.434 51.28 103.29 51.336 103.114 51.336H100.69C100.05 51.336 99.5535 51.512 99.2015 51.864C98.8655 52.216 98.6975 52.712 98.6975 53.352V59.4C98.6975 59.576 98.6335 59.72 98.5055 59.832C98.3935 59.944 98.2495 60 98.0735 60H94.9055ZM111.13 60.24C109.178 60.24 107.642 59.72 106.522 58.68C105.402 57.624 104.826 56.096 104.794 54.096V53.352C104.858 51.448 105.45 49.96 106.57 48.888C107.69 47.816 109.202 47.28 111.106 47.28C112.482 47.28 113.642 47.56 114.586 48.12C115.546 48.664 116.258 49.424 116.722 50.4C117.202 51.36 117.442 52.456 117.442 53.688V54.288C117.442 54.464 117.378 54.616 117.25 54.744C117.138 54.856 116.994 54.912 116.818 54.912H109.21V55.056C109.226 55.776 109.394 56.36 109.714 56.808C110.034 57.24 110.49 57.456 111.082 57.456C111.466 57.456 111.77 57.384 111.994 57.24C112.234 57.08 112.458 56.88 112.666 56.64C112.81 56.48 112.922 56.384 113.002 56.352C113.098 56.304 113.242 56.28 113.434 56.28H116.578C116.722 56.28 116.842 56.328 116.938 56.424C117.05 56.504 117.106 56.608 117.106 56.736C117.106 57.152 116.866 57.64 116.386 58.2C115.922 58.76 115.234 59.24 114.322 59.64C113.426 60.04 112.362 60.24 111.13 60.24ZM113.026 52.464V52.416C113.026 51.648 112.858 51.056 112.522 50.64C112.186 50.208 111.714 49.992 111.106 49.992C110.498 49.992 110.026 50.208 109.69 50.64C109.37 51.056 109.21 51.648 109.21 52.416V52.464H113.026ZM126.123 60C122.731 60 121.035 58.408 121.035 55.224V50.784H119.139C118.979 50.784 118.835 50.728 118.707 50.616C118.595 50.488 118.539 50.344 118.539 50.184V48.12C118.539 47.944 118.595 47.8 118.707 47.688C118.835 47.576 118.979 47.52 119.139 47.52H121.035V43.56C121.035 43.384 121.091 43.24 121.203 43.128C121.331 43.016 121.475 42.96 121.635 42.96H124.587C124.763 42.96 124.907 43.016 125.019 43.128C125.131 43.24 125.187 43.384 125.187 43.56V47.52H128.187C128.363 47.52 128.507 47.576 128.619 47.688C128.747 47.8 128.811 47.944 128.811 48.12V50.184C128.811 50.36 128.747 50.504 128.619 50.616C128.507 50.728 128.363 50.784 128.187 50.784H125.187V54.864C125.187 55.424 125.291 55.848 125.499 56.136C125.707 56.424 126.043 56.568 126.507 56.568H128.403C128.579 56.568 128.723 56.632 128.835 56.76C128.947 56.872 129.003 57.016 129.003 57.192V59.4C129.003 59.56 128.947 59.704 128.835 59.832C128.723 59.944 128.579 60 128.403 60H126.123ZM136.193 60C136.033 60 135.889 59.944 135.761 59.832C135.649 59.704 135.593 59.56 135.593 59.4V57.6C135.593 57.12 135.793 56.72 136.193 56.4L138.425 54.216C139.945 53.064 141.089 52.168 141.857 51.528C142.641 50.888 143.233 50.312 143.633 49.8C144.049 49.272 144.257 48.776 144.257 48.312C144.257 47.128 143.665 46.536 142.481 46.536C141.857 46.536 141.377 46.728 141.041 47.112C140.705 47.48 140.481 47.944 140.369 48.504C140.273 48.872 140.001 49.056 139.553 49.056H136.385C136.241 49.056 136.113 49.008 136.001 48.912C135.905 48.8 135.857 48.68 135.857 48.552C135.889 47.496 136.177 46.544 136.721 45.696C137.281 44.832 138.057 44.152 139.049 43.656C140.041 43.144 141.185 42.888 142.481 42.888C143.825 42.888 144.985 43.104 145.961 43.536C146.937 43.968 147.673 44.576 148.169 45.36C148.681 46.144 148.937 47.056 148.937 48.096C148.937 49.248 148.577 50.288 147.857 51.216C147.153 52.144 146.073 53.152 144.617 54.24L142.625 56.232H148.697C148.873 56.232 149.017 56.288 149.129 56.4C149.241 56.512 149.297 56.656 149.297 56.832V59.4C149.297 59.56 149.241 59.704 149.129 59.832C149.017 59.944 148.873 60 148.697 60H136.193ZM158.543 60.24C156.335 60.224 154.655 59.64 153.503 58.488C152.351 57.336 151.719 55.816 151.607 53.928C151.575 53.064 151.559 52.288 151.559 51.6C151.559 50.896 151.575 50.096 151.607 49.2C151.671 48 151.967 46.936 152.495 46.008C153.039 45.064 153.815 44.32 154.823 43.776C155.847 43.232 157.087 42.96 158.543 42.96C159.999 42.96 161.239 43.232 162.263 43.776C163.287 44.32 164.063 45.064 164.591 46.008C165.135 46.936 165.439 48 165.503 49.2C165.535 49.648 165.551 50.448 165.551 51.6C165.551 52.72 165.535 53.496 165.503 53.928C165.391 55.816 164.759 57.336 163.607 58.488C162.455 59.64 160.767 60.224 158.543 60.24ZM158.543 56.616C159.295 56.616 159.855 56.376 160.223 55.896C160.591 55.4 160.791 54.704 160.823 53.808C160.855 53.344 160.871 52.592 160.871 51.552C160.871 50.512 160.855 49.776 160.823 49.344C160.791 48.48 160.591 47.8 160.223 47.304C159.855 46.792 159.295 46.536 158.543 46.536C157.103 46.536 156.343 47.472 156.263 49.344C156.247 49.776 156.239 50.512 156.239 51.552C156.239 52.592 156.247 53.344 156.263 53.808C156.343 55.68 157.103 56.616 158.543 56.616ZM168.35 60C168.19 60 168.046 59.944 167.918 59.832C167.806 59.704 167.75 59.56 167.75 59.4V57.6C167.75 57.12 167.95 56.72 168.35 56.4L170.582 54.216C172.102 53.064 173.246 52.168 174.014 51.528C174.798 50.888 175.39 50.312 175.79 49.8C176.206 49.272 176.414 48.776 176.414 48.312C176.414 47.128 175.822 46.536 174.638 46.536C174.014 46.536 173.534 46.728 173.198 47.112C172.862 47.48 172.638 47.944 172.526 48.504C172.43 48.872 172.158 49.056 171.71 49.056H168.542C168.398 49.056 168.27 49.008 168.158 48.912C168.062 48.8 168.014 48.68 168.014 48.552C168.046 47.496 168.334 46.544 168.878 45.696C169.438 44.832 170.214 44.152 171.206 43.656C172.198 43.144 173.342 42.888 174.638 42.888C175.982 42.888 177.142 43.104 178.118 43.536C179.094 43.968 179.83 44.576 180.326 45.36C180.838 46.144 181.094 47.056 181.094 48.096C181.094 49.248 180.734 50.288 180.014 51.216C179.31 52.144 178.23 53.152 176.774 54.24L174.782 56.232H180.854C181.03 56.232 181.174 56.288 181.286 56.4C181.398 56.512 181.454 56.656 181.454 56.832V59.4C181.454 59.56 181.398 59.704 181.286 59.832C181.174 59.944 181.03 60 180.854 60H168.35ZM189.164 60C189.004 60 188.86 59.944 188.732 59.832C188.62 59.704 188.564 59.56 188.564 59.4V48.168L185.348 50.64C185.22 50.72 185.1 50.76 184.988 50.76C184.796 50.76 184.628 50.664 184.484 50.472L182.996 48.552C182.932 48.44 182.9 48.32 182.9 48.192C182.9 47.968 182.988 47.792 183.164 47.664L188.732 43.368C188.892 43.256 189.076 43.2 189.284 43.2H192.452C192.628 43.2 192.772 43.256 192.884 43.368C193.012 43.48 193.076 43.624 193.076 43.8V59.4C193.076 59.576 193.012 59.72 192.884 59.832C192.772 59.944 192.628 60 192.452 60H189.164Z" fill="white"/>
<circle cx="117" cy="12" r="12" fill="#FFBA53"/>
</svg>
