<svg width="250" height="124" viewBox="0 0 250 124" fill="none" xmlns="http://www.w3.org/2000/svg">
<path d="M1.28798 0H0V123.233H88.1961V0H1.28798ZM85.617 120.551H2.57917V2.67869H85.617V120.551Z" fill="white"/>
<path d="M44.325 67.4079C45.1312 67.5912 46.6986 67.9288 48.1247 68.3694C49.5508 68.8099 50.8355 69.3502 51.4715 69.6396C52.1075 69.9258 52.0946 69.9611 51.8441 70.6172C51.5936 71.2699 51.1053 72.5466 50.2285 74.9166C49.3484 77.2865 48.0797 80.7531 47.0101 82.9462C45.9406 85.1393 45.0766 86.059 44.6173 86.4931C44.158 86.9273 44.1033 86.8726 43.8335 85.0847C43.5637 83.2967 43.0755 79.7787 42.9406 76.6723C42.8057 73.5692 43.0209 70.8776 43.1655 69.363C43.3068 67.8484 43.3742 67.5108 43.4288 67.3564C43.4802 67.1988 43.5188 67.2246 44.325 67.4079Z" fill="white"/>
<path d="M45.4583 89.5449C46.075 88.5705 47.2506 86.6475 48.2913 84.6087C49.3319 82.57 50.2377 80.4187 50.9828 78.7208C51.728 77.0229 52.3094 75.7752 52.7622 74.9294C53.2151 74.0837 53.5395 73.6367 53.7162 73.4277C53.8928 73.2187 53.9185 73.2444 54.0759 73.402C54.2301 73.5563 54.516 73.8425 54.638 74.0451C54.7601 74.2477 54.7183 74.3699 54.4485 75.6369C54.1787 76.9039 53.6776 79.3124 53.2922 81.0457C52.9068 82.779 52.637 83.8337 52.4475 84.4897C52.258 85.1458 52.1488 85.403 51.3875 86.3388C50.6231 87.2713 49.2034 88.8824 48.1499 90.0272C47.0964 91.172 46.4059 91.8473 45.9337 92.2396C45.4615 92.6319 45.2046 92.7413 45.0601 92.693C44.9187 92.6448 44.8898 92.4422 44.8577 92.0628C44.8224 91.6833 44.7838 91.1302 44.7903 90.8376C44.7903 90.5449 44.8416 90.5192 45.4583 89.5449Z" fill="white"/>
<path d="M47.5366 111.158C48.1308 111.158 49.133 110.724 49.6469 110.534C50.1608 110.344 50.1865 110.399 49.2968 108.64C48.4038 106.881 46.5923 103.305 44.9832 99.3402C43.374 95.372 41.9672 91.0147 41.116 86.8857C40.2648 82.7567 39.9661 78.856 39.8923 75.4345C39.8184 72.013 39.9661 69.0642 40.04 67.5914C40.1139 66.1186 40.1139 66.1186 39.0507 65.6652C37.9876 65.2118 35.8581 64.3049 34.7821 63.8226C33.7061 63.3402 33.6772 63.2888 33.6804 63.4688C33.6836 63.6489 33.7157 64.0638 34.2457 65.5719C34.7757 67.0801 35.8035 69.6784 36.5069 71.3988C37.2103 73.1192 37.5893 73.9585 37.7788 74.4184C37.9683 74.8782 37.9683 74.9586 37.2649 74.4312C36.5615 73.9038 35.1547 72.7655 34.0466 71.2766C32.9384 69.7877 32.1258 67.9451 31.6119 66.8486C31.098 65.752 30.8828 65.4015 30.7736 65.4272C30.6644 65.4529 30.6644 65.8613 30.6259 66.4144C30.5841 66.9708 30.5038 67.675 30.7479 69.3375C30.992 71.0033 31.5605 73.6305 32.9128 76.0134C34.265 78.3962 36.4009 80.5346 37.5251 81.7534C38.6492 82.9722 38.7552 83.268 38.7424 83.4191C38.7295 83.5671 38.5946 83.5671 37.6889 82.9464C36.7831 82.3226 35.1065 81.0781 34.1333 80.3739C33.1601 79.6696 32.8903 79.5088 32.7811 79.6568C32.6719 79.8047 32.7265 80.2677 32.916 80.6054C33.1055 80.943 33.4299 81.1617 34.1044 81.7148C34.7821 82.2711 35.8067 83.1619 36.5101 84.0012C37.2135 84.8405 37.5925 85.6251 37.8623 86.3294C38.1321 87.0336 38.2959 87.6575 38.1321 87.8472C37.9683 88.0369 37.4833 87.7925 37.1043 87.5353C36.7253 87.278 36.4555 87.0079 36.1857 87.0336C35.9159 87.0593 35.6461 87.3841 35.4277 87.5899C35.2125 87.7925 35.0487 87.8729 35.0615 87.9823C35.0744 88.0916 35.2639 88.2266 35.8581 88.5772C36.4523 88.9277 37.4544 89.4969 38.4019 90.4712C39.3494 91.4456 40.2424 92.8283 41.1995 95.1018C42.1599 97.3754 43.1877 100.543 44.0934 103.225C44.9992 105.907 45.7829 108.1 46.2711 109.412C46.7497 110.724 46.9392 111.158 47.5366 111.158Z" fill="white"/>
<path d="M58.4697 24.9026H71.2114V40.338H70.3571C70.3603 40.2255 70.3603 40.1097 70.3603 39.9972C70.3603 32.6814 65.2886 26.549 58.4729 24.9347V24.9026H58.4697Z" fill="white"/>
<path d="M32.6655 101.822H19.9238V86.387H20.7814C20.7782 86.4995 20.7782 86.6153 20.7782 86.7278C20.7782 94.0468 25.8498 100.176 32.6655 101.79V101.822Z" fill="white"/>
<path d="M52.4892 63.5876C51.8372 63.3818 51.1659 63.176 50.4818 62.9767C50.5332 62.8705 50.5524 62.7451 50.5717 62.6004C50.6359 62.147 50.7194 61.5521 50.7194 61.1726C50.7194 60.7932 50.6392 60.6324 50.4496 60.3205C50.2601 60.0086 49.9614 59.5487 49.8137 59.1017C49.6659 58.6547 49.6659 58.2206 49.7462 57.8958C49.8265 57.571 49.9903 57.3556 51.6124 55.7831C53.2344 54.2138 56.3178 51.2875 58.2803 49.4739C60.2396 47.6602 61.0779 46.956 61.7556 45.7372C62.4301 44.5184 62.944 42.7852 63.2684 41.486C63.5928 40.1869 63.7277 39.3186 63.7823 38.698C63.8369 38.0742 63.808 37.6979 63.7149 37.6979C63.6217 37.6979 63.4579 38.0774 62.944 39.0517C62.4301 40.0261 61.5661 41.5986 60.0501 43.126C58.5341 44.6567 56.3724 46.1456 54.6155 47.3644C52.8586 48.5831 51.5064 49.5317 50.6809 50.2199C49.8554 50.9113 49.5599 51.3422 49.5053 51.3036C49.4507 51.2618 49.6402 50.7473 50.0867 49.8951C50.5332 49.043 51.2366 47.8499 52.3993 46.2517C53.562 44.6535 55.184 42.6501 56.3339 41.0648C57.4838 39.4794 58.1583 38.3153 58.579 37.0451C58.9998 35.7717 59.1604 34.3922 59.1893 33.1863C59.215 31.9804 59.109 30.9513 58.958 30.0574C58.8103 29.1634 58.6208 28.4045 58.457 28.1344C58.2932 27.8643 58.1583 28.0797 57.9013 28.9319C57.6444 29.784 57.2653 31.2729 56.6711 32.6139C56.0769 33.9548 55.2643 35.1446 54.6027 36.0129C53.941 36.8779 53.4271 37.4214 53.2504 37.5018C53.0738 37.5821 53.2376 37.2027 53.5492 36.5145C53.8607 35.8232 54.32 34.8231 54.8596 33.4821C55.3992 32.1412 56.0223 30.4626 56.321 28.8804C56.6198 27.2983 56.5908 25.8062 56.3146 24.3784C56.0384 22.9506 55.5116 21.584 55.2129 20.1883C54.9142 18.7927 54.8468 17.3714 54.9367 16.0368C55.0234 14.7023 55.2675 13.4514 55.4313 12.789C55.5951 12.1265 55.6754 12.0494 55.5116 12.0783C55.3478 12.1072 54.9431 12.2423 54.3361 12.9755C53.7258 13.7055 52.9164 15.0335 52.3061 16.4131C51.6991 17.7926 51.2912 19.2301 50.9957 20.4617C50.697 21.6933 50.5075 22.7223 50.3726 23.1564C50.2377 23.5906 50.1574 23.4266 50.1285 22.8445C50.1028 22.2625 50.1285 21.2592 50.2377 20.2591C50.3469 19.2558 50.5364 18.2557 50.5749 17.8087C50.6167 17.3617 50.5075 17.4711 50.1028 17.9856C49.6981 18.5001 48.9946 19.4198 48.2784 20.9087C47.5621 22.3975 46.833 24.4556 46.3448 26.7162C45.8566 28.9769 45.6157 31.4401 45.3588 33.1605C45.1018 34.8809 44.832 35.8553 44.6296 36.5981C44.4273 37.3442 44.2924 37.8587 44.1414 37.9262C43.9937 37.9938 43.8299 37.6143 43.7078 36.8297C43.5858 36.045 43.5055 34.852 43.4766 33.987C43.4509 33.122 43.4766 32.5785 43.5986 32.0383C43.7207 31.498 43.9359 30.9546 43.9487 30.6716C43.9616 30.3886 43.7721 30.3596 43.1907 31.0639C42.6093 31.7681 41.6361 33.2023 40.8781 35.1253C40.1201 37.0483 39.5805 39.4569 39.3782 41.515C39.1758 43.573 39.3107 45.2774 39.5002 46.7694C39.6897 48.2583 39.9338 49.5317 40.0687 50.4129C40.2036 51.294 40.2325 51.7795 40.149 51.7249C40.0687 51.6702 39.8792 51.0753 39.4199 50.2778C38.9606 49.4803 38.2283 48.477 37.7433 47.5444C37.2551 46.6119 37.0142 45.7436 36.7958 44.8368C36.5806 43.93 36.3911 42.9813 36.2016 42.6565C36.0121 42.3318 35.8226 42.6308 35.6202 43.1035C35.4179 43.5762 35.2027 44.229 35.254 45.7983C35.3087 47.3676 35.6331 49.8597 36.1823 51.9532C36.7347 54.0434 37.512 55.7381 37.8718 57.1948C38.0131 57.7608 38.0902 58.2914 38.1608 58.7544C32.4532 55.9728 27.9598 51.6123 27.9598 43.2933C27.9598 34.4179 34.7723 27.0024 43.7817 25.2788C43.7817 25.1277 43.7817 25.0119 43.7817 24.909C43.7817 24.909 43.7656 24.909 43.0205 24.909C42.2753 24.909 40.8042 24.909 40.0687 24.909H39.8728H39.7283H39.6833H39.664C39.3332 24.909 39.3332 24.9122 39.3332 24.9122V24.9154C28.5797 25.1116 19.9268 33.2634 19.9268 43.2933C19.9268 53.4453 28.8687 59.7095 39.6865 63.1439C49.6756 66.3178 64.2192 68.4852 64.2192 83.4479C64.2192 92.3233 57.4452 99.7291 48.4358 101.453C48.4358 101.552 48.4358 101.745 48.4358 101.829C48.4358 101.829 48.4518 101.829 49.197 101.829C49.9422 101.829 51.4132 101.829 52.1488 101.829H52.1744C52.2676 101.832 52.3607 101.832 52.4539 101.832C52.5181 101.832 52.5824 101.832 52.6466 101.829H52.6627C52.8746 101.829 52.8843 101.826 52.8843 101.826C63.6217 101.613 72.2522 93.4681 72.2522 83.4479C72.2522 73.2895 63.307 67.0252 52.4892 63.5876ZM48.6189 39.4633C48.439 41.6082 47.9476 45.2516 47.0803 49.2102C46.2131 53.1687 44.9669 57.4488 44.347 59.5937L43.9327 61.0183C43.0205 60.7192 42.1115 60.4041 41.2186 60.0632C41.3246 59.8092 41.4659 59.4136 41.6843 58.7962C42.3974 56.7735 43.9134 52.3841 44.9444 48.8018C45.9754 45.2195 46.5215 42.4475 47.0771 40.2222C47.6328 37.997 48.2013 36.3184 48.4454 35.7074C48.6895 35.0996 48.606 35.5595 48.6349 36.1126C48.6638 36.6689 48.7987 37.3185 48.6189 39.4633Z" fill="white"/>
<path d="M128.923 84.4479C128.172 84.4479 127.571 84.2614 127.121 83.8916C126.707 83.5411 126.469 83.0844 126.402 82.5217C126.376 82.3191 126.36 82.0972 126.347 81.8592C126.335 81.6213 126.328 81.3801 126.328 81.1325C126.328 80.8849 126.335 80.6437 126.347 80.4057C126.36 80.1678 126.38 79.9523 126.402 79.753C126.469 79.1806 126.71 78.7239 127.121 78.3831C127.571 78.0068 128.172 77.8203 128.923 77.8203C129.367 77.8203 129.742 77.8557 130.044 77.9296C130.349 78.0036 130.622 78.0904 130.863 78.1901C131.085 78.2769 131.197 78.4249 131.197 78.6339C131.197 78.7014 131.175 78.7882 131.133 78.8944C131.053 79.1034 130.899 79.2095 130.671 79.2095C130.59 79.2095 130.504 79.1902 130.41 79.1548C130.301 79.113 130.192 79.0712 130.086 79.0294C129.98 78.9908 129.874 78.9555 129.762 78.9265C129.649 78.8976 129.534 78.8783 129.405 78.8622C129.28 78.8461 129.135 78.8397 128.975 78.8397C128.088 78.8397 127.6 79.1806 127.513 79.8559C127.494 80.0424 127.478 80.2417 127.468 80.4604C127.456 80.6791 127.449 80.9042 127.449 81.1325C127.449 81.3608 127.456 81.5859 127.468 81.8046C127.481 82.0232 127.497 82.2258 127.513 82.4091C127.6 83.0876 128.085 83.4253 128.975 83.4253C129.135 83.4253 129.277 83.4189 129.405 83.4028C129.53 83.3867 129.649 83.3674 129.762 83.3385C129.871 83.3095 129.98 83.2774 130.086 83.2356C130.192 83.197 130.298 83.1552 130.41 83.1102C130.504 83.0716 130.594 83.0555 130.677 83.0555C130.777 83.0555 130.863 83.0812 130.94 83.1295C131.018 83.1777 131.082 83.2549 131.13 83.361C131.165 83.4542 131.185 83.5443 131.185 83.6279C131.185 83.7211 131.159 83.8048 131.107 83.8819C131.056 83.9591 130.973 84.0234 130.863 84.0717C130.622 84.1713 130.349 84.255 130.044 84.3289C129.739 84.4093 129.367 84.4479 128.923 84.4479Z" fill="white"/>
<path d="M146.987 83.6151L145.564 81.8304C145.529 81.7821 145.491 81.7371 145.455 81.7017C145.417 81.6631 145.378 81.6278 145.336 81.5892C145.886 81.5152 146.297 81.3191 146.573 80.9975C146.849 80.6759 146.987 80.2643 146.987 79.7594C146.987 79.1806 146.811 78.724 146.457 78.3895C146.104 78.0551 145.571 77.8911 144.864 77.8911H143.718C143.502 77.8911 143.306 77.9265 143.13 77.994C142.953 78.0615 142.802 78.1548 142.677 78.277C142.552 78.396 142.452 78.5375 142.381 78.7015C142.311 78.8655 142.275 79.0456 142.275 79.2417V83.9592C142.275 84.1007 142.33 84.2132 142.436 84.2968C142.545 84.3804 142.677 84.4222 142.837 84.4222C142.998 84.4222 143.133 84.3804 143.239 84.2968C143.348 84.2132 143.4 84.1007 143.4 83.9592V81.6278H143.695C143.75 81.6278 143.798 81.631 143.833 81.631C143.869 81.6342 143.904 81.6438 143.936 81.6631C143.968 81.6824 144 81.7082 144.039 81.7468C144.077 81.7853 144.119 81.8336 144.167 81.8947L145.998 84.1875C146.12 84.3418 146.303 84.419 146.544 84.419C146.705 84.419 146.84 84.374 146.952 84.2807C147.064 84.1875 147.119 84.0749 147.119 83.9399C147.116 83.8273 147.074 83.718 146.987 83.6151ZM143.403 80.6084V79.2385C143.403 79.0102 143.512 78.8976 143.737 78.8976H144.948C145.275 78.8976 145.51 78.9812 145.651 79.1517C145.792 79.3221 145.863 79.5247 145.863 79.7562C145.863 79.991 145.792 80.1903 145.654 80.3576C145.516 80.5248 145.282 80.6084 144.948 80.6084H143.403Z" fill="white"/>
<path d="M162.022 83.3643C162.183 83.3643 162.305 83.4125 162.391 83.5122C162.478 83.6119 162.52 83.7309 162.52 83.8724C162.52 84.0139 162.478 84.1329 162.391 84.2326C162.305 84.3322 162.183 84.3805 162.022 84.3805H159.009C158.701 84.3805 158.45 84.2904 158.258 84.1071C158.065 83.9238 157.965 83.6859 157.965 83.39V79.2289C157.965 78.8398 158.087 78.5214 158.331 78.2674C158.576 78.0134 158.916 77.8879 159.353 77.8879H162.006C162.167 77.8879 162.289 77.9362 162.375 78.0359C162.462 78.1355 162.504 78.2545 162.504 78.396C162.504 78.5375 162.462 78.6597 162.375 78.7562C162.289 78.8559 162.167 78.9041 162.006 78.9041H159.401C159.285 78.9041 159.205 78.9363 159.16 79.0006C159.118 79.0649 159.096 79.1421 159.096 79.2257V80.512H161.73C161.89 80.512 162.012 80.5634 162.099 80.6631C162.186 80.766 162.228 80.885 162.228 81.0297C162.228 81.1712 162.186 81.2902 162.099 81.3899C162.012 81.4895 161.89 81.5378 161.73 81.5378H159.096V83.3611H162.022V83.3643Z" fill="white"/>
<path d="M178.265 83.8175L176.739 78.6916C176.672 78.4698 176.55 78.2736 176.37 78.1032C176.19 77.9327 175.933 77.8491 175.592 77.8491C175.258 77.8491 175.005 77.9327 174.825 78.1032C174.645 78.2736 174.523 78.4698 174.455 78.6916L172.923 83.8175C172.917 83.8432 172.914 83.8657 172.91 83.8882C172.907 83.9107 172.907 83.9365 172.907 83.9654C172.907 84.094 172.959 84.2034 173.065 84.2902C173.171 84.377 173.306 84.4188 173.473 84.4188C173.633 84.4188 173.758 84.3835 173.845 84.3095C173.935 84.2355 173.996 84.1326 174.035 84.004L174.478 82.5344H176.713L177.157 84.004C177.192 84.1326 177.259 84.2355 177.349 84.3095C177.442 84.3835 177.568 84.4188 177.728 84.4188C177.895 84.4188 178.027 84.377 178.13 84.2902C178.233 84.2034 178.281 84.0972 178.281 83.9654C178.284 83.8979 178.278 83.8496 178.265 83.8175ZM174.783 81.5054L175.541 78.8878C175.547 78.8492 175.567 78.8331 175.596 78.8331C175.628 78.8331 175.647 78.8524 175.66 78.8878L176.408 81.5054H174.783Z" fill="white"/>
<path d="M192.467 77.8879C192.628 77.8879 192.753 77.9362 192.84 78.0359C192.93 78.1355 192.975 78.2545 192.975 78.396C192.975 78.5375 192.93 78.6597 192.84 78.7562C192.75 78.8559 192.625 78.9041 192.467 78.9041H190.942V83.956C190.942 84.0975 190.887 84.21 190.781 84.2936C190.672 84.3773 190.54 84.4191 190.38 84.4191C190.219 84.4191 190.084 84.3773 189.978 84.2936C189.869 84.21 189.818 84.0975 189.818 83.956V78.9041H188.292C188.131 78.9041 188.006 78.8559 187.916 78.7562C187.826 78.6565 187.781 78.5375 187.781 78.396C187.781 78.2545 187.826 78.1355 187.916 78.0359C188.006 77.9362 188.131 77.8879 188.292 77.8879H192.467Z" fill="white"/>
<path d="M204.066 84.4189C203.905 84.4189 203.77 84.3771 203.665 84.2935C203.555 84.2099 203.504 84.0974 203.504 83.9559V78.3123C203.504 78.1708 203.559 78.0583 203.665 77.9779C203.774 77.8975 203.905 77.8589 204.066 77.8589C204.227 77.8589 204.361 77.8975 204.467 77.9779C204.577 78.0583 204.628 78.1676 204.628 78.3123V83.9559C204.628 84.0974 204.573 84.2099 204.467 84.2935C204.358 84.3771 204.223 84.4189 204.066 84.4189Z" fill="white"/>
<path d="M218.009 84.4091C217.726 84.4091 217.486 84.3384 217.29 84.2001C217.094 84.0618 216.956 83.8528 216.875 83.5763L215.343 78.4504C215.337 78.4247 215.334 78.4022 215.33 78.3797C215.327 78.3572 215.327 78.3314 215.327 78.3025C215.327 78.1481 215.385 78.0356 215.504 77.9616C215.619 77.8877 215.751 77.8523 215.892 77.8523C216.188 77.8523 216.377 77.9874 216.455 78.2607C216.715 79.1225 216.968 79.9779 217.216 80.8236C217.466 81.6693 217.714 82.5215 217.961 83.3865C217.974 83.4219 217.993 83.4412 218.016 83.4412C218.048 83.4412 218.067 83.4219 218.08 83.3865C218.327 82.5215 218.571 81.6693 218.818 80.8236C219.066 79.9779 219.316 79.1257 219.577 78.2607C219.657 77.9906 219.846 77.8523 220.148 77.8523C220.283 77.8523 220.412 77.8909 220.527 77.9616C220.643 78.0356 220.704 78.1514 220.704 78.3025C220.704 78.37 220.697 78.4183 220.685 78.4504L219.159 83.5763C219.072 83.8528 218.934 84.0618 218.738 84.2001C218.539 84.3416 218.298 84.4091 218.009 84.4091Z" fill="white"/>
<path d="M235.444 83.3643C235.604 83.3643 235.727 83.4125 235.813 83.5122C235.9 83.6119 235.942 83.7309 235.942 83.8724C235.942 84.0139 235.9 84.1329 235.813 84.2326C235.727 84.3322 235.604 84.3805 235.444 84.3805H232.431C232.123 84.3805 231.872 84.2904 231.679 84.1071C231.487 83.9238 231.387 83.6859 231.387 83.39V79.2289C231.387 78.8398 231.509 78.5214 231.753 78.2674C231.997 78.0134 232.338 77.8879 232.775 77.8879H235.428C235.588 77.8879 235.71 77.9362 235.797 78.0359C235.884 78.1355 235.926 78.2545 235.926 78.396C235.926 78.5375 235.884 78.6597 235.797 78.7562C235.71 78.8559 235.588 78.9041 235.428 78.9041H232.823C232.707 78.9041 232.627 78.9363 232.582 79.0006C232.54 79.0649 232.518 79.1421 232.518 79.2257V80.512H235.152C235.312 80.512 235.434 80.5634 235.521 80.6631C235.608 80.766 235.649 80.885 235.649 81.0297C235.649 81.1712 235.608 81.2902 235.521 81.3899C235.434 81.4895 235.312 81.5378 235.152 81.5378H232.518V83.3611H235.444V83.3643Z" fill="white"/>
<path d="M119.873 70.6844C118.636 70.6844 117.544 70.5525 116.6 70.2921C115.649 70.0316 114.862 69.6682 114.22 69.2052C113.587 68.7421 113.102 68.1761 112.781 67.5105C112.456 66.8512 112.299 66.1213 112.299 65.327C112.299 64.5584 112.54 63.9442 113.015 63.4651C113.49 62.9956 114.168 62.7609 115.051 62.7609C115.084 63.5487 115.202 64.3108 115.402 65.0344C115.604 65.7643 115.903 66.4075 116.301 66.9574C116.699 67.5105 117.213 67.9542 117.83 68.2919C118.446 68.6231 119.195 68.7871 120.062 68.7871C121.735 68.7871 123.043 68.3755 123.984 67.5555C124.922 66.729 125.391 65.5424 125.391 63.9925C125.391 63.3011 125.288 62.6837 125.098 62.1563C124.902 61.6225 124.578 61.1273 124.128 60.6771C123.679 60.2269 123.081 59.796 122.346 59.3747C121.61 58.9631 120.698 58.5225 119.6 58.0659C118.446 57.5835 117.438 57.0626 116.567 56.5159C115.703 55.9628 114.987 55.3486 114.419 54.6733C113.841 54.0012 113.417 53.2455 113.137 52.4127C112.858 51.5862 112.72 50.6472 112.72 49.6118C112.72 48.5184 112.928 47.5473 113.343 46.6919C113.76 45.8397 114.338 45.1162 115.08 44.5277C115.829 43.9425 116.706 43.4923 117.727 43.1803C118.742 42.8684 119.853 42.7173 121.051 42.7173C122.192 42.7173 123.2 42.8395 124.083 43.0742C124.967 43.309 125.709 43.6209 126.316 44.0197C126.926 44.412 127.382 44.8718 127.7 45.3863C128.018 45.9008 128.175 46.4347 128.175 46.9942C128.175 47.8142 127.909 48.4284 127.369 48.8432C126.83 49.2548 126.1 49.4671 125.182 49.4671C125.182 48.869 125.118 48.2869 124.979 47.7081C124.841 47.1293 124.61 46.6083 124.289 46.1581C123.965 45.7079 123.541 45.3317 123.014 45.0455C122.487 44.7593 121.835 44.621 121.061 44.621C120.351 44.621 119.722 44.7239 119.166 44.9265C118.613 45.1291 118.145 45.4217 117.759 45.8044C117.38 46.1838 117.088 46.6372 116.882 47.1711C116.68 47.7049 116.571 48.2998 116.571 48.9622C116.571 49.7179 116.673 50.3836 116.863 50.9624C117.059 51.5348 117.383 52.0622 117.833 52.5252C118.289 52.9883 118.88 53.4256 119.622 53.8469C120.358 54.2585 121.263 54.6926 122.336 55.1364C123.428 55.5995 124.398 56.0818 125.246 56.5899C126.097 57.1044 126.82 57.6704 127.408 58.2974C128.005 58.9213 128.455 59.6255 128.773 60.4005C129.084 61.1755 129.242 62.0566 129.242 63.0374C129.242 64.2433 129.02 65.3238 128.583 66.2692C128.146 67.2211 127.517 68.0282 126.698 68.681C125.879 69.3402 124.896 69.8419 123.743 70.1795C122.587 70.5139 121.299 70.6844 119.873 70.6844Z" fill="white"/>
<path d="M139.391 68.4047H146.743C147.347 68.4047 147.867 68.3211 148.291 68.157C148.722 67.9866 149.078 67.7583 149.364 67.4721C149.65 67.1859 149.872 66.8547 150.035 66.4752C150.193 66.1022 150.308 65.7002 150.366 65.2758L150.626 63.6358H152.598L152.338 70.3052H131.946V68.7037H132.428C132.845 68.7037 133.247 68.678 133.626 68.6201C134.001 68.5622 134.335 68.4497 134.621 68.276C134.901 68.0992 135.129 67.8451 135.293 67.501C135.463 67.157 135.546 66.7068 135.546 66.1537V47.4318C135.546 46.8336 135.463 46.3577 135.305 45.9975C135.148 45.6342 134.92 45.364 134.634 45.1711C134.355 44.9749 134.017 44.8463 133.645 44.7916C133.266 44.7273 132.858 44.6952 132.428 44.6952H131.946V43.0938H151.121L151.304 49.7631H149.332L149.149 48.1231C149.097 47.6987 149.004 47.2967 148.863 46.9237C148.718 46.5442 148.513 46.213 148.246 45.9268C147.98 45.6406 147.642 45.4123 147.244 45.2419C146.839 45.0778 146.358 44.9942 145.786 44.9942H139.391V55.1366H148.564V57.0339H139.391V68.4047Z" fill="white"/>
<path d="M204.108 68.7038C203.736 68.7038 203.418 68.6716 203.145 68.6073C202.872 68.5494 202.631 68.4368 202.416 68.2825C202.207 68.1314 202.024 67.9191 201.87 67.6586C201.712 67.3982 201.564 67.067 201.413 66.6746L192.812 43.0938H189.838L181.4 65.7196C181.165 66.3306 180.95 66.8258 180.758 67.2117C180.568 67.5911 180.366 67.8966 180.154 68.1185C179.945 68.3404 179.71 68.4915 179.45 68.5751C179.203 68.6523 178.901 68.6909 178.551 68.6941C177.767 68.6877 177.067 68.4336 176.473 67.9384C175.863 67.4368 175.243 66.6746 174.594 65.6713L169.381 57.4777C170.046 57.2558 170.714 56.9567 171.385 56.5837C172.05 56.2107 172.654 55.738 173.187 55.1752C173.72 54.6157 174.151 53.9501 174.475 53.1815C174.806 52.4129 174.97 51.519 174.97 50.4964C174.97 48.0203 174.163 46.1648 172.554 44.9396C170.942 43.708 168.494 43.0906 165.202 43.0906H154.966V44.6984H155.448C155.865 44.6984 156.267 44.7242 156.646 44.782C157.018 44.8399 157.355 44.9589 157.641 45.1454C157.921 45.3351 158.149 45.5956 158.313 45.9397C158.483 46.2838 158.566 46.7276 158.566 47.2871V66.1601C158.566 66.7132 158.483 67.1634 158.313 67.5075C158.149 67.8516 157.921 68.1056 157.641 68.2825C157.355 68.4529 157.018 68.5687 156.646 68.6266C156.267 68.6845 155.865 68.7102 155.448 68.7102H154.966V70.3116H166.041V68.7102H165.539C165.116 68.7102 164.714 68.6845 164.341 68.6266C163.962 68.5687 163.632 68.4561 163.346 68.2825C163.06 68.1121 162.832 67.858 162.668 67.5204C162.504 67.1827 162.414 66.739 162.414 66.1859V58.4135H165.572L170.717 66.9158C171.154 67.6265 171.555 68.2053 171.934 68.6491C172.307 69.0864 172.766 69.4369 173.299 69.6781C173.833 69.9257 174.478 70.0897 175.239 70.1798C175.917 70.2537 176.765 70.2955 177.777 70.3052V70.3084H178.053H178.162H178.702H187.069V68.707H186.192C185.335 68.707 184.702 68.5623 184.291 68.2632C183.873 67.9641 183.668 67.4882 183.668 66.8419C183.668 66.6328 183.7 66.3788 183.757 66.0862C183.822 65.7935 183.908 65.5009 184.018 65.2018L185.482 61.1951H195.446L196.987 65.4687C197.09 65.7549 197.164 66.009 197.215 66.2309C197.273 66.4528 197.305 66.6746 197.305 66.8837C197.305 68.096 196.544 68.707 195.015 68.707H194.145V70.3084H204.606V68.707H204.108V68.7038ZM165.045 56.5098H162.411V44.9975H164.948C166.008 44.9975 166.908 45.1004 167.643 45.303C168.379 45.5056 168.976 45.8304 169.439 46.2806C169.901 46.7308 170.232 47.3096 170.441 48.0203C170.65 48.7245 170.752 49.5895 170.752 50.5993C170.752 51.5833 170.656 52.4483 170.467 53.1847C170.283 53.9275 169.965 54.545 169.529 55.0337C169.092 55.529 168.507 55.8988 167.778 56.1464C167.049 56.3876 166.137 56.5098 165.045 56.5098ZM186.182 59.2914L188.778 52.2747C188.999 51.6765 189.195 51.1363 189.375 50.6411C189.545 50.1523 189.7 49.6828 189.838 49.2358C189.973 48.792 190.104 48.3515 190.22 47.9206C190.339 47.4961 190.442 47.0491 190.531 46.5925C190.74 47.5058 191.007 48.4608 191.338 49.4513C191.668 50.4353 192.028 51.4965 192.423 52.6252L194.784 59.2881H186.182V59.2914Z" fill="white"/>
<path d="M213.32 70.6844C212.083 70.6844 210.991 70.5525 210.047 70.2921C209.096 70.0316 208.309 69.6682 207.667 69.2052C207.034 68.7421 206.549 68.1761 206.228 67.5105C205.903 66.8512 205.746 66.1213 205.746 65.327C205.746 64.5584 205.987 63.9442 206.462 63.4651C206.938 62.9956 207.615 62.7609 208.499 62.7609C208.531 63.5487 208.65 64.3108 208.849 65.0344C209.051 65.7643 209.35 66.4075 209.748 66.9574C210.146 67.5105 210.66 67.9542 211.277 68.2919C211.894 68.6231 212.642 68.7871 213.509 68.7871C215.183 68.7871 216.49 68.3755 217.431 67.5555C218.369 66.729 218.838 65.5424 218.838 63.9925C218.838 63.3011 218.735 62.6837 218.546 62.1563C218.35 61.6225 218.025 61.1273 217.576 60.6771C217.126 60.2269 216.529 59.796 215.793 59.3747C215.057 58.9631 214.145 58.5225 213.047 58.0659C211.894 57.5835 210.885 57.0626 210.015 56.5159C209.151 55.9628 208.434 55.3486 207.866 54.6733C207.288 54.0012 206.864 53.2455 206.584 52.4127C206.305 51.5862 206.167 50.6472 206.167 49.6118C206.167 48.5184 206.376 47.5473 206.79 46.6919C207.208 45.8397 207.786 45.1162 208.528 44.5277C209.276 43.9425 210.153 43.4923 211.171 43.1803C212.186 42.8684 213.297 42.7173 214.495 42.7173C215.636 42.7173 216.644 42.8395 217.527 43.0742C218.411 43.309 219.153 43.6209 219.76 44.0197C220.37 44.412 220.826 44.8718 221.144 45.3863C221.462 45.9008 221.619 46.4347 221.619 46.9942C221.619 47.8142 221.353 48.4284 220.813 48.8432C220.274 49.2548 219.545 49.4671 218.626 49.4671C218.626 48.869 218.562 48.2869 218.424 47.7081C218.285 47.1293 218.054 46.6083 217.733 46.1581C217.409 45.7079 216.985 45.3317 216.458 45.0455C215.931 44.7593 215.279 44.621 214.505 44.621C213.795 44.621 213.166 44.7239 212.61 44.9265C212.058 45.1291 211.589 45.4217 211.203 45.8044C210.824 46.1838 210.532 46.6372 210.326 47.1711C210.124 47.7049 210.015 48.2998 210.015 48.9622C210.015 49.7179 210.118 50.3836 210.307 50.9624C210.503 51.5348 210.827 52.0622 211.277 52.5252C211.733 52.9883 212.324 53.4256 213.066 53.8469C213.802 54.2585 214.707 54.6926 215.78 55.1364C216.872 55.5995 217.842 56.0818 218.69 56.5899C219.541 57.1044 220.264 57.6704 220.852 58.2974C221.449 58.9213 221.899 59.6255 222.217 60.4005C222.528 61.1755 222.686 62.0566 222.686 63.0374C222.686 64.2433 222.464 65.3238 222.027 66.2692C221.591 67.2211 220.961 68.0282 220.142 68.681C219.323 69.3402 218.34 69.8419 217.187 70.1795C216.034 70.5139 214.746 70.6844 213.32 70.6844Z" fill="white"/>
<path d="M249.502 68.7037C249.13 68.7037 248.812 68.6716 248.539 68.6072C248.266 68.5494 248.025 68.4368 247.81 68.2825C247.601 68.1313 247.418 67.9191 247.264 67.6586C247.106 67.3981 246.958 67.0669 246.807 66.6746L238.206 43.0938H235.232L226.794 65.7195C226.559 66.3305 226.344 66.8257 226.152 67.2116C225.962 67.5911 225.76 67.8966 225.548 68.1185C225.339 68.3403 225.104 68.4915 224.844 68.5751C224.584 68.6587 224.266 68.6941 223.894 68.6941H223.171V70.2955H232.463V68.6941H231.586C230.729 68.6941 230.096 68.5494 229.685 68.2503C229.267 67.9512 229.062 67.4753 229.062 66.829C229.062 66.6199 229.094 66.3659 229.151 66.0733C229.216 65.7806 229.302 65.488 229.412 65.1889L230.876 61.1822H240.84L242.381 65.4558C242.484 65.742 242.558 65.9961 242.609 66.218C242.667 66.4398 242.699 66.6617 242.699 66.8708C242.699 68.0831 241.938 68.6941 240.409 68.6941H239.539V70.2955H250V68.6941H249.502V68.7037ZM231.576 59.2913L234.172 52.2746C234.393 51.6765 234.589 51.1363 234.769 50.641C234.939 50.1522 235.094 49.6828 235.232 49.2358C235.367 48.792 235.498 48.3514 235.614 47.9205C235.736 47.4961 235.836 47.0491 235.925 46.5925C236.134 47.5057 236.401 48.4608 236.732 49.4512C237.062 50.4352 237.422 51.4964 237.817 52.6251L240.178 59.2881H231.576V59.2913Z" fill="white"/>
</svg>
