<svg width="30" height="29" viewBox="0 0 30 29" fill="none" xmlns="http://www.w3.org/2000/svg">
<path d="M29.9753 11.3718C29.6098 5.042 23.0443 0 14.9962 0C6.71242 0 0 5.33919 0 11.9286C0 17.9818 5.67054 22.9828 13.0183 23.7548C13.4692 23.8026 13.7903 24.2057 13.7425 24.6566L13.4282 27.4714C13.3565 28.1102 14.0192 28.5747 14.5965 28.298C20.8034 25.3022 24.5165 22.221 26.7335 19.5497C27.1366 19.0646 28.4518 17.22 28.7216 16.7383C29.2921 15.7101 29.6849 14.6068 29.8694 13.4522C29.9377 13.0901 29.9719 12.7826 29.989 12.5435C30.0163 12.1438 29.9855 11.5563 29.9753 11.3718ZM9.05237 15.8775H5.98481C5.56123 15.8775 5.21621 15.5359 5.21621 15.1123V9.31882C5.21621 8.89523 5.56123 8.55363 5.98481 8.55363C6.40839 8.55363 6.74999 8.89865 6.74999 9.31882V14.3437H9.05237C9.47595 14.3437 9.82096 14.6853 9.82096 15.1089C9.82096 15.5325 9.47595 15.8775 9.05237 15.8775ZM12.0823 15.2797C12.0823 15.6111 11.8125 15.8775 11.4811 15.8775H11.1464C10.815 15.8775 10.5486 15.6076 10.5486 15.2797V9.15143C10.5486 8.82008 10.8184 8.55363 11.1464 8.55363H11.4811C11.8125 8.55363 12.0823 8.8235 12.0823 9.15143V15.2797ZM19.2149 15.0782C19.2149 15.5052 18.8665 15.8809 18.4395 15.8775C18.238 15.8741 18.0569 15.7955 17.9203 15.6691C17.8759 15.6247 14.7639 11.5939 14.7639 11.5939V15.1089C14.7639 15.5325 14.4189 15.8741 13.9987 15.8741C13.5751 15.8741 13.2301 15.5325 13.2301 15.1089V9.34956C13.2301 8.93281 13.5512 8.5673 13.968 8.55022C14.2071 8.53997 14.4223 8.64245 14.5692 8.80642C14.617 8.85766 17.6777 12.8544 17.6777 12.8544V9.31882C17.6777 8.89523 18.0228 8.55363 18.4463 8.55363C18.8699 8.55363 19.2115 8.89865 19.2115 9.31882V15.0782H19.2149ZM24.1989 11.447C24.6224 11.447 24.9675 11.792 24.9675 12.2156C24.9675 12.6392 24.6224 12.9808 24.1989 12.9808H21.8965V14.3437H24.1989C24.6224 14.3437 24.9675 14.6853 24.9675 15.1089C24.9675 15.5325 24.6224 15.8741 24.1989 15.8741H21.1313C20.7077 15.8741 20.3661 15.5325 20.3661 15.1089V9.31882C20.3661 8.89523 20.7111 8.55363 21.1313 8.55363H24.1989C24.6224 8.55363 24.9675 8.89865 24.9675 9.31882C24.9675 9.7424 24.6224 10.084 24.1989 10.084H21.8965V11.447H24.1989Z" fill="white"/>
</svg>
