<svg width="30" height="30" viewBox="0 0 30 30" fill="none" xmlns="http://www.w3.org/2000/svg">
<path d="M10.0598 8.01172C10.345 8.01172 10.6371 8.06289 10.9201 8.11178C11.0898 8.13469 11.2458 8.38293 11.3353 8.56318C11.7467 9.52328 12.1573 10.4834 12.5113 11.4656C12.7109 11.985 12.3454 12.4822 11.5815 13.3408C11.3422 13.6119 11.2947 13.8716 11.4729 14.1878C12.678 16.2547 14.374 17.7456 16.6175 18.6263C16.7192 18.6652 16.8125 18.6835 16.8989 18.6835C17.0908 18.6835 17.2499 18.5904 17.3998 18.4116C18.3586 17.2552 18.6316 16.7488 19.0201 16.7488C19.1172 16.7488 19.2212 16.7801 19.3451 16.8413C22.3417 18.2757 22.5788 18.3322 22.5872 18.6706C22.6652 21.0758 20.5677 22.0213 19.147 22.0213C19.0736 22.0213 19.0017 22.0191 18.9321 22.0137C16.0272 21.9121 11.4087 19.6192 8.27358 14.1076C7.16942 12.1538 7.34452 9.92886 9.00689 8.39286C9.32422 8.09956 9.68591 8.01172 10.0598 8.01172Z" fill="white"/>
<path d="M29.7719 12.1208C31.2018 20.3431 25.7605 28.1354 17.5856 29.5698C16.7062 29.7202 15.8361 29.7943 14.9766 29.7943C12.6727 29.7943 10.4429 29.2589 8.30188 28.214C8.12142 28.1239 7.89585 28.0788 7.68481 28.0788C7.57928 28.0788 7.47758 28.0903 7.38659 28.1124C3.43331 29.1062 0.804419 29.8402 0 29.9983C0.174342 29.3544 0.325744 28.7899 0.477146 28.2255C0.988702 26.4183 1.51096 24.6226 1.98811 22.8155C2.05846 22.5443 2.03781 22.1945 1.91547 21.9455C-2.60748 13.2275 2.21062 2.66796 11.8384 0.409397C13.0282 0.131374 14.1997 0 15.3398 0C22.5949 0 28.5829 5.31834 29.7719 12.1208ZM16.9708 27.176C23.7403 26.0922 28.4131 19.7786 27.4359 13.0472C26.5275 6.83602 21.272 2.44951 15.2434 2.44951C14.4971 2.44951 13.7386 2.51672 12.9747 2.65574C4.59635 4.1925 0.0818183 13.5101 4.18573 20.8961C4.643 21.7095 4.76229 22.387 4.43884 23.2562C4.06874 24.3064 3.83476 25.391 3.49754 26.5764C4.98174 26.1923 6.35201 25.8539 7.71233 25.4697C7.83927 25.4361 7.95626 25.42 8.0679 25.42C8.29577 25.42 8.50222 25.488 8.72856 25.6163C10.6876 26.7506 12.7568 27.3402 14.9414 27.3402C15.6074 27.341 16.2841 27.2868 16.9708 27.176Z" fill="white"/>
</svg>
