<svg width="233" height="382" viewBox="0 0 233 382" fill="none" xmlns="http://www.w3.org/2000/svg">
<path d="M0 0H233V382H0V0Z" fill="url(#paint0_linear)"/>
<mask id="mask0" mask-type="alpha" maskUnits="userSpaceOnUse" x="38" y="140" width="120" height="102">
<path d="M71.2961 167.777C67.9714 169.984 63.8369 170.491 59.6056 171.022C51.3823 172.059 42.8111 173.183 39.1785 187.063C36.8005 196.153 47.5273 207.627 56.4349 207.513C61.0369 207.456 65.0858 208.106 73.9364 202.403C83.3173 196.353 92.2534 195.908 98.5663 199.94C104.206 203.544 106.39 209.167 106.989 215.029C107.491 219.951 106.128 223.361 107.554 229.457C109.185 236.437 113.81 241.336 123.766 241.256C135.394 241.165 138.725 228.573 137.236 224.153C135.012 217.538 131.448 211.927 135.822 207.964C139.238 204.873 142.021 204.496 144.906 204.091C146.857 203.818 148.853 203.533 151.128 202.386C153.957 200.966 158.849 196.729 156.808 190.696C150.957 173.434 137.265 187.314 128.426 176.479C120.653 166.95 124.052 143.985 109.379 141.202C106.168 140.592 103.562 140.66 101.298 141.259C91.5064 143.871 88.2901 156.514 71.2961 167.777Z" fill="#F9D797"/>
</mask>
<g mask="url(#mask0)">
<path d="M123.761 241.262C135.389 241.171 138.719 228.579 137.231 224.16C135.006 217.545 131.442 211.933 135.816 207.97C141.53 202.792 145.482 205.227 151.122 202.393C153.945 200.973 158.844 196.73 156.802 190.702C150.951 173.44 137.259 187.32 128.42 176.485C120.647 166.956 124.046 143.991 109.373 141.208C92.2591 137.964 92.2135 153.914 71.2961 167.783C61.5045 174.273 44.6759 166.055 39.1785 187.075C36.8005 196.165 47.5273 207.639 56.4349 207.525C61.0369 207.468 65.0858 208.118 73.9364 202.415C83.3173 196.365 92.2534 195.92 98.5663 199.952C104.206 203.556 106.39 209.179 106.989 215.041C107.491 219.963 106.128 223.373 107.554 229.463C109.185 236.438 113.804 241.342 123.761 241.262Z" fill="#F9D797"/>
<path d="M145.26 225.089C150.113 215.491 145.568 207.456 139.118 202.797C131.978 197.636 123.156 196.119 119.415 188.266C115.446 179.935 123.458 173.656 121.77 158.053C120.852 149.596 116.307 139.514 106.168 139.195C98.5205 138.955 90.5995 145.445 89.3221 154.866C87.5485 167.959 96.0398 183.351 80.9505 190.621C67.3895 197.157 63.4376 187.588 56.275 180.693C51.0114 175.629 42.8794 172.418 34.5079 175.469C22.9884 179.667 21.0951 188.831 20.9298 196.775C20.8385 201.206 22.1501 205.009 20.5477 207.952C18.4092 211.864 11.0185 214.299 6.51907 219.175C1.57484 224.53 -0.113154 232.473 6.86123 240.075C12.3643 246.074 24.1575 243.793 27.0145 238.262C30.8296 230.888 25.4349 220.977 38.4598 214.881C54.2848 207.467 54.4387 223.018 72.9953 218.656C80.4259 216.911 83.0377 205.243 94.272 208.659C97.3572 209.6 102.604 213.455 106.875 218.228C111.591 223.497 115.503 229.788 122.637 232.382C131.465 235.599 140.401 234.692 145.26 225.089Z" fill="#F9D797"/>
<path d="M84.5205 148.347C93.0973 142 105.193 143.802 111.545 152.374C117.893 160.95 116.091 173.046 107.519 179.399C98.9426 185.751 86.8472 183.944 80.4944 175.372C74.1416 166.796 75.9436 154.695 84.5205 148.347Z" fill="#F9D797"/>
<path d="M213.578 135.899C211.366 124.687 201.625 121.015 194.166 121.71C183.713 122.686 177.355 129.54 165.499 124.22C155.799 119.863 158.165 107.87 153.757 98.8826C150.21 91.6516 143.099 87.4088 135.115 91.5033C126.983 95.6777 124.246 106.102 128.899 114.24C132.537 120.61 140.972 124.921 139.854 130.909C138.531 138.014 133.997 141.539 130.553 146.802C127.388 151.644 125.244 158.196 125.055 164.857C124.879 171.044 127.291 175.943 131.625 179.941C137.031 184.925 144.005 186.715 143.84 194.152C143.635 203.139 135.548 202.158 133.809 211.402C133.279 214.219 134.528 218.035 136.603 220.578C138.782 223.247 142.5 224.872 146.389 226.543C151.214 228.613 159.534 227.786 164.022 222.254C180.457 201.993 166.451 185.638 176.243 170.457C182.886 160.158 192.912 161.395 202.219 157.204C210.356 153.526 215.477 145.519 213.578 135.899Z" fill="#F9D797"/>
<path d="M136.181 138.328C137.966 127.037 130.079 120.239 122.837 118.323C112.686 115.643 104.355 119.891 95.0536 110.812C87.4462 103.388 93.7933 92.9345 92.744 82.9833C91.9 74.971 86.6877 68.5441 77.7745 69.639C68.7015 70.7567 62.5483 79.6073 64.1108 88.8514C65.3369 96.0824 71.7695 103.034 68.6616 108.269C64.9719 114.485 59.503 116.236 54.4619 119.994C49.8256 123.45 45.5543 128.861 43.085 135.055C40.7925 140.803 41.3685 146.232 44.0659 151.478C47.4248 158.019 53.3613 162.097 50.6411 169.025C47.3563 177.397 40.1025 173.69 35.2894 181.771C33.8239 184.235 33.6813 188.249 34.7534 191.346C35.8768 194.602 38.808 197.408 41.8875 200.31C45.7025 203.914 53.8004 206.002 59.9193 202.352C82.3195 188.985 74.7977 168.803 89.214 157.922C98.9999 150.537 107.982 155.151 118.167 154.415C127.086 153.771 134.653 148.011 136.181 138.328Z" fill="#F9D797"/>
</g>
<path d="M176.448 172.898L185.92 182.415L189.559 175.795L176.448 172.898Z" fill="#FFBA53"/>
<path d="M177.377 160.7L189.695 155.362L184.865 149.557L177.377 160.7Z" fill="#FFBA53"/>
<path d="M180.936 166.351L197.838 166.83L195.42 157.632L180.936 166.351Z" fill="#FFBA53"/>
<path d="M95.5324 158.629C95.4753 162.291 94.8937 169.042 91.1983 176.405C89.727 179.342 86.1058 186.544 78.6239 191.146C68.5302 197.356 61.8352 192.401 52.1749 197.214C47.3846 199.603 41.4253 204.61 37 216.289C58.9668 223.081 80.9392 229.873 102.906 236.671C107.331 224.992 113.291 219.979 118.081 217.595C127.741 212.782 134.436 217.732 144.53 211.528C152.012 206.925 155.627 199.723 157.104 196.786C160.8 189.424 161.387 182.672 161.438 179.011C139.472 172.213 117.499 165.421 95.5324 158.629Z" fill="#FFB953"/>
<path d="M161.826 179.005C159.853 192.68 154.201 201.041 150.985 205.021C148.829 207.69 146.936 209.994 143.611 211.961C135.194 216.934 128.442 213.33 121.063 215.428C115.828 216.923 109.019 221.644 103.288 236.677C81.321 229.885 59.3486 223.093 37.3818 216.295" stroke="#0A0A0A" stroke-width="2.281" stroke-miterlimit="10"/>
<path d="M104.594 172.938L138.85 184.212" stroke="#0A0A0A" stroke-width="2.281" stroke-miterlimit="10"/>
<path d="M98.5264 180.745L133.21 192.447" stroke="#0A0A0A" stroke-width="2.281" stroke-miterlimit="10"/>
<path d="M92.0195 188.979L126.276 201.12" stroke="#0A0A0A" stroke-width="2.281" stroke-miterlimit="10"/>
<path d="M96.4904 210.838C100.779 211.881 103.031 216.05 101.52 220.15C100.009 224.25 95.2985 226.731 91.0044 225.688C86.7103 224.644 84.452 220.475 85.9689 216.375C87.4858 212.275 92.1962 209.794 96.4904 210.838Z" fill="#F53B4B"/>
<path d="M98.2812 218.417C98.2926 218.702 98.2412 218.981 98.1272 219.266C98.0131 219.551 97.8535 219.802 97.6368 220.025C97.4201 220.247 97.1805 220.424 96.9068 220.555C96.6388 220.686 96.348 220.772 96.0457 220.812C95.7378 220.852 95.4355 220.823 95.139 220.743C94.9451 220.692 94.774 220.618 94.6143 220.527C94.4547 220.435 94.3178 220.327 94.198 220.201L93.7361 221.348C93.7076 221.422 93.662 221.485 93.605 221.547C93.5479 221.599 93.4852 221.644 93.4168 221.678C93.3483 221.713 93.2742 221.736 93.1944 221.741C93.1145 221.753 93.0347 221.747 92.9549 221.724C92.875 221.701 92.8066 221.667 92.7496 221.621C92.6868 221.576 92.6469 221.525 92.6127 221.462C92.5785 221.399 92.5614 221.331 92.5557 221.262C92.5557 221.188 92.5671 221.12 92.6013 221.04L94.4033 216.552C94.4319 216.478 94.4775 216.409 94.5288 216.352C94.5858 216.301 94.6486 216.255 94.7227 216.221C94.7911 216.187 94.8653 216.164 94.9508 216.158C95.0249 216.147 95.1048 216.158 95.1846 216.181C95.293 216.21 95.3842 216.261 95.4469 216.335C95.5154 216.415 95.5553 216.5 95.5724 216.609C95.7777 216.557 95.9773 216.535 96.1826 216.54C96.3879 216.54 96.5875 216.569 96.7928 216.62C97.095 216.7 97.3516 216.831 97.574 217.014C97.7907 217.196 97.9618 217.401 98.0816 217.641C98.2013 217.88 98.2641 218.143 98.2812 218.417ZM96.7642 219.323C96.8669 219.221 96.941 219.095 96.9981 218.958C97.0551 218.821 97.0779 218.685 97.0722 218.553C97.0665 218.422 97.0323 218.297 96.9752 218.183C96.9182 218.069 96.8327 217.966 96.73 217.88C96.6217 217.801 96.5019 217.732 96.3537 217.692C96.2111 217.652 96.0628 217.647 95.9203 217.658C95.772 217.675 95.6351 217.715 95.504 217.784C95.3728 217.841 95.2587 217.926 95.1561 218.029C95.0534 218.131 94.9793 218.257 94.9223 218.394C94.8653 218.531 94.8424 218.667 94.8481 218.799C94.8538 218.93 94.8881 219.055 94.9451 219.175C95.0021 219.289 95.0877 219.392 95.1903 219.472C95.293 219.557 95.4184 219.62 95.5667 219.66C95.7093 219.7 95.8575 219.711 96.0001 219.694C96.1427 219.683 96.2852 219.637 96.4164 219.574C96.5475 219.511 96.6616 219.426 96.7642 219.323Z" fill="black"/>
<path d="M92.3673 219.055C92.3787 219.135 92.373 219.209 92.3559 219.278C92.3331 219.352 92.2989 219.415 92.2532 219.477C92.2076 219.54 92.1449 219.591 92.0822 219.631C92.008 219.677 91.9396 219.7 91.8541 219.723C91.7685 219.734 91.6944 219.734 91.6202 219.728C91.5917 219.723 91.5689 219.717 91.5461 219.711C91.5005 219.7 91.4549 219.677 91.4149 219.654C91.3579 219.62 91.3066 219.569 91.261 219.512C91.2211 219.455 91.1925 219.386 91.1811 219.318L90.8162 217.076L90.2915 216.934L89.6186 218.605C89.5901 218.679 89.5445 218.742 89.4874 218.804C89.4304 218.856 89.362 218.901 89.2936 218.936C89.2251 218.97 89.151 218.993 89.0711 218.998C88.9913 219.01 88.9115 219.004 88.8373 218.981C88.7575 218.958 88.6891 218.924 88.632 218.879C88.575 218.839 88.5294 218.782 88.4952 218.719C88.4667 218.656 88.4496 218.588 88.4438 218.519C88.4438 218.445 88.4553 218.377 88.4895 218.297L90.2915 213.809C90.32 213.735 90.3656 213.666 90.417 213.609C90.474 213.558 90.5367 213.512 90.6052 213.478C90.6793 213.444 90.7534 213.421 90.8333 213.415C90.9131 213.404 90.9929 213.415 91.0728 213.438L92.584 213.849C92.8292 213.917 93.0459 214.02 93.2284 214.168C93.4109 214.316 93.5535 214.487 93.6504 214.687C93.7473 214.881 93.8101 215.092 93.8215 215.326C93.8272 215.554 93.7873 215.788 93.6903 216.021C93.6219 216.187 93.5363 216.341 93.4223 216.483C93.3082 216.626 93.1828 216.746 93.0459 216.854C92.9033 216.957 92.7551 217.042 92.584 217.116C92.4129 217.185 92.2475 217.23 92.0708 217.253L92.3673 219.055ZM92.4186 215.885C92.4871 215.822 92.5327 215.748 92.5669 215.668C92.6011 215.588 92.6125 215.508 92.6011 215.423C92.5954 215.337 92.5783 215.263 92.5384 215.195C92.4985 215.126 92.4471 215.063 92.3787 215.006C92.3103 214.955 92.2361 214.921 92.1506 214.898L91.1982 214.636L90.7135 215.85L91.6659 216.113C91.7514 216.136 91.8369 216.141 91.9339 216.13C92.0251 216.118 92.1164 216.09 92.2019 216.05C92.2818 216.004 92.3559 215.953 92.4186 215.885Z" fill="black"/>
<path d="M131.054 197.271C129.566 197.579 129.126 198.161 128.972 198.537C128.328 200.139 131.003 202.746 133.341 204.023C136.375 205.682 140.669 206.11 141.536 204.576C141.895 203.943 141.604 203.093 141.325 202.512" fill="#FFFFFB"/>
<path d="M131.054 197.271C129.566 197.579 129.126 198.161 128.972 198.537C128.328 200.139 131.003 202.746 133.341 204.023C136.375 205.682 140.669 206.11 141.536 204.576C141.895 203.943 141.604 203.093 141.325 202.512" stroke="black" stroke-width="2.281" stroke-miterlimit="10"/>
<path d="M132.44 194.414C130.951 194.722 130.512 195.304 130.358 195.68C129.714 197.283 132.388 199.889 134.726 201.166C137.76 202.826 142.054 203.253 142.921 201.719C143.281 201.086 142.99 200.237 142.71 199.655" fill="#FFFFFB"/>
<path d="M132.44 194.414C130.951 194.722 130.512 195.304 130.358 195.68C129.714 197.283 132.388 199.889 134.726 201.166C137.76 202.826 142.054 203.253 142.921 201.719C143.281 201.086 142.99 200.237 142.71 199.655" stroke="black" stroke-width="2.281" stroke-miterlimit="10"/>
<path d="M134.036 191.466C132.548 191.774 132.109 192.355 131.955 192.732C131.311 194.334 133.985 196.94 136.323 198.218C139.357 199.877 143.651 200.305 144.518 198.771C144.877 198.138 144.586 197.288 144.307 196.707" fill="#FFFFFB"/>
<path d="M134.036 191.466C132.548 191.774 132.109 192.355 131.955 192.732C131.311 194.334 133.985 196.94 136.323 198.218C139.357 199.877 143.651 200.305 144.518 198.771C144.877 198.138 144.586 197.288 144.307 196.707" stroke="black" stroke-width="2.281" stroke-miterlimit="10"/>
<path d="M173.659 170.326C172.598 181.252 162.738 189.367 151.812 188.306C149.308 191.106 146.81 193.906 144.307 196.712C143.725 196.86 140.589 197.613 137.544 195.731C135.24 194.306 134.316 192.201 134.036 191.471C135.411 187.964 136.791 184.457 138.165 180.95C136.893 179.268 132.999 173.673 133.837 166.471C134.937 156.976 143.931 147.35 155.684 148.49C166.604 149.54 174.719 159.399 173.659 170.326Z" fill="#88C3BF"/>
<path d="M173.659 170.326C172.598 181.252 162.738 189.367 151.812 188.306C149.308 191.106 146.81 193.906 144.307 196.712C143.725 196.86 140.589 197.613 137.544 195.731C135.24 194.306 134.316 192.201 134.036 191.471C135.411 187.964 136.791 184.457 138.165 180.95C136.893 179.268 132.999 173.673 133.837 166.471C134.937 156.976 143.931 147.35 155.684 148.49C166.604 149.54 174.719 159.399 173.659 170.326Z" stroke="black" stroke-width="2.281" stroke-miterlimit="10"/>
<path d="M145.545 173.291C147.101 173.291 148.362 172.03 148.362 170.474C148.362 168.918 147.101 167.657 145.545 167.657C143.989 167.657 142.728 168.918 142.728 170.474C142.728 172.03 143.989 173.291 145.545 173.291Z" fill="#FFFFFB" stroke="black" stroke-width="2.281" stroke-miterlimit="10"/>
<path d="M154.036 170.936C155.592 170.936 156.853 169.675 156.853 168.119C156.853 166.563 155.592 165.302 154.036 165.302C152.48 165.302 151.219 166.563 151.219 168.119C151.219 169.675 152.48 170.936 154.036 170.936Z" fill="#FFFFFB" stroke="black" stroke-width="2.281" stroke-miterlimit="10"/>
<path d="M156.049 179.541C157.604 179.541 158.866 178.28 158.866 176.724C158.866 175.168 157.604 173.907 156.049 173.907C154.493 173.907 153.231 175.168 153.231 176.724C153.231 178.28 154.493 179.541 156.049 179.541Z" fill="#FFFFFB" stroke="black" stroke-width="2.281" stroke-miterlimit="10"/>
<path d="M144.649 173C144.758 176.354 144.872 179.701 144.98 183.054C148.077 181.828 151.173 180.608 154.27 179.382" stroke="black" stroke-width="2.281" stroke-miterlimit="10"/>
<path d="M152.496 170.714C147.5 178.794 142.505 186.881 137.509 194.961" stroke="black" stroke-width="2.281" stroke-miterlimit="10"/>
<path d="M158.546 153.223C159.966 153.697 163.702 155.157 166.479 159.006C170.351 164.372 169.381 170.274 169.182 171.392" stroke="black" stroke-width="2.281" stroke-miterlimit="10"/>
<path d="M168.065 174.723C167.956 175.407 167.665 176.593 166.816 177.796C166.257 178.589 165.641 179.125 165.173 179.473" stroke="black" stroke-width="2.281" stroke-miterlimit="10"/>
<path d="M47.8184 208.306C50.8522 207.005 53.886 205.705 56.9255 204.405C58.0091 206.355 59.0926 208.306 60.1761 210.256C64.0767 208.847 67.9831 207.439 71.8837 206.03C72.6422 207.764 73.4006 209.498 74.1591 211.231C78.2764 209.498 82.3994 207.764 86.5168 206.03" stroke="#0A0A0A" stroke-width="2.281" stroke-miterlimit="10"/>
<path d="M82.291 204.73C83.6996 205.164 85.1081 205.597 86.5167 206.03C86.0833 207.439 85.6499 208.848 85.2165 210.256" stroke="#0A0A0A" stroke-width="2.281" stroke-miterlimit="10"/>
<defs>
<linearGradient id="paint0_linear" x1="117" y1="-102" x2="296" y2="750" gradientUnits="userSpaceOnUse">
<stop stop-color="#3F0A3E"/>
<stop offset="1" stop-color="#11354F"/>
</linearGradient>
</defs>
</svg>
