<svg width="281" height="294" viewBox="0 0 281 294" fill="none" xmlns="http://www.w3.org/2000/svg">
<path d="M77.0739 10.3814L62.8146 3.74055C61.7651 3.25219 60.6288 3 59.4728 3H11.0095C6.58651 3 3 6.63868 3 11.126V282.789C3 287.276 6.58257 290.911 11.0055 290.911H269.994C274.417 290.911 278 287.276 278 282.789V19.248C278 14.7607 274.417 11.126 269.994 11.126H80.4118C79.2597 11.126 78.1194 10.8698 77.0739 10.3814Z" fill="white" stroke="#FFB953" stroke-width="5.6289" stroke-miterlimit="10"/>
<mask id="mask0" mask-type="alpha" maskUnits="userSpaceOnUse" x="50" y="47" width="181" height="200">
<path d="M198.882 112.575C196.65 105.951 197.656 98.7238 198.663 91.3224C200.621 76.9404 202.588 61.918 180.731 49.503C166.413 41.3788 142.15 54.3519 138.326 69.4749C136.35 77.288 133.413 83.8478 139.076 101.404C145.078 120.013 141.803 135.347 132.123 144.203C123.477 152.116 112.975 153.278 102.783 151.65C94.2195 150.278 89.0687 146.426 78.1175 146.087C65.5653 145.703 55.1905 151.311 50.8265 168.2C45.7305 187.925 65.5378 199.242 73.6894 198.721C85.894 197.943 97.0007 194.448 101.731 203.643C105.418 210.816 104.805 215.701 104.183 220.769C103.762 224.191 103.35 227.704 104.256 232.068C105.381 237.494 110.349 247.695 121.474 246.963C153.33 244.849 136.03 215.408 158.353 205.345C177.986 196.498 215.323 212.609 226.658 189.032C229.138 183.872 230.208 179.426 230.208 175.327C230.217 157.578 210.273 146.426 198.882 112.575Z" fill="#F9D797"/>
</mask>
<g mask="url(#mask0)">
<path d="M50.817 168.191C45.7211 187.916 65.5284 199.233 73.68 198.711C85.8846 197.934 96.9913 194.439 101.721 203.633C107.897 215.646 101.996 221.227 104.246 232.05C105.372 237.475 110.339 247.676 121.464 246.944C153.321 244.831 136.02 215.39 158.343 205.326C177.977 196.479 215.313 212.59 226.649 189.013C239.869 161.512 212.889 154.239 198.864 112.566C192.295 93.0602 213.804 68.2851 180.712 49.4934C166.404 41.3601 142.141 54.3423 138.307 69.4653C136.331 77.2785 133.395 83.8382 139.058 101.395C145.059 120.004 141.784 135.337 132.105 144.193C123.459 152.107 112.956 153.269 102.764 151.64C94.2009 150.268 89.0501 146.416 78.0989 146.078C65.565 145.694 55.181 151.311 50.817 168.191Z" fill="#F9D797"/>
<path d="M68.4837 211.877C82.5364 224.429 98.1901 220.358 108.986 211.548C120.943 201.795 127.494 187.55 142.471 184.76C158.371 181.805 165.37 198.199 192.542 202.39C207.272 204.658 226.384 201.511 231.507 184.494C235.368 171.659 227.957 155.328 212.587 148.915C191.225 140.004 161.345 147.423 155.846 118.604C150.906 92.704 168.883 90.3344 183.796 81.3228C194.747 74.7082 203.841 62.3847 202.469 46.8408C200.566 25.4508 185.909 18.1042 172.543 14.2434C165.086 12.0934 158.051 12.5966 153.797 8.54369C148.143 3.15501 147.356 -10.4493 141.135 -20.266C134.31 -31.0525 121.629 -37.5025 105.61 -29.1313C92.9661 -22.5258 91.5022 -1.53835 99.5715 5.79903C110.331 15.5883 129.534 10.9315 133.98 35.7249C139.378 65.8613 112.993 59.1003 111.996 92.4753C111.593 105.833 130.165 115.53 119.306 132.996C116.323 137.79 107.421 144.935 97.4124 150.003C86.3697 155.602 73.9547 159.39 66.3429 170.286C56.9196 183.79 54.4219 199.325 68.4837 211.877Z" fill="#F9D797"/>
<path d="M225.798 143.727C232.669 161.11 224.161 180.771 206.778 187.651C189.395 194.522 169.734 186.013 162.854 168.63C155.974 151.247 164.492 131.587 181.875 124.707C199.257 117.836 218.928 126.353 225.798 143.727Z" fill="#F9D797"/>
<path d="M188.59 367.792C208.571 369.118 219.184 354.279 221.37 341.342C224.444 323.209 215.707 309.349 230.071 291.682C241.818 277.236 261.058 286.65 278.249 283.247C292.091 280.511 302.484 270.393 299.154 255.023C295.76 239.369 279.346 230.037 263.482 234.227C251.058 237.512 239.952 249.835 230.327 245.243C218.9 239.79 214.975 230.531 207.629 222.325C200.868 214.777 190.74 208.19 179.551 204.86C169.158 201.767 159.78 203.634 151.052 209.169C140.174 216.067 133.999 227.073 121.483 223.423C106.36 219.022 111.675 205.774 96.8177 198.657C92.2891 196.488 85.2627 196.882 80.0296 199.242C74.5311 201.722 70.1031 207.284 65.5195 213.112C59.8381 220.339 57.4777 234.795 64.8151 244.886C91.6852 281.847 125.701 265.535 146.963 288.956C161.399 304.857 154.776 321.26 157.667 338.909C160.21 354.37 171.454 366.657 188.59 367.792Z" fill="#F9D797"/>
<path d="M219.431 235.691C237.737 243.806 252.806 233.532 259.31 222.142C268.432 206.168 265.001 190.148 284.57 178.511C300.572 168.987 315.393 184.449 332.712 187.175C346.655 189.371 359.893 183.451 362.052 167.871C364.257 152.007 352.052 137.597 335.713 136.069C322.922 134.88 308.248 142.629 300.791 134.999C291.944 125.951 291.441 115.905 287.361 105.668C283.61 96.2536 276.373 86.5833 267.014 79.6118C258.313 73.1345 248.872 71.6615 238.771 73.8572C226.182 76.5927 216.604 84.7992 206.101 77.0685C193.42 67.7275 202.963 57.124 191.463 45.3311C187.959 41.7356 181.225 39.6862 175.498 40.1071C169.478 40.5462 163.412 44.2332 157.099 48.1306C149.277 52.9612 142.086 65.7239 145.508 77.7272C158.024 121.678 195.57 118.064 207.482 147.377C215.561 167.276 203.704 180.396 200.346 197.961C197.4 213.331 203.731 228.729 219.431 235.691Z" fill="#F9D797"/>
</g>
<path d="M112.718 71.085C113.496 70.0421 117.073 68.8344 124.219 66.4283C130.431 64.3332 132.818 64.077 133.953 63.9947C134.776 63.9306 138.674 63.6836 144.008 65.1383C151.354 67.151 168.847 74.4518 191.335 85.5585C192.103 85.7781 194.482 86.5557 195.827 88.8247C197.528 91.6974 196.906 95.7869 194.116 98.7694C188.828 101.359 183.54 103.957 178.261 106.546C178.261 113.069 178.261 119.592 178.261 126.115C173 127.662 167.73 129.217 162.47 130.763C118.491 88.66 109.992 74.7263 112.718 71.085Z" fill="white"/>
<path d="M138.482 205.198C159.804 205.198 177.09 187.913 177.09 166.59C177.09 145.267 159.804 127.982 138.482 127.982C117.159 127.982 99.8734 145.267 99.8734 166.59C99.8734 187.913 117.159 205.198 138.482 205.198Z" fill="white"/>
<path d="M163.485 178.364C159.14 187.98 149.177 195.638 137.741 195.665C123.359 195.692 109.077 183.662 109.077 167.276C109.077 151.147 123.002 138.887 137.741 138.887C149.515 138.887 160.494 146.709 165.032 158.585C165.754 161.412 167.429 169.618 163.485 178.364Z" fill="#88C3BF"/>
<path d="M165.032 158.576C165.123 156.416 165.224 154.266 165.315 152.107C164.538 150.461 165.407 148.539 166.944 148.036C168.389 147.56 170.118 148.429 170.603 150.067C170.603 153.05 170.603 156.041 170.603 159.024C171.692 165.465 172.772 171.915 173.86 178.355C172.534 178.676 170.548 178.987 168.16 178.758C165.333 178.493 163.165 177.596 161.848 176.928C162.918 170.817 163.97 164.696 165.032 158.576Z" fill="#F53B4B"/>
<path d="M134.511 161.768C134.31 162.4 134.044 162.994 133.697 163.534C133.349 164.074 132.928 164.559 132.425 164.98C131.931 165.41 131.382 165.757 130.797 166.032L134.465 172.518C134.621 172.793 134.712 173.076 134.731 173.36C134.758 173.644 134.731 173.927 134.648 174.202C134.575 174.476 134.438 174.732 134.255 174.961C134.072 175.19 133.843 175.373 133.578 175.519C133.303 175.666 133.02 175.757 132.736 175.785C132.453 175.821 132.169 175.803 131.904 175.72C131.638 175.647 131.382 175.519 131.153 175.345C130.925 175.172 130.733 174.952 130.577 174.687L126.067 166.691H123.999V173.616C123.999 173.927 123.935 174.22 123.816 174.476C123.697 174.742 123.542 174.97 123.34 175.172C123.139 175.373 122.901 175.528 122.627 175.638C122.352 175.748 122.059 175.812 121.767 175.812C121.456 175.812 121.163 175.757 120.898 175.638C120.632 175.519 120.394 175.373 120.184 175.172C119.983 174.97 119.818 174.742 119.708 174.476C119.589 174.211 119.534 173.927 119.534 173.616V154.989C119.534 154.678 119.589 154.395 119.708 154.129C119.818 153.864 119.983 153.635 120.184 153.434C120.385 153.233 120.623 153.077 120.898 152.967C121.163 152.858 121.456 152.793 121.767 152.793H127.759C128.729 152.793 129.644 152.976 130.504 153.342C131.364 153.708 132.114 154.202 132.754 154.834C133.395 155.465 133.898 156.197 134.264 157.048C134.63 157.889 134.813 158.804 134.813 159.774C134.804 160.469 134.703 161.137 134.511 161.768ZM123.999 157.203V162.235H127.777C128.116 162.235 128.436 162.162 128.747 162.016C129.058 161.869 129.333 161.677 129.562 161.439C129.799 161.201 129.982 160.927 130.129 160.616C130.275 160.305 130.348 159.984 130.348 159.646C130.348 159.307 130.275 158.996 130.129 158.694C129.982 158.393 129.799 158.136 129.562 157.908C129.324 157.688 129.058 157.514 128.747 157.386C128.436 157.258 128.116 157.194 127.777 157.194H123.999V157.203Z" fill="black"/>
<path d="M144.556 175.739C143.87 175.556 143.221 175.3 142.608 174.943V179.691C142.608 180.002 142.544 180.286 142.425 180.551C142.306 180.816 142.141 181.045 141.949 181.247C141.748 181.448 141.51 181.603 141.235 181.713C140.961 181.823 140.668 181.887 140.375 181.887C140.064 181.887 139.772 181.832 139.506 181.713C139.241 181.594 139.003 181.448 138.793 181.247C138.582 181.045 138.427 180.816 138.317 180.551C138.198 180.286 138.143 180.002 138.143 179.691V161.064C138.143 160.753 138.198 160.469 138.317 160.204C138.427 159.939 138.591 159.71 138.793 159.509C138.994 159.308 139.232 159.152 139.506 159.042C139.781 158.932 140.064 158.868 140.375 158.868C140.805 158.868 141.199 158.978 141.556 159.198C141.912 159.417 142.178 159.71 142.37 160.067C143.019 159.683 143.706 159.39 144.438 159.179C145.169 158.969 145.929 158.868 146.725 158.868C147.914 158.868 149.021 159.097 150.055 159.545C151.089 159.994 151.994 160.607 152.772 161.384C153.541 162.162 154.154 163.068 154.602 164.111C155.05 165.145 155.279 166.261 155.279 167.45C155.279 168.621 155.05 169.728 154.602 170.771C154.154 171.814 153.541 172.72 152.772 173.497C152.004 174.275 151.098 174.879 150.055 175.327C149.021 175.775 147.905 176.004 146.725 176.004C145.965 176.004 145.243 175.913 144.556 175.739ZM142.946 169.042C143.166 169.536 143.459 169.975 143.825 170.341C144.2 170.716 144.63 171 145.124 171.21C145.618 171.421 146.148 171.521 146.716 171.521C147.292 171.521 147.823 171.421 148.326 171.21C148.82 171 149.259 170.707 149.616 170.341C149.982 169.966 150.275 169.536 150.485 169.042C150.705 168.548 150.805 168.017 150.805 167.45C150.805 166.874 150.695 166.343 150.485 165.849C150.265 165.355 149.982 164.925 149.616 164.559C149.25 164.184 148.82 163.9 148.326 163.69C147.832 163.479 147.292 163.379 146.716 163.379C146.148 163.379 145.618 163.479 145.124 163.69C144.63 163.9 144.191 164.193 143.825 164.559C143.449 164.934 143.157 165.364 142.946 165.849C142.727 166.343 142.626 166.874 142.626 167.45C142.626 168.008 142.727 168.539 142.946 169.042Z" fill="black"/>
<path d="M77.1934 91.8622C77.4954 89.2364 79.3892 86.876 82.0789 85.7599C96.4609 79.7857 110.843 73.8206 125.225 67.8464C127.503 67.2792 131.437 66.6205 136.213 67.4439C140.22 68.13 143.276 69.5939 145.169 70.7009C159.012 76.6751 172.845 82.6401 186.687 88.6143C190.292 90.0324 192.551 93.1887 192.387 96.3451C192.268 98.5957 190.941 100.197 190.356 100.819C185.068 103.664 179.77 106.519 174.482 109.364C174.482 115.878 174.482 122.392 174.482 128.906C165.315 133.087 156.148 137.259 146.99 141.44C144.492 142.126 141.089 142.785 137.036 142.748C134.191 142.721 131.721 142.364 129.708 141.934C118.583 137.048 107.458 132.163 96.3328 127.277C96.4243 120.59 96.5158 113.902 96.6073 107.205C91.365 104.533 86.1136 101.862 80.8713 99.1904C79.7551 98.2023 76.8 95.293 77.1934 91.8622Z" fill="#F53B4B"/>
<path d="M164.217 158.64C163.037 164.669 161.848 170.698 160.668 176.727C162.461 177.386 165.37 178.2 169.011 178.154C172.342 178.108 175.022 177.358 176.742 176.727C175.544 170.698 174.345 164.669 173.137 158.64" stroke="black" stroke-width="2.281" stroke-miterlimit="10"/>
<path d="M95.235 107.434C95.235 111.523 95.235 122.026 95.235 126.116C103.899 130.324 112.965 134.606 123.011 139.244C126.753 140.973 130.998 142.876 136.752 142.876C142.498 142.876 146.752 140.973 150.494 139.244C160.539 134.606 169.606 130.324 178.27 126.116C178.27 121.733 178.27 110.938 178.27 106.546" stroke="black" stroke-width="2.281" stroke-miterlimit="10"/>
<path d="M81.4934 99.5564C98.9037 108.422 113.103 115.375 123.011 120.315C125.463 121.541 130.284 123.947 136.752 123.947C139.232 123.947 144.685 123.618 150.494 120.315C164.437 113.399 178.38 106.473 192.313 99.5564C194.93 98.2298 196.577 95.5217 196.559 92.5941C196.54 89.7122 194.893 87.0682 192.313 85.7599C178.371 80.8744 164.428 72.5032 150.494 67.6177C148.17 66.4009 143.294 64.2327 136.752 64.2327C130.22 64.2327 125.335 66.4009 123.011 67.6177C109.169 72.5032 95.3356 80.8744 81.4934 85.7599C78.886 87.0407 77.2117 89.6939 77.1934 92.5941C77.166 95.54 78.8494 98.2572 81.4934 99.5564Z" stroke="black" stroke-width="2.281" stroke-miterlimit="10"/>
<path d="M131.867 90.8191C144.181 96.8024 156.496 102.777 168.801 108.76C168.81 118.531 168.819 136.014 168.828 145.785" stroke="black" stroke-width="2.281" stroke-miterlimit="10"/>
<path d="M173.137 158.64H164.217V150.241C164.217 147.78 166.212 145.776 168.682 145.776C171.143 145.776 173.147 147.771 173.147 150.241V158.64H173.137Z" stroke="black" stroke-width="2.281" stroke-miterlimit="10"/>
<path d="M166.834 166.16C166.633 169.819 166.431 173.488 166.221 177.148" stroke="black" stroke-width="2.281" stroke-miterlimit="10"/>
<path d="M171.143 165.995C171.417 169.792 171.683 173.589 171.957 177.395" stroke="black" stroke-width="2.281" stroke-miterlimit="10"/>
<path d="M115.454 136.435C112.307 138.677 105.637 144.102 102.023 153.535C95.1435 171.494 105.61 187.33 106.296 188.337C116.616 203.368 133.596 204.667 136.213 204.823C152.461 205.784 163.421 196.324 165.516 194.439" stroke="black" stroke-width="2.281" stroke-miterlimit="10" stroke-linecap="round" stroke-linejoin="round"/>
<path d="M125.225 140.305C123.917 140.918 111.026 147.24 108.537 161.467C106.36 173.891 113.377 185.107 121.968 190.77C129.598 195.802 137.521 195.821 140.696 195.656" stroke="black" stroke-width="2.281" stroke-miterlimit="10" stroke-linecap="round" stroke-linejoin="round"/>
<path d="M169.999 189.956C170.475 189.553 171.079 188.959 171.628 188.126C172.406 186.937 172.717 185.793 172.845 185.071" stroke="black" stroke-width="2.281" stroke-miterlimit="10" stroke-linecap="round" stroke-linejoin="round"/>
<path d="M150.869 192.399C152.223 191.795 154.08 190.789 155.956 189.142C158.124 187.239 159.451 185.244 160.228 183.854" stroke="black" stroke-width="2.281" stroke-miterlimit="10" stroke-linecap="round" stroke-linejoin="round"/>
<path d="M87.5866 156.855L62.2168 145.749L60.2315 161.201L87.5866 156.855Z" fill="#FFBA53"/>
<path d="M90.6239 162.537L68.8588 168.731L75.6473 179.499L90.6239 162.537Z" fill="#FFBA53"/>
<path d="M94.8691 150.662L86.8547 134.112L79.1879 141.056L94.8691 150.662Z" fill="#FFBA53"/>
<path d="M186.211 191.768L208.891 207.65L213.877 192.893L186.211 191.768Z" fill="#FFBA53"/>
<path d="M184.345 185.601L206.906 183.817L202.368 171.915L184.345 185.601Z" fill="#FFBA53"/>
<path d="M177.849 196.406L182.442 214.21L191.325 208.912L177.849 196.406Z" fill="#FFBA53"/>
</svg>
