<svg width="281" height="294" viewBox="0 0 281 294" fill="none" xmlns="http://www.w3.org/2000/svg">
<path d="M77.0739 10.3814L62.8146 3.74055C61.7651 3.25219 60.6288 3 59.4728 3H11.0095C6.58651 3 3 6.63868 3 11.126V282.789C3 287.276 6.58257 290.911 11.0055 290.911H269.994C274.417 290.911 278 287.276 278 282.789V19.248C278 14.7607 274.417 11.126 269.994 11.126H80.4118C79.2597 11.126 78.1194 10.8698 77.0739 10.3814Z" fill="white" stroke="#FFB953" stroke-width="5.6289" stroke-miterlimit="10"/>
<path d="M145.379 182.407C162.674 182.407 176.695 168.386 176.695 151.091C176.695 133.795 162.674 119.774 145.379 119.774C128.084 119.774 114.063 133.795 114.063 151.091C114.063 168.386 128.084 182.407 145.379 182.407Z" fill="#FFB953"/>
<path d="M144.368 146.271C144.196 146.809 143.968 147.307 143.675 147.763C143.381 148.22 143.022 148.628 142.598 148.995C142.174 149.354 141.717 149.655 141.22 149.884L144.335 155.389C144.466 155.625 144.547 155.862 144.563 156.106C144.58 156.351 144.563 156.587 144.498 156.824C144.433 157.06 144.319 157.272 144.164 157.468C144.009 157.664 143.813 157.819 143.593 157.941C143.356 158.063 143.12 158.137 142.875 158.169C142.631 158.202 142.394 158.186 142.166 158.112C141.937 158.047 141.725 157.941 141.53 157.794C141.334 157.648 141.171 157.46 141.04 157.24L137.216 150.446H135.462V156.318C135.462 156.579 135.413 156.824 135.307 157.052C135.209 157.272 135.071 157.468 134.899 157.639C134.728 157.811 134.532 157.941 134.296 158.039C134.059 158.137 133.815 158.186 133.562 158.186C133.293 158.186 133.048 158.137 132.82 158.039C132.592 157.941 132.388 157.811 132.216 157.639C132.045 157.468 131.906 157.272 131.809 157.052C131.711 156.832 131.662 156.587 131.662 156.318V140.513C131.662 140.252 131.711 140.008 131.809 139.779C131.906 139.559 132.037 139.355 132.216 139.192C132.388 139.029 132.592 138.89 132.82 138.793C133.048 138.695 133.293 138.646 133.562 138.646H138.635C139.458 138.646 140.233 138.801 140.959 139.111C141.685 139.421 142.321 139.845 142.867 140.375C143.414 140.913 143.838 141.533 144.148 142.25C144.457 142.968 144.612 143.735 144.612 144.558C144.621 145.17 144.539 145.733 144.368 146.271ZM135.454 142.397V146.671H138.659C138.944 146.671 139.222 146.613 139.483 146.491C139.744 146.369 139.98 146.206 140.176 146.002C140.372 145.798 140.535 145.561 140.657 145.3C140.779 145.039 140.836 144.762 140.836 144.477C140.836 144.191 140.779 143.922 140.657 143.669C140.535 143.417 140.372 143.196 140.176 143.009C139.98 142.821 139.744 142.674 139.483 142.568C139.214 142.462 138.944 142.405 138.659 142.405H135.454V142.397Z" fill="black"/>
<path d="M152.898 158.129C152.311 157.974 151.765 157.754 151.243 157.46V161.489C151.243 161.75 151.194 161.994 151.088 162.223C150.982 162.443 150.851 162.639 150.68 162.81C150.509 162.981 150.313 163.112 150.076 163.209C149.84 163.307 149.595 163.356 149.342 163.356C149.073 163.356 148.829 163.307 148.6 163.209C148.372 163.112 148.168 162.981 147.997 162.81C147.826 162.639 147.687 162.443 147.589 162.223C147.491 161.994 147.442 161.758 147.442 161.489V145.684C147.442 145.423 147.491 145.178 147.589 144.95C147.687 144.73 147.817 144.526 147.997 144.363C148.168 144.199 148.372 144.061 148.6 143.963C148.829 143.865 149.073 143.816 149.342 143.816C149.709 143.816 150.044 143.914 150.337 144.102C150.639 144.289 150.867 144.534 151.031 144.844C151.577 144.518 152.164 144.265 152.784 144.085C153.404 143.906 154.048 143.816 154.725 143.816C155.728 143.816 156.674 144.004 157.555 144.387C158.436 144.77 159.202 145.292 159.855 145.953C160.507 146.613 161.029 147.38 161.412 148.261C161.796 149.142 161.983 150.088 161.983 151.091C161.983 152.086 161.796 153.032 161.412 153.912C161.029 154.801 160.515 155.568 159.855 156.22C159.202 156.873 158.427 157.395 157.555 157.778C156.674 158.161 155.728 158.349 154.725 158.349C154.097 158.357 153.477 158.275 152.898 158.129ZM151.528 152.444C151.707 152.869 151.96 153.236 152.278 153.554C152.596 153.872 152.963 154.116 153.387 154.296C153.812 154.475 154.26 154.565 154.741 154.565C155.231 154.565 155.687 154.475 156.103 154.296C156.519 154.116 156.894 153.872 157.204 153.554C157.514 153.236 157.759 152.869 157.946 152.444C158.126 152.02 158.224 151.572 158.224 151.091C158.224 150.601 158.134 150.153 157.946 149.729C157.767 149.313 157.514 148.946 157.204 148.628C156.894 148.31 156.527 148.065 156.103 147.886C155.679 147.706 155.222 147.617 154.741 147.617C154.26 147.617 153.812 147.706 153.387 147.886C152.963 148.065 152.596 148.31 152.278 148.628C151.96 148.946 151.716 149.313 151.528 149.729C151.349 150.145 151.251 150.601 151.251 151.091C151.259 151.572 151.349 152.02 151.528 152.444Z" fill="black"/>
<path d="M144.792 103.097C118.385 103.097 96.9856 124.505 96.9856 150.903C96.9856 177.302 118.393 198.709 144.792 198.709C171.19 198.709 192.598 177.302 192.598 150.903C192.598 124.505 171.199 103.097 144.792 103.097ZM144.792 182.448C127.372 182.448 113.247 168.323 113.247 150.903C113.247 133.483 127.372 119.359 144.792 119.359C162.211 119.359 176.336 133.483 176.336 150.903C176.336 168.323 162.211 182.448 144.792 182.448Z" fill="#F53B4B"/>
<path d="M144.792 92.96C112.791 92.96 86.8486 118.902 86.8486 150.903C86.8486 182.905 112.791 208.846 144.792 208.846C176.793 208.846 202.735 182.905 202.735 150.903C202.735 118.902 176.793 92.96 144.792 92.96ZM144.792 195.162C120.35 195.162 100.533 175.345 100.533 150.903C100.533 126.462 120.35 106.645 144.792 106.645C169.233 106.645 189.05 126.462 189.05 150.903C189.05 175.345 169.233 195.162 144.792 195.162Z" fill="#88C3BF"/>
<path d="M144.792 78.3538C104.725 78.3538 72.2425 110.836 72.2425 150.903C72.2425 190.97 104.725 223.452 144.792 223.452C184.859 223.452 217.341 190.97 217.341 150.903C217.341 110.836 184.859 78.3538 144.792 78.3538ZM144.792 207.941C113.296 207.941 87.7538 182.407 87.7538 150.903C87.7538 119.399 113.288 93.8651 144.792 93.8651C176.288 93.8651 201.83 119.399 201.83 150.903C201.83 182.407 176.296 207.941 144.792 207.941Z" fill="#F9D797"/>
<path d="M144.792 182.448C162.213 182.448 176.336 168.325 176.336 150.903C176.336 133.482 162.213 119.359 144.792 119.359C127.37 119.359 113.247 133.482 113.247 150.903C113.247 168.325 127.37 182.448 144.792 182.448Z" stroke="#0A0A0A" stroke-width="2.281" stroke-miterlimit="10"/>
<path d="M199.016 212.712C194.555 208.333 190.094 203.953 185.633 199.582C181.719 195.741 177.813 191.908 173.898 188.067C174.518 195.659 175.138 203.26 175.757 210.852C183.513 211.464 191.269 212.092 199.016 212.712Z" fill="#F9D797"/>
<path d="M117.79 187.439C100.859 173.24 95.5992 150.014 104.456 131.632C111.51 116.994 127.046 106.432 144.792 106.644C161.478 106.848 176.728 116.529 184.133 131.632" stroke="#0A0A0A" stroke-width="2.281" stroke-miterlimit="10"/>
<path d="M187.24 137.838C187.24 137.855 187.86 141.541 187.86 141.557C187.868 141.59 188.781 147.103 188.79 147.135" stroke="#0A0A0A" stroke-width="2.281" stroke-miterlimit="10"/>
<path d="M110.662 197.054C108.052 195.007 87.9088 178.655 87.762 150.903C87.7375 146.785 88.0556 123.958 106.943 107.452C127.584 89.4123 152.972 94.1342 155.932 94.7377" stroke="#0A0A0A" stroke-width="2.281" stroke-miterlimit="10"/>
<path d="M165.539 97.5349C169.82 99.378 175.399 102.347 181.042 107.142C184.549 110.127 187.297 113.152 189.409 115.819" stroke="#0A0A0A" stroke-width="2.281" stroke-miterlimit="10"/>
<path d="M65.3513 153.439L44.2454 138.948L39.76 152.632L65.3513 153.439Z" fill="#FFBA53"/>
<path d="M65.1555 163.381L45.7704 162.598L48.4209 173.192L65.1555 163.381Z" fill="#FFBA53"/>
<path d="M216.126 189.103L230.7 210.168L239.76 198.97L216.126 189.103Z" fill="#FFBA53"/>
<path d="M209.724 99.2721L232.257 90.7498L225.219 79.2183L209.724 99.2721Z" fill="#FFBA53"/>
<path d="M202.14 89.6163L216.053 75.9969L207.106 69.75L202.14 89.6163Z" fill="#FFBA53"/>
</svg>
