<svg width="281" height="294" viewBox="0 0 281 294" fill="none" xmlns="http://www.w3.org/2000/svg">
<path d="M77.0739 10.3814L62.8146 3.74055C61.7651 3.25219 60.6288 3 59.4728 3H11.0095C6.58651 3 3 6.63868 3 11.126V282.789C3 287.276 6.58257 290.911 11.0055 290.911H269.994C274.417 290.911 278 287.276 278 282.789V19.248C278 14.7607 274.417 11.126 269.994 11.126H80.4118C79.2597 11.126 78.1194 10.8698 77.0739 10.3814Z" fill="white" stroke="#FFB953" stroke-width="5.6289" stroke-miterlimit="10"/>
<mask id="mask0" mask-type="alpha" maskUnits="userSpaceOnUse" x="59" y="84" width="148" height="125">
<path d="M99.5984 117.575C95.4643 120.319 90.3232 120.95 85.0615 121.61C74.836 122.9 64.1779 124.297 59.6609 141.557C56.7038 152.861 70.0424 167.128 81.1188 166.986C86.8414 166.915 91.8761 167.724 102.882 160.632C114.547 153.109 125.659 152.556 133.509 157.569C140.522 162.051 143.238 169.043 143.982 176.332C144.606 182.452 142.911 186.693 144.684 194.273C146.712 202.953 152.463 209.044 164.845 208.945C179.303 208.831 183.445 193.174 181.594 187.678C178.828 179.453 174.396 172.475 179.835 167.546C184.083 163.703 187.543 163.235 191.132 162.731C193.557 162.391 196.039 162.037 198.868 160.611C202.385 158.846 208.47 153.577 205.931 146.074C198.655 124.609 181.629 141.869 170.638 128.396C160.973 116.547 165.199 87.9903 146.953 84.5298C142.961 83.771 139.72 83.8561 136.905 84.6007C124.73 87.8485 120.73 103.57 99.5984 117.575Z" fill="#F9D797"/>
</mask>
<g mask="url(#mask0)">
<path d="M164.837 208.952C179.296 208.839 183.438 193.181 181.587 187.686C178.821 179.46 174.389 172.482 179.828 167.554C186.934 161.115 191.848 164.143 198.861 160.619C202.371 158.853 208.462 153.577 205.924 146.082C198.648 124.617 181.622 141.877 170.631 128.403C160.966 116.554 165.192 87.9978 146.946 84.5373C125.666 80.5024 125.609 100.336 99.5984 117.582C87.4229 125.652 66.4968 115.434 59.6609 141.572C56.7038 152.875 70.0424 167.143 81.1188 167.001C86.8414 166.93 91.8761 167.738 102.882 160.647C114.547 153.123 125.659 152.57 133.509 157.584C140.522 162.065 143.238 169.057 143.982 176.347C144.606 182.467 142.911 186.707 144.684 194.281C146.712 202.953 152.456 209.052 164.837 208.952Z" fill="#F9D797"/>
<path d="M191.571 188.841C197.606 176.907 191.954 166.915 183.934 161.122C175.056 154.704 164.086 152.818 159.434 143.053C154.498 132.693 164.462 124.886 162.363 105.484C161.221 94.9679 155.569 82.4307 142.961 82.0336C133.452 81.7358 123.602 89.8056 122.014 101.52C119.808 117.802 130.367 136.941 111.604 145.982C94.741 154.109 89.8268 142.209 80.9203 133.636C74.3751 127.339 64.2631 123.347 53.8532 127.141C39.529 132.36 37.1747 143.755 36.9691 153.633C36.8556 159.143 38.4866 163.873 36.494 167.532C33.8348 172.397 24.6446 175.425 19.0496 181.488C12.9016 188.146 10.8026 198.024 19.4751 207.477C26.3181 214.937 40.9827 212.1 44.5354 205.222C49.2794 196.053 42.5711 183.728 58.7674 176.148C78.4455 166.929 78.6369 186.267 101.712 180.842C110.951 178.672 114.199 164.164 128.169 168.411C132.005 169.581 138.529 174.375 143.84 180.31C149.705 186.863 154.569 194.684 163.44 197.911C174.418 201.91 185.53 200.783 191.571 188.841Z" fill="#F9D797"/>
<path d="M116.043 93.4151C126.708 85.5226 141.749 87.7634 149.648 98.4215C157.541 109.087 155.3 124.127 144.642 132.027C133.977 139.926 118.936 137.678 111.037 127.02C103.137 116.355 105.378 101.308 116.043 93.4151Z" fill="#F9D797"/>
<path d="M276.524 77.9351C273.772 63.9938 261.661 59.4271 252.385 60.2922C239.387 61.5048 231.48 70.0284 216.738 63.4123C204.676 57.9947 207.619 43.0819 202.137 31.9062C197.726 22.9145 188.884 17.6387 178.956 22.7302C168.844 27.9209 165.44 40.8836 171.227 51.0027C175.751 58.9236 186.239 64.2845 184.849 71.7303C183.204 80.5659 177.566 84.9483 173.283 91.4934C169.347 97.5139 166.681 105.662 166.447 113.944C166.227 121.638 169.227 127.729 174.616 132.7C181.339 138.898 190.011 141.125 189.806 150.372C189.55 161.547 179.495 160.328 177.332 171.822C176.673 175.326 178.226 180.07 180.807 183.232C183.516 186.551 188.139 188.572 192.975 190.65C198.974 193.224 209.32 192.195 214.901 185.317C235.338 160.122 217.922 139.784 230.098 120.908C238.359 108.101 250.825 109.64 262.398 104.428C272.517 99.854 278.885 89.8979 276.524 77.9351Z" fill="#F9D797"/>
<path d="M180.282 80.9559C182.502 66.9153 172.694 58.4626 163.689 56.08C151.066 52.7471 140.706 58.0301 129.14 46.7409C119.681 37.5082 127.573 24.51 126.268 12.1359C125.219 2.17275 118.738 -5.81902 107.654 -4.45751C96.372 -3.06764 88.7206 7.93789 90.6636 19.4327C92.1882 28.4243 100.187 37.0685 96.3223 43.5782C91.7343 51.3076 84.9339 53.4846 78.6653 58.1577C72.9001 62.455 67.5888 69.1845 64.5184 76.8856C61.6677 84.0335 62.3839 90.7843 65.738 97.3082C69.9147 105.442 77.2967 110.512 73.9142 119.128C69.8297 129.538 60.8097 124.928 54.8247 134.977C53.0023 138.04 52.825 143.032 54.1581 146.883C55.5551 150.932 59.2 154.421 63.0292 158.03C67.7732 162.512 77.8427 165.107 85.4515 160.569C113.306 143.947 103.952 118.851 121.879 105.321C134.048 96.1382 145.216 101.875 157.881 100.96C168.972 100.159 178.382 92.9967 180.282 80.9559Z" fill="#F9D797"/>
</g>
<path d="M213.401 123.943L225.179 135.778L229.704 127.545L213.401 123.943Z" fill="#FFBA53"/>
<path d="M214.557 108.775L229.874 102.137L223.868 94.9185L214.557 108.775Z" fill="#FFBA53"/>
<path d="M218.982 115.802L240 116.398L236.993 104.959L218.982 115.802Z" fill="#FFBA53"/>
<path d="M112.784 106.2C112.713 110.753 111.99 119.149 107.395 128.304C105.565 131.956 101.062 140.912 91.7586 146.634C79.2072 154.357 70.8821 148.194 58.8697 154.179C52.9131 157.151 45.5028 163.377 40 177.899C67.3153 186.345 94.6376 194.791 121.953 203.243C127.456 188.721 134.866 182.488 140.823 179.523C152.835 173.538 161.16 179.694 173.712 171.978C183.015 166.256 187.511 157.3 189.348 153.648C193.943 144.493 194.673 136.097 194.737 131.544C167.422 123.092 140.099 114.646 112.784 106.2Z" fill="#FFB953"/>
<path d="M195.219 131.537C192.766 148.542 185.738 158.938 181.739 163.887C179.058 167.206 176.704 170.071 172.57 172.517C162.103 178.701 153.707 174.219 144.531 176.829C138.022 178.687 129.555 184.558 122.428 203.251C95.1127 194.805 67.7904 186.359 40.4751 177.907" stroke="#0A0A0A" stroke-width="2.281" stroke-miterlimit="10"/>
<path d="M124.052 123.992L166.649 138.011" stroke="#0A0A0A" stroke-width="2.281" stroke-miterlimit="10"/>
<path d="M116.507 133.7L159.636 148.251" stroke="#0A0A0A" stroke-width="2.281" stroke-miterlimit="10"/>
<path d="M108.416 143.94L151.013 159.037" stroke="#0A0A0A" stroke-width="2.281" stroke-miterlimit="10"/>
<path d="M113.975 171.12C119.308 172.418 122.109 177.602 120.23 182.7C118.351 187.799 112.493 190.884 107.154 189.586C101.814 188.288 99.0058 183.104 100.892 178.006C102.778 172.907 108.636 169.823 113.975 171.12Z" fill="#F53B4B"/>
<path d="M116.202 180.545C116.216 180.899 116.152 181.247 116.01 181.601C115.869 181.956 115.67 182.268 115.401 182.544C115.131 182.821 114.833 183.041 114.493 183.204C114.16 183.367 113.798 183.473 113.422 183.523C113.039 183.573 112.663 183.537 112.295 183.438C112.054 183.374 111.841 183.282 111.642 183.168C111.444 183.055 111.274 182.92 111.125 182.764L110.55 184.189C110.515 184.282 110.458 184.36 110.387 184.438C110.316 184.502 110.238 184.558 110.153 184.601C110.068 184.643 109.976 184.672 109.877 184.679C109.777 184.693 109.678 184.686 109.579 184.658C109.48 184.629 109.394 184.587 109.324 184.53C109.246 184.473 109.196 184.409 109.153 184.331C109.111 184.253 109.089 184.168 109.082 184.083C109.082 183.991 109.097 183.906 109.139 183.807L111.38 178.226C111.415 178.134 111.472 178.049 111.536 177.978C111.607 177.914 111.685 177.857 111.777 177.815C111.862 177.772 111.954 177.744 112.061 177.737C112.153 177.722 112.252 177.737 112.351 177.765C112.486 177.8 112.6 177.864 112.678 177.956C112.763 178.056 112.812 178.162 112.834 178.297C113.089 178.233 113.337 178.205 113.592 178.212C113.848 178.212 114.096 178.247 114.351 178.311C114.727 178.41 115.046 178.573 115.323 178.8C115.592 179.027 115.805 179.282 115.954 179.58C116.103 179.878 116.181 180.204 116.202 180.545ZM114.316 181.672C114.443 181.544 114.536 181.388 114.606 181.218C114.677 181.048 114.706 180.878 114.699 180.715C114.692 180.552 114.649 180.396 114.578 180.254C114.507 180.112 114.401 179.984 114.273 179.878C114.138 179.779 113.99 179.694 113.805 179.644C113.628 179.594 113.443 179.587 113.266 179.601C113.082 179.623 112.912 179.672 112.749 179.757C112.585 179.828 112.444 179.935 112.316 180.062C112.188 180.19 112.096 180.346 112.025 180.516C111.954 180.686 111.926 180.857 111.933 181.02C111.94 181.183 111.983 181.339 112.054 181.488C112.125 181.63 112.231 181.757 112.359 181.857C112.486 181.963 112.642 182.041 112.827 182.091C113.004 182.14 113.188 182.154 113.365 182.133C113.543 182.119 113.72 182.062 113.883 181.984C114.046 181.906 114.188 181.8 114.316 181.672Z" fill="black"/>
<path d="M108.848 181.339C108.863 181.438 108.855 181.53 108.834 181.615C108.806 181.708 108.763 181.786 108.707 181.864C108.65 181.942 108.572 182.005 108.494 182.055C108.402 182.112 108.317 182.14 108.21 182.169C108.104 182.183 108.012 182.183 107.919 182.176C107.884 182.168 107.856 182.161 107.827 182.154C107.771 182.14 107.714 182.112 107.664 182.083C107.593 182.041 107.529 181.977 107.473 181.906C107.423 181.835 107.388 181.75 107.373 181.665L106.92 178.878L106.267 178.701L105.43 180.779C105.395 180.871 105.338 180.949 105.267 181.027C105.196 181.091 105.111 181.147 105.026 181.19C104.941 181.232 104.849 181.261 104.75 181.268C104.65 181.282 104.551 181.275 104.459 181.247C104.36 181.218 104.275 181.176 104.204 181.119C104.133 181.069 104.076 180.998 104.033 180.92C103.998 180.842 103.977 180.757 103.97 180.672C103.97 180.58 103.984 180.495 104.026 180.396L106.267 174.815C106.303 174.723 106.359 174.638 106.423 174.567C106.494 174.503 106.572 174.446 106.657 174.404C106.749 174.361 106.842 174.333 106.941 174.326C107.04 174.311 107.139 174.326 107.239 174.354L109.118 174.865C109.423 174.95 109.692 175.077 109.919 175.262C110.146 175.446 110.323 175.659 110.444 175.907C110.564 176.148 110.642 176.41 110.657 176.701C110.664 176.985 110.614 177.276 110.494 177.566C110.408 177.772 110.302 177.963 110.16 178.141C110.018 178.318 109.862 178.467 109.692 178.602C109.515 178.729 109.331 178.836 109.118 178.928C108.905 179.013 108.699 179.07 108.48 179.098L108.848 181.339ZM108.912 177.396C108.997 177.318 109.054 177.226 109.097 177.127C109.139 177.027 109.153 176.928 109.139 176.822C109.132 176.715 109.111 176.623 109.061 176.538C109.011 176.453 108.948 176.375 108.863 176.304C108.777 176.24 108.685 176.198 108.579 176.169L107.395 175.843L106.792 177.354L107.976 177.68C108.083 177.708 108.189 177.715 108.309 177.701C108.423 177.687 108.536 177.651 108.643 177.602C108.742 177.545 108.834 177.481 108.912 177.396Z" fill="black"/>
<path d="M156.955 154.25C155.104 154.633 154.558 155.357 154.367 155.825C153.565 157.817 156.891 161.058 159.799 162.646C163.571 164.71 168.911 165.242 169.989 163.334C170.435 162.547 170.074 161.491 169.726 160.767" fill="#FFFFFB"/>
<path d="M156.955 154.25C155.104 154.633 154.558 155.357 154.367 155.825C153.565 157.817 156.891 161.058 159.799 162.646C163.571 164.71 168.911 165.242 169.989 163.334C170.435 162.547 170.074 161.491 169.726 160.767" stroke="black" stroke-width="2.281" stroke-miterlimit="10"/>
<path d="M158.678 150.698C156.827 151.081 156.281 151.804 156.09 152.272C155.289 154.265 158.614 157.505 161.522 159.094C165.294 161.157 170.634 161.689 171.712 159.782C172.159 158.994 171.797 157.938 171.449 157.215" fill="#FFFFFB"/>
<path d="M158.678 150.698C156.827 151.081 156.281 151.804 156.09 152.272C155.289 154.265 158.614 157.505 161.522 159.094C165.294 161.157 170.634 161.689 171.712 159.782C172.159 158.994 171.797 157.938 171.449 157.215" stroke="black" stroke-width="2.281" stroke-miterlimit="10"/>
<path d="M160.664 147.031C158.813 147.414 158.267 148.138 158.075 148.606C157.274 150.598 160.6 153.839 163.507 155.427C167.28 157.491 172.619 158.023 173.697 156.115C174.144 155.328 173.782 154.272 173.435 153.548" fill="#FFFFFB"/>
<path d="M160.664 147.031C158.813 147.414 158.267 148.138 158.075 148.606C157.274 150.598 160.6 153.839 163.507 155.427C167.28 157.491 172.619 158.023 173.697 156.115C174.144 155.328 173.782 154.272 173.435 153.548" stroke="black" stroke-width="2.281" stroke-miterlimit="10"/>
<path d="M209.933 120.744C208.614 134.331 196.354 144.422 182.767 143.103C179.654 146.585 176.548 150.067 173.435 153.555C172.712 153.74 168.812 154.676 165.025 152.336C162.16 150.563 161.011 147.946 160.664 147.039C162.373 142.678 164.089 138.316 165.798 133.955C164.216 131.863 159.373 124.907 160.416 115.951C161.784 104.144 172.967 92.1741 187.582 93.5923C201.162 94.8971 211.252 107.158 209.933 120.744Z" fill="#88C3BF"/>
<path d="M209.933 120.744C208.614 134.331 196.354 144.422 182.767 143.103C179.654 146.585 176.548 150.067 173.435 153.555C172.712 153.74 168.812 154.676 165.025 152.336C162.16 150.563 161.011 147.946 160.664 147.039C162.373 142.678 164.089 138.316 165.798 133.955C164.216 131.863 159.373 124.907 160.416 115.951C161.784 104.144 172.967 92.1741 187.582 93.5923C201.162 94.8971 211.252 107.158 209.933 120.744Z" stroke="black" stroke-width="2.281" stroke-miterlimit="10"/>
<path d="M174.974 124.432C176.908 124.432 178.477 122.864 178.477 120.929C178.477 118.994 176.908 117.426 174.974 117.426C173.039 117.426 171.471 118.994 171.471 120.929C171.471 122.864 173.039 124.432 174.974 124.432Z" fill="#FFFFFB" stroke="black" stroke-width="2.281" stroke-miterlimit="10"/>
<path d="M185.533 121.503C187.467 121.503 189.036 119.935 189.036 118C189.036 116.066 187.467 114.497 185.533 114.497C183.598 114.497 182.029 116.066 182.029 118C182.029 119.935 183.598 121.503 185.533 121.503Z" fill="#FFFFFB" stroke="black" stroke-width="2.281" stroke-miterlimit="10"/>
<path d="M188.036 132.204C189.97 132.204 191.539 130.635 191.539 128.701C191.539 126.766 189.97 125.198 188.036 125.198C186.101 125.198 184.533 126.766 184.533 128.701C184.533 130.635 186.101 132.204 188.036 132.204Z" fill="#FFFFFB" stroke="black" stroke-width="2.281" stroke-miterlimit="10"/>
<path d="M173.86 124.07C173.995 128.24 174.137 132.402 174.272 136.572C178.122 135.047 181.973 133.53 185.823 132.005" stroke="black" stroke-width="2.281" stroke-miterlimit="10"/>
<path d="M183.618 121.227C177.406 131.275 171.194 141.33 164.982 151.379" stroke="black" stroke-width="2.281" stroke-miterlimit="10"/>
<path d="M191.142 99.478C192.907 100.067 197.552 101.882 201.006 106.668C205.82 113.341 204.615 120.681 204.367 122.071" stroke="black" stroke-width="2.281" stroke-miterlimit="10"/>
<path d="M202.977 126.212C202.842 127.063 202.481 128.538 201.424 130.034C200.729 131.02 199.963 131.686 199.382 132.119" stroke="black" stroke-width="2.281" stroke-miterlimit="10"/>
<path d="M53.452 167.972C57.2245 166.355 60.997 164.738 64.7766 163.122C66.1239 165.547 67.4713 167.972 68.8186 170.397C73.669 168.646 78.5264 166.894 83.3768 165.143C84.3199 167.298 85.2631 169.454 86.2062 171.61C91.326 169.454 96.453 167.298 101.573 165.143" stroke="#0A0A0A" stroke-width="2.281" stroke-miterlimit="10"/>
<path d="M96.3182 163.526C98.0698 164.065 99.8213 164.603 101.573 165.142C101.034 166.894 100.495 168.645 99.956 170.397" stroke="#0A0A0A" stroke-width="2.281" stroke-miterlimit="10"/>
</svg>
