<svg width="281" height="294" viewBox="0 0 281 294" fill="none" xmlns="http://www.w3.org/2000/svg">
<path d="M77.0739 10.2923L62.8146 3.65143C61.7651 3.16307 60.6288 2.91089 59.4728 2.91089H11.0095C6.58651 2.91089 3 6.54957 3 11.0369V282.7C3 287.187 6.58257 290.822 11.0055 290.822H269.994C274.417 290.822 278 287.187 278 282.7V19.1588C278 14.6715 274.417 11.0369 269.994 11.0369H80.4118C79.2597 11.0369 78.1194 10.7807 77.0739 10.2923Z" fill="white" stroke="#FFB953" stroke-width="5.6289" stroke-miterlimit="10"/>
<mask id="mask0" mask-type="alpha" maskUnits="userSpaceOnUse" x="40" y="76" width="201" height="160">
<path d="M81.9424 144.956C77.8739 150.717 71.3876 154.193 64.7679 157.778C51.887 164.74 38.4976 172.085 41.3906 197.263C43.2915 213.754 68.2945 225.784 82.8845 219.906C90.4212 216.863 97.5161 215.354 108.438 200.298C120.018 184.332 134.45 177.887 147.422 180.497C159.011 182.831 166.206 190.685 170.941 199.956C174.918 207.743 174.851 214.229 181.096 223.35C188.249 233.796 198.996 238.915 215.336 232.412C234.428 224.825 231.861 201.965 226.583 195.637C218.688 186.166 209.234 179.205 213.902 169.884C217.546 162.614 221.889 160.213 226.391 157.695C229.426 156.002 232.527 154.252 235.546 150.917C239.289 146.773 244.641 136.66 237.421 128.04C216.745 103.362 203.072 134.968 181.596 122.771C162.704 112.049 153.617 72.0643 127.671 76.8664C121.994 77.9169 117.742 79.6927 114.407 82.1272C99.9422 92.6569 102.727 115.534 81.9424 144.956Z" fill="#F9D797"/>
</mask>
<g mask="url(#mask0)">
<path d="M215.328 232.404C234.42 224.817 231.844 201.957 226.566 195.629C218.671 186.158 209.217 179.196 213.886 169.867C219.988 157.687 228.042 159.171 235.521 150.9C239.264 146.757 244.616 136.644 237.396 128.023C216.729 103.345 203.047 134.943 181.571 122.754C162.679 112.032 153.592 72.0476 127.646 76.8414C97.3911 82.4356 107.521 108.739 81.9341 144.947C69.9619 161.897 36.997 159.129 41.3823 197.246C43.2832 213.737 68.2862 225.767 82.8762 219.89C90.4129 216.847 97.4995 215.338 108.429 200.281C120.01 184.315 134.441 177.871 147.414 180.48C159.002 182.815 166.197 190.668 170.933 199.939C174.91 207.726 174.843 214.212 181.087 223.333C188.241 233.788 198.979 238.907 215.328 232.404Z" fill="#F9D797"/>
<path d="M240.389 192.035C242.249 173.127 229.618 162.806 216.02 159.254C200.963 155.319 185.464 158.47 174.284 147.924C162.421 136.744 171.608 121.278 158.844 96.6671C151.924 83.3194 137.993 69.6298 121.094 75.5909C108.346 80.0846 99.4587 95.8334 103.377 112.166C108.83 134.859 132.657 154.769 112.456 176.395C94.3063 195.829 81.6839 182.598 65.4766 175.82C53.5712 170.842 38.1308 170.759 26.2921 181.139C10.0013 195.42 12.7443 211.719 17.5548 224.909C20.2393 232.262 24.8331 237.681 24.0661 243.559C23.0489 251.371 12.4274 260.108 8.14217 271.005C3.42336 282.985 5.7244 297.142 22.0652 305.204C34.9627 311.565 52.9209 300.268 54.0964 289.33C55.6638 274.748 40.4485 261.884 57.9898 243.509C79.3162 221.182 89.5125 246.694 117.275 227.643C128.388 220.023 125.237 199.13 145.921 197.58C151.599 197.154 162.712 200.147 172.8 205.283C183.939 210.944 194.402 218.798 207.808 218.514C224.399 218.164 238.53 210.952 240.389 192.035Z" fill="#F9D797"/>
<path d="M91.2966 104.496C101.36 88.5551 122.436 83.7863 138.376 93.8492C154.317 103.912 159.086 124.988 149.023 140.921C138.96 156.861 117.884 161.63 101.943 151.567C86.0025 141.513 81.2337 120.436 91.2966 104.496Z" fill="#F9D797"/>
<path d="M295.856 1.47389C285.051 -15.5755 266.651 -15.3921 254.821 -9.48109C238.23 -1.19399 232.144 14.163 209.217 12.9791C190.458 12.012 186.682 -9.25599 173.684 -21.2281C163.213 -30.8658 148.798 -33.3086 138.26 -21.4532C127.53 -9.38104 129.697 9.53589 142.562 19.9656C152.625 28.1277 169.265 29.8368 171.258 40.4082C173.617 52.9556 168.415 61.6596 166.106 72.5312C163.988 82.5274 164.647 94.6912 168.59 105.78C172.258 116.084 179.353 122.604 189.058 126.422C201.155 131.174 213.777 129.657 218.254 142.013C223.665 156.945 209.717 160.505 212.769 176.829C213.694 181.806 218.196 187.292 223.232 190.151C228.526 193.153 235.687 193.453 243.157 193.711C252.428 194.036 265.601 187.35 269.444 175.378C283.551 131.508 250.027 113.525 256.447 82.2689C260.807 61.0593 278.098 56.6907 290.746 43.8348C301.817 32.5714 305.135 16.1055 295.856 1.47389Z" fill="#F9D797"/>
<path d="M169.957 54.9649C165.672 35.2309 148.339 29.0781 135.192 30.5621C116.758 32.6381 105.762 44.9603 84.6436 35.9562C67.3691 28.5946 71.1375 7.32656 63.0504 -8.38892C56.5392 -21.0447 43.8417 -28.298 29.8687 -20.7946C15.6456 -13.1494 11.1769 5.359 19.6557 19.5738C26.3004 30.6955 41.3322 38.0322 39.5648 48.637C37.4638 61.2261 29.5769 67.6123 23.6742 77.0249C18.2468 85.6788 14.6785 97.3258 14.5701 109.098C14.47 120.036 18.8887 128.598 26.6839 135.518C36.405 144.147 48.7773 147.057 48.7356 160.204C48.6773 176.087 34.3624 174.628 31.6028 191.002C30.7608 195.996 33.0952 202.699 36.8469 207.109C40.782 211.744 47.4017 214.496 54.3298 217.314C62.9171 220.807 77.5904 219.064 85.3272 209.143C113.665 172.802 88.3786 144.389 105.161 117.252C116.55 98.8348 134.291 100.686 150.59 92.9655C164.855 86.2124 173.634 71.8892 169.957 54.9649Z" fill="#F9D797"/>
</g>
<path d="M76.0147 153.468C75.3144 153.743 69.6285 156.061 67.936 162.022C66.427 167.324 68.6864 173.294 73.6386 176.762C78.941 178.421 82.7177 183.148 83.1429 188.651C83.5598 193.978 80.7502 199.089 76.0147 201.648C102.477 208.093 128.947 214.537 155.409 220.982C180.162 199.797 204.915 178.621 229.668 157.436C228.534 156.653 224.982 153.968 223.865 149.199C222.59 143.739 225.024 137.753 230.043 133.984C178.703 140.47 127.363 146.973 76.0147 153.468Z" fill="#FFB953"/>
<path d="M153.6 195.937C178.953 183.098 204.315 170.267 229.668 157.428C230.902 157.82 235.179 159.337 237.18 163.448C239.714 168.65 237.605 175.987 231.477 180.564C206.124 194.037 180.762 207.501 155.409 220.974C160.22 217.547 162.637 211.77 161.587 206.234C160.295 199.389 154.317 196.296 153.6 195.937Z" fill="#88C3BF"/>
<path d="M76.0146 153.468C100.576 141.162 125.137 128.849 149.706 116.543C176.485 122.354 203.272 128.165 230.051 133.976C204.698 146.815 179.337 159.646 153.983 172.485C127.997 166.149 102.001 159.804 76.0146 153.468Z" fill="#88C3BF"/>
<path d="M176.277 92.782L190.125 106.697L195.444 97.0172L176.277 92.782Z" fill="#F53B4B"/>
<path d="M177.628 74.949L195.636 67.1371L188.574 58.6499L177.628 74.949Z" fill="#F53B4B"/>
<path d="M182.838 83.2111L207.541 83.9114L204.014 70.4636L182.838 83.2111Z" fill="#F53B4B"/>
<path d="M122.603 92.782L108.755 106.697L103.435 97.0172L122.603 92.782Z" fill="#F53B4B"/>
<path d="M121.244 74.949L103.235 67.1371L110.297 58.6499L121.244 74.949Z" fill="#F53B4B"/>
<path d="M116.041 83.2111L91.33 83.9114L94.8649 70.4636L116.041 83.2111Z" fill="#F53B4B"/>
<path d="M76.0146 153.468C102.001 159.804 127.997 166.149 153.983 172.485C179.337 159.646 204.698 146.815 230.051 133.976" stroke="black" stroke-width="2.281" stroke-miterlimit="10" stroke-linecap="round" stroke-linejoin="round"/>
<path d="M153.6 195.937C178.953 183.098 204.315 170.267 229.668 157.428" stroke="black" stroke-width="2.281" stroke-miterlimit="10" stroke-linecap="round" stroke-linejoin="round"/>
<path d="M76.0146 201.648C102.001 207.984 127.997 214.329 153.983 220.665C179.337 207.826 204.698 194.995 230.051 182.156" stroke="black" stroke-width="2.281" stroke-miterlimit="10" stroke-linecap="round" stroke-linejoin="round"/>
<path d="M153.983 172.485C149.19 174.744 146.188 179.63 146.38 184.849C146.555 189.734 149.506 194.153 153.983 196.262" stroke="black" stroke-width="2.281" stroke-miterlimit="10" stroke-linecap="round" stroke-linejoin="round"/>
<path d="M75.2976 153.235C70.5038 155.494 67.5024 160.38 67.6942 165.599C67.8693 170.484 70.8206 174.903 75.2976 177.012C101.401 183.323 127.496 189.634 153.6 195.946" stroke="black" stroke-width="2.281" stroke-miterlimit="10" stroke-linecap="round" stroke-linejoin="round"/>
<path d="M153.975 196.729C158.769 198.989 161.77 203.874 161.579 209.093C161.403 213.979 158.452 218.397 153.975 220.507" stroke="black" stroke-width="2.281" stroke-miterlimit="10" stroke-linecap="round" stroke-linejoin="round"/>
<path d="M230.235 157.987C235.029 160.246 238.03 165.132 237.838 170.351C237.663 175.236 234.712 179.655 230.235 181.764" stroke="black" stroke-width="2.281" stroke-miterlimit="10" stroke-linecap="round" stroke-linejoin="round"/>
<path d="M130.723 83.5862C130.723 89.7223 130.723 92.9238 130.723 99.0599C130.723 106.48 136.034 112.608 142.962 113.692C143.537 116.585 146.03 118.761 149.015 118.761C151.999 118.761 154.492 116.585 155.067 113.692C161.995 112.608 167.306 106.48 167.306 99.0599C167.306 92.9238 167.306 89.7223 167.306 83.5862C155.117 83.5862 142.92 83.5862 130.723 83.5862Z" fill="#F53B4B"/>
<path d="M149.915 108.306H148.114C141.786 108.306 136.651 103.17 136.651 96.8421V76.0243C136.651 69.6965 141.786 64.5608 148.114 64.5608H149.915C156.243 64.5608 161.378 69.6965 161.378 76.0243V96.8421C161.378 103.17 156.243 108.306 149.915 108.306Z" fill="#FFB953"/>
<path d="M130.723 84.5366C130.723 90.5143 130.723 93.6241 130.723 99.5935C130.723 106.813 136.034 112.774 142.962 113.825C143.537 116.643 146.03 118.761 149.015 118.761C151.999 118.761 154.492 116.643 155.067 113.825C161.995 112.774 167.306 106.813 167.306 99.5935C167.306 93.6157 167.306 90.506 167.306 84.5366" stroke="black" stroke-width="2.281" stroke-miterlimit="10" stroke-linecap="square" stroke-linejoin="round"/>
<path d="M149.015 118.76C149.015 126.697 149.015 134.626 149.015 142.563" stroke="black" stroke-width="2.281" stroke-miterlimit="10" stroke-linecap="square" stroke-linejoin="round"/>
<path d="M142.57 143.247H155.884" stroke="black" stroke-width="2.281" stroke-miterlimit="10" stroke-linecap="square" stroke-linejoin="round"/>
<path d="M136.551 83.6279C136.551 88.7553 136.551 93.8743 136.551 99.0016C136.759 100.135 137.318 102.203 138.927 104.187C141.745 107.647 145.705 108.264 146.688 108.389C147.981 108.389 149.273 108.389 150.574 108.389C151.491 108.314 155.067 107.914 158.019 104.904C160.878 101.995 161.27 98.5597 161.345 97.6176C161.345 93.0489 161.345 88.2884 161.345 83.7196" stroke="black" stroke-width="2.281" stroke-miterlimit="10" stroke-linejoin="round"/>
<mask id="mask1" mask-type="alpha" maskUnits="userSpaceOnUse" x="136" y="64" width="26" height="45">
<path d="M149.915 108.306H148.114C141.786 108.306 136.651 103.17 136.651 96.8424V76.0246C136.651 69.6967 141.786 64.561 148.114 64.561H149.915C156.243 64.561 161.378 69.6967 161.378 76.0246V96.8424C161.378 103.17 156.243 108.306 149.915 108.306Z" fill="#FFB953"/>
</mask>
<g mask="url(#mask1)">
<path d="M151.149 57.2659C143.504 63.5854 135.859 69.9133 128.213 76.2328" stroke="black" stroke-width="2.281" stroke-miterlimit="10" stroke-linejoin="round"/>
<path d="M158.869 63.9355C147.764 73.1231 136.659 82.3022 125.554 91.4897" stroke="black" stroke-width="2.281" stroke-miterlimit="10" stroke-linejoin="round"/>
<path d="M160.987 74.5071C149.623 83.9697 138.251 93.4324 126.888 102.895" stroke="black" stroke-width="2.281" stroke-miterlimit="10" stroke-linejoin="round"/>
<path d="M130.164 56.5823C143.937 67.3872 157.719 78.1838 171.491 88.9887" stroke="black" stroke-width="2.281" stroke-miterlimit="10" stroke-linejoin="round"/>
<path d="M124.262 64.7861C138.852 77.2418 153.45 89.6975 168.04 102.153" stroke="black" stroke-width="2.281" stroke-miterlimit="10" stroke-linejoin="round"/>
</g>
<path d="M79.3412 162.981C84.5686 163.931 89.8043 164.882 95.0316 165.832C94.2563 166.14 91.3716 167.391 89.8043 170.584C88.8372 172.56 88.8038 174.394 88.8538 175.336C84.4185 174.386 79.9831 173.435 75.5395 172.485C75.3227 171.885 74.639 169.742 75.5395 167.258C76.5482 164.456 78.8326 163.239 79.3412 162.981Z" fill="#F53B4B"/>
<path d="M128.789 199.581C134.016 200.531 139.252 201.481 144.479 202.432C143.704 202.74 140.819 203.991 139.252 207.184C138.285 209.16 138.251 210.994 138.301 211.936C133.866 210.986 129.431 210.035 124.987 209.085C124.77 208.485 124.087 206.342 124.987 203.858C125.987 201.065 128.272 199.839 128.789 199.581Z" fill="#F53B4B"/>
<path d="M105.011 201.965C110.239 202.916 115.474 203.866 120.702 204.816C119.926 205.125 117.042 206.375 115.474 209.569C114.507 211.544 114.474 213.379 114.524 214.321C110.089 213.37 105.653 212.42 101.209 211.469C100.993 210.869 100.309 208.726 101.209 206.242C102.218 203.441 104.503 202.215 105.011 201.965Z" fill="#F53B4B"/>
<path d="M215.787 146.898C211.026 149.258 206.257 151.617 201.497 153.968C202.33 154.052 205.449 154.452 207.833 157.095C209.309 158.72 209.851 160.48 210.059 161.405C214.061 159.262 218.063 157.128 222.064 154.985C222.106 154.343 222.164 152.101 220.622 149.958C218.88 147.557 216.345 147.007 215.787 146.898Z" fill="#F53B4B"/>
<path d="M201.572 164.515C196.795 166.841 192.009 169.167 187.232 171.493C188.066 171.576 191.175 172.01 193.551 174.661C195.019 176.303 195.544 178.054 195.744 178.98C199.763 176.87 203.781 174.761 207.791 172.643C207.833 172.001 207.916 169.759 206.382 167.608C204.665 165.19 202.139 164.631 201.572 164.515Z" fill="#F53B4B"/>
</svg>
