<svg width="85" height="54" viewBox="0 0 85 54" fill="none" xmlns="http://www.w3.org/2000/svg">
<path d="M15.0282 25.1345H5.35026C4.77168 25.1345 4.2423 25.3358 3.82625 25.6714C3.82476 25.6714 3.82476 25.6714 3.82476 25.6728C3.14626 25.9771 2.91364 26.9747 2.91364 27.34V44.1891C2.91364 45.1599 3.20293 46.0397 3.65626 46.4394L11.0646 52.9887C11.9041 53.7284 12.8525 53.7105 12.8525 51.9136V44.3606H15.0282C19.3139 44.3606 22.7884 40.8861 22.7884 36.6004V32.8948C22.7899 28.609 19.3154 25.1345 15.0282 25.1345Z" fill="white"/>
<path d="M11.1361 1.55556C11.5641 1.51679 11.8802 1.13802 11.8415 0.708558C11.8027 0.280582 11.4284 -0.0355539 10.9945 0.00321741C6.239 0.434176 0.554528 4.61104 0.00427288 9.91973C-0.0404633 10.3477 0.271199 10.7309 0.699175 10.7757C0.726016 10.7787 0.754349 10.7802 0.781191 10.7802C1.17487 10.7802 1.51337 10.4819 1.55513 10.0808C2.01442 5.65638 6.99206 1.93135 11.1361 1.55556Z" fill="white"/>
<path d="M84.9866 18.7955C84.9254 17.9992 84.5989 17.3028 84.0143 16.7182C83.3656 16.0695 82.5723 15.74 81.6537 15.74C80.7352 15.74 79.9388 16.0695 79.2917 16.7182C78.64 17.3699 78.309 18.1647 78.309 19.0788V19.4784V23.0365C78.309 23.955 78.6385 24.7513 79.2917 25.3985C79.9403 26.0502 80.7337 26.3812 81.6537 26.3812C82.5723 26.3812 83.3686 26.0487 84.0128 25.4015C84.6675 24.7528 85 23.958 85 23.0365V19.0788C84.9985 18.9819 84.994 18.8879 84.9866 18.7955ZM82.5127 23.0365C82.5127 23.2765 82.4321 23.4689 82.2577 23.6434C82.0847 23.8164 81.8923 23.8954 81.6522 23.8954C81.4062 23.8954 81.2198 23.8193 81.0453 23.6404C80.8723 23.4674 80.7903 23.2751 80.7903 23.035V19.635V19.0773C80.7903 18.8372 80.8723 18.6449 81.0453 18.4719C81.2138 18.3019 81.4062 18.2243 81.6522 18.2243C81.8938 18.2243 82.0877 18.3049 82.2577 18.4719C82.4321 18.6449 82.5127 18.8372 82.5127 19.0773V19.4665V23.0365Z" fill="white"/>
<path d="M75.1998 18.5538C75.1327 17.8589 74.8374 17.249 74.3245 16.736C73.7325 16.1425 73.0062 15.8413 72.1652 15.8413H71.3555H70.2251C69.8911 15.8413 69.5899 15.9621 69.3409 16.2022C69.1052 16.4378 68.98 16.742 68.98 17.0805V25.136C68.98 25.4685 69.1008 25.7712 69.3498 26.0277C69.5899 26.2574 69.8911 26.3811 70.2251 26.3811C70.5547 26.3811 70.8544 26.2574 71.1109 26.0113C71.3421 25.7712 71.4643 25.4685 71.4643 25.136V21.9806H72.1652C73.0062 21.9806 73.7325 21.6794 74.3245 21.0859C74.918 20.4909 75.2192 19.7647 75.2192 18.9266V18.8878C75.2192 18.7745 75.2132 18.6642 75.2013 18.5553V18.5538H75.1998ZM72.7319 18.9266C72.7319 19.0906 72.6826 19.2114 72.5619 19.3307C72.447 19.4456 72.3277 19.4948 72.1637 19.4948H71.4628V18.3271H72.1637C72.3277 18.3271 72.447 18.3764 72.5663 18.4957C72.6826 18.6105 72.7319 18.7268 72.7319 18.8878V18.9266Z" fill="white"/>
<path d="M64.9776 26.2395C65.2848 26.0814 65.498 25.8204 65.5905 25.5073C65.6949 25.1852 65.6665 24.8556 65.5129 24.5529L63.6996 21.0381L65.51 17.5234C65.6665 17.2221 65.6949 16.8911 65.5935 16.5839C65.4965 16.2618 65.2878 16.0083 64.9821 15.8413C64.6823 15.6817 64.3528 15.6519 64.0277 15.7593C63.7071 15.8622 63.4581 16.0769 63.3015 16.3766L62.2949 18.3271L61.2913 16.3766C61.1377 16.0769 60.8857 15.8622 60.5651 15.7593C60.2415 15.6519 59.9105 15.6817 59.6048 15.8428C59.3051 16.0068 59.0963 16.2618 59.0038 16.569C58.8994 16.8911 58.9278 17.2207 59.0844 17.5234L60.8977 21.0381L59.0829 24.5529C58.9293 24.8541 58.9009 25.1852 58.9994 25.4864C59.0963 25.8204 59.311 26.0814 59.6108 26.235C59.7957 26.3319 59.9895 26.3811 60.1834 26.3811C60.3086 26.3811 60.4309 26.3603 60.5532 26.3215C60.8798 26.2246 61.1363 26.0113 61.2943 25.7041L62.2979 23.7551L63.3045 25.7041C63.4625 26.0113 63.719 26.2246 64.0307 26.317C64.3543 26.4229 64.6838 26.3946 64.9776 26.2395Z" fill="white"/>
<path d="M70.5785 12.9065C71.2063 12.404 71.6045 11.7538 71.7596 10.9769C71.9788 9.91515 71.7476 8.95482 71.0766 8.12869C70.416 7.31449 69.5526 6.89546 68.5147 6.88652H68.4983C68.3253 6.88652 68.1971 6.83582 68.0733 6.71354C67.954 6.59871 67.9033 6.47793 67.9033 6.31091V6.11407C67.9033 5.94109 67.957 5.80987 68.0838 5.68311C68.1986 5.56382 68.3179 5.51461 68.4864 5.51461H68.5237C68.628 5.51461 68.719 5.53996 68.807 5.59215C68.8249 5.60259 68.8413 5.61452 68.8607 5.62645C68.968 5.70399 69.0351 5.79943 69.0754 5.92022C69.2514 6.44661 69.6913 6.76275 70.2564 6.76275C70.6665 6.76275 71.0259 6.57784 71.263 6.2453C71.5076 5.90829 71.5702 5.50864 71.4419 5.11347C71.2347 4.49611 70.8634 3.98612 70.337 3.5999C70.164 3.47315 69.9835 3.36429 69.7971 3.2778C69.4035 3.09587 68.977 3.00342 68.5237 3.00342H68.4864C67.6379 3.00342 66.9027 3.30912 66.3062 3.91156C65.7053 4.51699 65.4011 5.25663 65.4011 6.11258V6.29153C65.4011 7.14897 65.7083 7.88712 66.3152 8.4836C66.8938 9.05771 67.6051 9.3649 68.4238 9.39771C68.4491 9.39771 68.4744 9.3992 68.4998 9.3992C68.7787 9.40665 68.9815 9.51253 69.1544 9.73919C69.3349 9.9748 69.3796 10.2149 69.3036 10.5057C69.2529 10.6951 69.1544 10.8382 68.9964 10.9575C68.9084 11.0231 68.8159 11.0708 68.713 11.0977C68.631 11.1215 68.5401 11.132 68.4402 11.132C68.2448 11.132 68.0852 11.0768 67.9316 10.9575C67.7751 10.8367 67.6796 10.6951 67.626 10.5131C67.4664 9.95393 67.019 9.61691 66.43 9.61691C66.0184 9.61691 65.6591 9.80182 65.4205 10.1359C65.1848 10.4624 65.1192 10.8561 65.2356 11.2453C65.4428 11.9432 65.8425 12.5203 66.4211 12.9647C67.0175 13.4195 67.696 13.6491 68.4446 13.6491C68.8607 13.6491 69.2573 13.582 69.6257 13.4433C69.9657 13.3211 70.2833 13.1421 70.5785 12.9065Z" fill="white"/>
<path d="M57.8794 12.4071C57.8794 12.7456 58.0062 13.0513 58.2463 13.2914C58.4849 13.527 58.7861 13.6523 59.1246 13.6523C59.4541 13.6523 59.7539 13.5315 60.0104 13.2824C60.2415 13.0424 60.3653 12.7411 60.3653 12.4071V5.57888H61.3003C61.6432 5.57888 61.9489 5.44766 62.1786 5.20906C62.4142 4.97345 62.5394 4.66925 62.5394 4.33074C62.5394 4.00268 62.4187 3.70146 62.1786 3.45242C61.943 3.21681 61.6388 3.09155 61.3003 3.09155H56.9504C56.6164 3.09155 56.3122 3.21532 56.0557 3.46137C55.826 3.70146 55.7023 4.00268 55.7023 4.33074C55.7023 4.66925 55.8275 4.97196 56.0631 5.20906C56.3032 5.44915 56.6104 5.57888 56.9489 5.57888H57.8779V12.4071H57.8794Z" fill="white"/>
<path d="M54.5645 18.4465C54.9075 18.4465 55.2131 18.3168 55.4338 18.0871C55.6799 17.8485 55.8096 17.5443 55.8096 17.2013C55.8096 16.8673 55.6829 16.5661 55.4428 16.323C55.2042 16.0874 54.903 15.9622 54.5645 15.9622H51.4374C51.1034 15.9622 50.8022 16.0829 50.5457 16.332C50.3145 16.5721 50.1923 16.8718 50.1923 17.2013V25.1361C50.1923 25.4686 50.3131 25.7713 50.5621 26.0278C50.8022 26.2574 51.1034 26.3812 51.4374 26.3812H54.5645C54.903 26.3812 55.2042 26.2559 55.4428 26.0203C55.6829 25.7788 55.8096 25.4731 55.8096 25.1361C55.8096 24.802 55.6829 24.4978 55.4428 24.2577C55.2042 24.0191 54.903 23.8954 54.5645 23.8954H52.6751V22.0925H54.1827C54.5212 22.0925 54.8269 21.9658 55.067 21.7257C55.3056 21.4901 55.4294 21.1859 55.4294 20.8473C55.4294 20.5088 55.3041 20.2061 55.0581 19.9616C54.818 19.7304 54.5168 19.6082 54.1827 19.6082H52.6751V18.445H54.5645V18.4465Z" fill="white"/>
<path d="M50.5606 13.2988C50.8007 13.5299 51.1019 13.6522 51.436 13.6522C51.7655 13.6522 52.0652 13.5314 52.3217 13.2824C52.5529 13.0423 52.6751 12.7411 52.6751 12.4071V4.25018C52.6751 3.91167 52.5499 3.60896 52.3053 3.3644C52.0652 3.13327 51.7655 3.01099 51.436 3.01099C51.1019 3.01099 50.8007 3.13177 50.5517 3.37186C50.3161 3.60747 50.1908 3.91167 50.1908 4.25018V12.4071C50.1908 12.7411 50.3116 13.0423 50.5442 13.2824L50.5606 13.2988Z" fill="white"/>
<path d="M35.9617 25.1374C35.8156 25.1329 35.6724 25.1329 35.5293 25.1374C32.4097 25.1985 30.9184 29.0115 33.1254 31.217C33.792 31.8836 34.6867 32.2996 35.6277 32.2996H35.6814C35.8573 32.2952 36.0378 32.3101 36.2227 32.3429C37.4141 32.5517 38.3491 33.5433 38.4893 34.7452C38.5937 35.6414 38.2701 36.4661 37.696 37.0417C37.1934 37.5442 36.4985 37.8544 35.7306 37.8544C35.6202 37.8544 35.5069 37.8484 35.3921 37.8335C34.1887 37.6918 33.2 36.7524 32.9942 35.5564C32.9629 35.3715 32.9495 35.1911 32.9525 35.0151C32.9748 34.0518 32.5543 33.1288 31.8743 32.4473C29.6688 30.2418 25.8603 31.7315 25.7917 34.8496C25.7872 34.9987 25.7872 35.1493 25.7917 35.2985C25.9065 40.5475 30.1624 44.8481 35.4085 45.0137C35.5158 45.0152 35.6232 45.0152 35.7306 45.0152C38.4744 45.0137 40.9632 43.9057 42.7616 42.1073C44.6301 40.2373 45.7574 37.6262 45.668 34.7527C45.5009 29.5111 41.2048 25.2552 35.9617 25.1374Z" fill="white"/>
<path d="M35.7291 3.00491V3.0064H25.7902C25.7902 3.58499 25.8394 4.15463 25.9333 4.70488C26.0571 5.45347 26.2614 6.17074 26.5418 6.84775C26.9623 7.88562 27.5528 8.83105 28.273 9.65121C29.982 11.5928 32.4275 12.8469 35.1624 12.9393C30.5173 13.0974 26.6983 16.5987 25.9304 21.1738H25.9319C25.8379 21.724 25.7887 22.2937 25.7887 22.8722H35.7291V22.8737H45.6694C45.6694 22.2937 45.6202 21.7255 45.5278 21.1738C44.7583 16.5913 40.9289 13.0825 36.2704 12.9378C39.0336 12.8543 41.503 11.5838 43.2164 9.61095C43.7592 8.98762 44.223 8.28974 44.6003 7.54116C44.6554 7.43677 44.7091 7.32642 44.7583 7.21458C45.1177 6.42872 45.3802 5.58619 45.5278 4.7019H45.5263C45.6202 4.15016 45.6694 3.58201 45.6694 3.00342H35.7291V3.00491Z" fill="white"/>
<path d="M5.77224 20.4387C6.63117 21.1933 7.61984 21.8047 8.70246 22.2326C9.83726 22.68 11.0735 22.9261 12.3678 22.9261H19.4719C21.0019 22.9261 22.2441 21.6854 22.2441 20.1539V20.054C22.2441 18.5225 21.0019 17.2789 19.4719 17.2789H16.8072H12.3678C12.1755 17.2789 12.0234 17.1253 12.0234 16.9344C12.0234 16.742 12.1755 16.5884 12.3678 16.5884H16.9294H18.6085C20.6157 16.5884 22.2456 14.96 22.2456 12.9499V12.8172C22.2456 10.81 20.6172 9.18012 18.6085 9.18012H16.8862H12.3678C12.1755 9.18012 12.0234 9.02354 12.0234 8.83416C12.0234 8.64329 12.1755 8.4882 12.3678 8.4882H16.7535H19.4734C21.0034 8.4882 22.2456 7.24752 22.2456 5.71605C22.2456 4.95106 21.9354 4.25616 21.4329 3.75362C20.9303 3.25258 20.2369 2.94092 19.4719 2.94092H12.3678C10.8453 2.94092 9.40183 3.28091 8.11045 3.89231C5.25479 5.24036 3.14026 7.89768 2.54676 11.0889C2.43343 11.6853 2.37378 12.3057 2.37378 12.935C2.37378 13.8864 2.5065 14.8049 2.75553 15.6788C3.20289 17.2505 4.02753 18.6627 5.12058 19.8154C5.32786 20.0301 5.54706 20.2419 5.77224 20.4387Z" fill="white"/>
<path d="M54.4869 33.6001C54.4497 33.0707 54.2394 32.6129 53.8636 32.2371L53.8398 32.2133C53.4222 31.7957 52.9092 31.584 52.3187 31.584H52.2084L52.1607 31.587C52.1517 31.587 52.1428 31.5885 52.1338 31.5899C51.7058 31.6242 51.3151 31.7749 50.9692 32.0418C50.6322 32.3072 50.3906 32.6457 50.2504 33.0528C50.1639 33.3063 50.2072 33.5673 50.3697 33.7865C50.5278 33.9997 50.7619 34.1175 51.0303 34.1175C51.4031 34.1175 51.682 33.9192 51.7938 33.5777C51.84 33.4435 51.9176 33.3496 52.0384 33.284C52.192 33.2228 52.2785 33.2139 52.3172 33.2139C52.4634 33.2139 52.5812 33.2631 52.6871 33.3704L52.7243 33.4018C52.8049 33.4883 52.8481 33.5867 52.86 33.7134C52.8735 33.8372 52.8481 33.9446 52.7825 34.046C52.778 34.0519 52.7676 34.0668 50.3369 37.9514C50.2161 38.1408 50.1803 38.3555 50.231 38.5688C50.2549 38.6657 50.2922 38.7552 50.3459 38.8357C50.3429 38.8432 50.3384 38.8521 50.3339 38.8596C50.3966 38.955 50.4831 39.0385 50.5904 39.1071C50.7142 39.1817 50.8529 39.2219 51.0139 39.2279H53.6563C53.8815 39.2279 54.0843 39.1444 54.2469 38.9804C54.2886 38.9371 54.3259 38.8894 54.3557 38.8402C54.3587 38.8387 54.3587 38.8357 54.3602 38.8342C54.4482 38.7015 54.4929 38.5479 54.4929 38.3839C54.4929 38.1677 54.4124 37.9693 54.2558 37.8068C54.1007 37.6517 53.9024 37.5697 53.6802 37.5697H52.532L53.6698 35.7385C53.6593 35.743 53.6474 35.7474 53.637 35.7534L54.0948 35.0167C54.393 34.5977 54.5242 34.122 54.4869 33.6001Z" fill="white"/>
<path d="M59.308 31.4929H59.2797C58.6832 31.4929 58.1672 31.7106 57.7452 32.1401C57.3262 32.5666 57.1129 33.09 57.1129 33.6924V35.1464C57.104 35.1449 57.0965 35.1434 57.0876 35.1434V37.0253C57.0876 37.6307 57.3008 38.1541 57.7184 38.5806C58.1419 39.0086 58.6578 39.2278 59.2543 39.2278H59.2841C59.8761 39.2278 60.3936 39.0086 60.8141 38.5806C60.8216 38.5717 60.8305 38.5642 60.838 38.5553C60.8797 38.512 60.9185 38.4688 60.9558 38.424C61.2973 38.0229 61.4702 37.5457 61.4702 37.0014V33.6924C61.4702 33.09 61.257 32.5666 60.838 32.1401C60.4175 31.7106 59.9015 31.4929 59.308 31.4929ZM58.7443 33.6924C58.7443 33.5299 58.7965 33.3987 58.9054 33.2853C59.0112 33.175 59.1305 33.1243 59.2797 33.1243H59.308C59.4556 33.1243 59.5734 33.175 59.6763 33.2824C59.7882 33.4002 59.8404 33.5299 59.8404 33.6924V35.9382C59.824 35.9293 59.8061 35.9203 59.7897 35.9114V37.0253C59.7897 37.1834 59.7404 37.3086 59.6361 37.4175C59.5481 37.5099 59.4541 37.5577 59.3378 37.5681C59.3274 37.5696 59.3184 37.5696 59.308 37.5696H59.2797C59.129 37.5696 59.0097 37.5189 58.9054 37.41C58.795 37.2967 58.7443 37.167 58.7443 37.0014V35.4715V33.6924Z" fill="white"/>
<path d="M68.376 33.6001C68.3373 33.0722 68.1285 32.6129 67.7527 32.2371L67.7289 32.2133C67.3113 31.7957 66.7984 31.584 66.2078 31.584C66.2034 31.584 66.1974 31.584 66.1929 31.584H66.099L66.0528 31.587C66.0438 31.5885 66.0349 31.5899 66.0259 31.5914C65.5979 31.6242 65.2072 31.7764 64.8613 32.0433C64.5243 32.3087 64.2827 32.6472 64.1425 33.0543C64.056 33.3078 64.0993 33.5703 64.2618 33.788C64.4199 34.0012 64.654 34.119 64.9224 34.119C65.2952 34.119 65.5741 33.9207 65.6874 33.5777C65.7336 33.4435 65.8112 33.3496 65.932 33.284C66.0856 33.2228 66.172 33.2139 66.2108 33.2139C66.357 33.2139 66.4748 33.2631 66.5806 33.369L66.6164 33.4003C66.6984 33.4868 66.7402 33.5837 66.7521 33.7119C66.7655 33.8357 66.7402 33.9431 66.6746 34.0445C66.6701 34.0504 66.6612 34.0654 64.229 37.9499C64.1082 38.1393 64.0724 38.3541 64.1246 38.5673C64.1753 38.779 64.2961 38.9535 64.4765 39.0728L64.4915 39.0818C64.6152 39.1548 64.7509 39.1936 64.909 39.1996H67.5738C67.796 39.1996 67.9943 39.1176 68.1539 38.958C68.306 38.7999 68.3865 38.6016 68.3865 38.3824C68.3865 38.1662 68.306 37.9693 68.1494 37.8068C67.9943 37.6517 67.7945 37.5697 67.5738 37.5697H66.4032L67.9883 35.0167C68.2806 34.5992 68.4133 34.122 68.376 33.6001Z" fill="white"/>
<path d="M73.1404 31.4751C72.9182 31.4751 72.7199 31.5571 72.5648 31.7122L71.1452 33.1318C70.9901 33.2869 70.9081 33.4867 70.9081 33.7074C70.9081 33.9237 70.9886 34.122 71.1497 34.2875C71.3077 34.4396 71.5061 34.5201 71.7253 34.5201C71.9415 34.5201 72.1383 34.4396 72.3009 34.283L72.3277 34.2562V38.3824C72.3277 38.6016 72.4082 38.8014 72.5648 38.9624C72.7199 39.1175 72.9197 39.1995 73.1404 39.1995C73.3611 39.1995 73.5609 39.1175 73.716 38.9624C73.8741 38.8044 73.9576 38.6031 73.9576 38.3824V32.2863C73.9576 32.0626 73.8726 31.8613 73.716 31.7107C73.5609 31.5571 73.3611 31.4751 73.1404 31.4751Z" fill="white"/>
</svg>
