<svg width="317" height="199" viewBox="0 0 317 199" fill="none" xmlns="http://www.w3.org/2000/svg">
<path d="M84.8578 122.518V136.315C84.8578 152.278 71.9213 165.209 55.9645 165.209H47.8584V127.476C47.8584 122.962 47.7695 121.519 45.0934 119.098L21.941 98.4443C18.4431 95.2851 15.9669 94.8576 14.2513 95.6238C15.8003 94.369 17.7713 93.625 19.9256 93.625H55.9589C71.9213 93.6306 84.8578 106.567 84.8578 122.518Z" fill="#FFBA53"/>
<path d="M2.90857 40.1317C2.80863 40.1317 2.70869 40.1262 2.6032 40.1151C1.00974 39.9485 -0.150655 38.5216 0.015909 36.9281C2.0702 17.1681 23.2349 1.61655 40.9462 0.0119792C42.5564 -0.132376 43.9555 1.04468 44.0999 2.63814C44.2442 4.23715 43.0672 5.6474 41.4737 5.79175C26.0388 7.19089 7.50574 21.0601 5.79013 37.5333C5.64022 39.0213 4.37989 40.1317 2.90857 40.1317Z" fill="#F63B4B"/>
<path d="M82.8317 21.327C82.8317 27.029 78.2068 31.6484 72.5103 31.6484H62.3832C58.1303 12.388 45.3604 14.4978 30.203 14.5423C35.0112 12.2659 40.3912 11 46.0544 11H72.5048C75.353 11 77.9347 12.1604 79.8058 14.0259C81.6769 15.8914 82.8317 18.4787 82.8317 21.327Z" fill="#FFBA53"/>
<path d="M82.8312 47.6667V48.1608C82.8312 55.6451 76.7683 61.708 69.2896 61.708H63.0378C63.5931 58.0103 63.8929 53.6741 63.8929 48.5717C63.8929 42.8585 63.5431 38.0948 62.8768 34.125H69.2896C76.7683 34.1306 82.8312 40.1935 82.8312 47.6667Z" fill="#FFBA53"/>
<path d="M82.8307 74.7131V75.0851C82.8307 80.7871 78.2058 85.4065 72.5093 85.4065H46.0533C41.2341 85.4065 36.6314 84.4904 32.4062 82.8247C46.8306 82.9413 58.7455 83.4299 62.582 64.375H72.5037C78.2058 64.3806 82.8307 69.011 82.8307 74.7131Z" fill="#FFBA53"/>
<path d="M47.8585 127.43V193.284C47.8585 199.974 44.3218 200.04 41.2015 197.287L13.6185 172.902C11.9306 171.414 10.8535 168.138 10.8535 164.523V101.795C10.8535 100.435 11.7141 96.7153 14.2459 95.5882C14.2459 95.5826 14.2459 95.5826 14.2514 95.5826C15.967 94.8109 18.4433 95.2384 21.9411 98.4031L45.0935 119.057C47.7641 121.472 47.8585 122.916 47.8585 127.43Z" fill="#11354F"/>
<path d="M316.477 71.0494V85.7847C316.477 89.2159 315.239 92.1752 312.802 94.5904C310.403 97.0056 307.444 98.2382 304.018 98.2382C300.587 98.2382 297.633 97.0111 295.224 94.5793C292.797 92.1641 291.565 89.2048 291.565 85.7847V72.5373C292.359 72.665 293.169 72.7761 293.98 72.8593C295.429 73.0259 296.906 73.1203 298.399 73.1425C298.699 73.1592 298.988 73.1592 299.288 73.1592C299.799 73.1592 300.309 73.1536 300.815 73.1258V85.7847C300.815 86.6786 301.12 87.3948 301.764 88.0389C302.414 88.7051 303.108 88.9883 304.024 88.9883C304.918 88.9883 305.634 88.6885 306.278 88.05C306.928 87.4004 307.227 86.6842 307.227 85.7903V72.504C308.044 72.3763 308.849 72.2153 309.648 72.0376C311.147 71.7101 312.618 71.3103 314.056 70.8384C314.856 70.5774 315.65 70.2943 316.438 70C316.461 70.3387 316.477 70.6885 316.477 71.0494Z" fill="#F63B4B"/>
<path d="M316.432 70.0013C315.644 70.3011 314.85 70.5843 314.05 70.8397C312.612 71.3116 311.141 71.7114 309.642 72.039C308.842 72.2166 308.037 72.3776 307.221 72.5053V71.0562C307.221 70.1623 306.921 69.4461 306.272 68.8021C305.639 68.1747 304.923 67.8804 304.018 67.8804C303.102 67.8804 302.385 68.1691 301.758 68.8021C301.114 69.4461 300.809 70.1623 300.809 71.0562V73.1327C300.303 73.1549 299.792 73.166 299.282 73.166C298.982 73.166 298.693 73.166 298.393 73.1494C296.894 73.1272 295.423 73.0328 293.974 72.8662C293.163 72.7829 292.353 72.6775 291.559 72.5442V71.0562C291.559 67.6528 292.786 64.6935 295.217 62.2672C297.633 59.852 300.592 58.625 304.012 58.625C307.432 58.625 310.386 59.852 312.801 62.2672C314.989 64.4436 316.199 67.0365 316.432 70.0013Z" fill="#FFBA53"/>
<path d="M279.993 69.0938C279.071 68.6885 278.166 68.2554 277.289 67.789C273.952 66.0346 270.882 63.8859 268.15 61.4207C267.29 60.6434 266.463 59.8384 265.674 59H268.689C271.82 59 274.524 60.1215 276.728 62.3313C278.638 64.2357 279.738 66.5009 279.993 69.0938Z" fill="#FFBA53"/>
<path d="M279.993 69.0993V69.0938C279.071 68.6885 278.166 68.2554 277.289 67.789C273.952 66.0346 270.882 63.8859 268.15 61.4207C267.29 60.6434 266.463 59.8384 265.674 59H261.466C260.222 59 259.1 59.4497 258.173 60.3436C257.296 61.2209 256.83 62.3535 256.83 63.6138V93.6065C256.83 94.8446 257.279 95.9717 258.206 96.9266C259.1 97.7817 260.222 98.2425 261.466 98.2425C262.693 98.2425 263.809 97.7817 264.764 96.8656C265.624 95.9717 266.079 94.8446 266.079 93.6065V81.8526H268.689C271.82 81.8526 274.524 80.7311 276.728 78.5213C278.938 76.306 280.06 73.6021 280.06 70.4818V70.3375C280.06 69.9155 280.037 69.5046 279.993 69.0993ZM270.804 70.4818C270.804 71.0926 270.621 71.5423 270.171 71.9864C269.744 72.414 269.3 72.5972 268.689 72.5972H266.079V68.2499H268.689C269.3 68.2499 269.744 68.4331 270.188 68.8772C270.621 69.3048 270.804 69.7378 270.804 70.3375V70.4818Z" fill="#F63B4B"/>
<path d="M237.176 78.3909L243.916 65.3045C244.499 64.183 244.604 62.9504 244.227 61.8067C243.866 60.6074 243.089 59.6635 241.95 59.0417C240.834 58.4476 239.607 58.3366 238.397 58.7363C237.203 59.1194 236.276 59.9189 235.693 61.0349L231.945 68.2971L228.209 61.0349C227.637 59.9189 226.699 59.1194 225.505 58.7363C224.3 58.3366 223.068 58.4476 221.929 59.0472C220.813 59.658 220.036 60.6074 219.692 61.7511C219.303 62.9504 219.409 64.1774 219.992 65.3045L226.743 78.3909L219.986 91.4773C219.414 92.5988 219.309 93.8314 219.675 94.9529C220.036 96.1966 220.836 97.1682 221.952 97.7401C222.64 98.101 223.362 98.2842 224.084 98.2842C224.55 98.2842 225.005 98.2065 225.461 98.0621C226.677 97.7012 227.631 96.9073 228.22 95.7635L231.957 88.5069L235.704 95.7635C236.293 96.9073 237.248 97.7012 238.408 98.0454C239.613 98.4341 240.846 98.3286 241.934 97.7567C243.078 97.1682 243.871 96.1966 244.216 95.0306C244.604 93.8314 244.499 92.6044 243.927 91.4773L237.176 78.3909ZM239.968 93.5149L239.624 93.6926L239.968 93.5094C239.968 93.5149 239.968 93.5149 239.968 93.5149Z" fill="#F63B4B"/>
<path d="M265.336 23.2932C264.448 24.5313 263.115 25.2198 261.588 25.2198C259.479 25.2198 257.846 24.0427 257.191 22.0828C257.036 21.6331 256.786 21.2833 256.392 20.9891C256.325 20.9446 256.264 20.8947 256.192 20.8614C257.08 17.8354 258.324 14.9483 259.878 12.25C260.572 12.572 261.244 12.9773 261.888 13.4493C263.848 14.8873 265.231 16.7861 266.002 19.0847C266.485 20.556 266.247 22.044 265.336 23.2932Z" fill="#FFBA53"/>
<path d="M267.184 40.8545C266.601 43.7472 265.124 46.1679 262.787 48.039C261.688 48.9162 260.505 49.5825 259.25 50.0488C257.779 47.3005 256.624 44.3746 255.847 41.3153C256.23 41.2154 256.574 41.0377 256.902 40.7934C257.49 40.3493 257.857 39.8163 258.046 39.1111C258.329 38.0285 258.162 37.1346 257.49 36.2573C256.846 35.4079 256.091 35.0192 255.053 34.9915C254.959 34.9915 254.864 34.9859 254.77 34.9859C254.681 33.9032 254.631 32.8039 254.631 31.6935C254.631 29.6336 254.792 27.6016 255.103 25.625C258.967 25.6639 262.182 27.2185 264.641 30.2499C267.14 33.3258 268.001 36.9014 267.184 40.8545Z" fill="#FFBA53"/>
<path d="M259.251 50.1218C257.874 50.6326 256.403 50.888 254.854 50.888C252.066 50.888 249.54 50.0329 247.319 48.3395C245.165 46.6906 243.677 44.5363 242.905 41.9379C242.472 40.4888 242.717 39.0231 243.594 37.8071C244.482 36.5635 245.815 35.875 247.353 35.875C249.546 35.875 251.211 37.1298 251.805 39.2118C252.005 39.8892 252.361 40.4166 252.944 40.8664C253.516 41.3105 254.11 41.516 254.837 41.516C255.209 41.516 255.548 41.4771 255.853 41.3883C256.625 44.4475 257.78 47.3735 259.251 50.1218Z" fill="#F63B4B"/>
<path d="M259.878 12.2716C258.318 14.9755 257.074 17.8626 256.192 20.883C255.864 20.6831 255.525 20.5942 255.137 20.5942H254.998C254.37 20.5942 253.926 20.7775 253.499 21.2216C253.027 21.6936 252.827 22.1822 252.827 22.8262V23.5591C252.827 24.1754 253.016 24.6306 253.46 25.0582C253.921 25.5079 254.398 25.7022 255.042 25.7022H255.103C254.792 27.6788 254.631 29.7108 254.631 31.7707C254.631 32.8756 254.676 33.9749 254.77 35.0631C251.722 34.941 249.074 33.7972 246.919 31.6597C244.66 29.4388 243.516 26.6905 243.516 23.498V22.8262C243.516 19.6393 244.649 16.8854 246.886 14.6313C249.107 12.3882 251.844 11.25 255.003 11.25H255.142C256.824 11.25 258.412 11.5942 259.878 12.2716Z" fill="#F63B4B"/>
<path d="M232.851 16.1194C232.851 17.3797 232.384 18.5068 231.507 19.3896C230.652 20.2779 229.514 20.7665 228.237 20.7665H224.756V46.1842C224.756 47.4279 224.295 48.5494 223.434 49.4433C222.479 50.3649 221.363 50.8202 220.136 50.8202C218.876 50.8202 217.754 50.3538 216.866 49.4766C215.972 48.5827 215.5 47.4445 215.5 46.1842V20.761H212.041C210.781 20.761 209.637 20.2779 208.743 19.384C207.866 18.5068 207.4 17.3742 207.4 16.1138C207.4 14.8924 207.86 13.7708 208.715 12.8769C209.67 11.9608 210.798 11.5 212.047 11.5H228.242C229.503 11.5 230.635 11.9664 231.513 12.8436C232.401 13.7764 232.851 14.8979 232.851 16.1194Z" fill="#F63B4B"/>
<path d="M206.433 90.2615C207.327 91.1554 207.799 92.2825 207.799 93.5317C207.799 94.7865 207.327 95.9192 206.433 96.8242C205.545 97.7014 204.423 98.1678 203.163 98.1678H191.52C190.276 98.1678 189.155 97.7069 188.261 96.8519C187.339 95.8969 186.884 94.7699 186.884 93.5317V63.9888C186.884 62.7618 187.334 61.6458 188.2 60.7519C189.155 59.8303 190.276 59.375 191.52 59.375H203.163C204.423 59.375 205.545 59.8414 206.433 60.7186C207.327 61.6181 207.799 62.7396 207.799 63.9888C207.799 65.2658 207.316 66.404 206.4 67.2868C205.573 68.1418 204.44 68.6249 203.163 68.6249H196.128V72.9555H201.742C202.985 72.9555 204.107 73.4052 205.001 74.2714C205.917 75.1819 206.383 76.309 206.383 77.5694C206.383 78.8297 205.917 79.9568 205.034 80.8396C204.14 81.7335 203.002 82.2054 201.742 82.2054H196.128V88.9179H203.163C204.423 88.9068 205.545 89.3732 206.433 90.2615Z" fill="#F63B4B"/>
<path d="M196.129 15.8638V46.234C196.129 47.4777 195.679 48.5992 194.813 49.4931C193.858 50.4148 192.742 50.87 191.515 50.87C190.271 50.87 189.149 50.4203 188.256 49.5542L188.195 49.4931C187.334 48.5992 186.879 47.4777 186.879 46.234V15.8638C186.879 14.6035 187.345 13.4764 188.222 12.5936C189.144 11.6997 190.271 11.25 191.515 11.25C192.742 11.25 193.858 11.6997 194.752 12.5659C195.662 13.4709 196.129 14.6035 196.129 15.8638Z" fill="#F63B4B"/>
<path d="M133.039 140.91V167.577C132.64 167.577 132.24 167.577 131.84 167.572C112.308 166.955 96.462 150.937 96.0345 131.4C96.0178 130.844 96.0178 130.284 96.0345 129.728C96.2954 118.119 110.476 112.578 118.682 120.784C121.219 123.321 122.785 126.758 122.696 130.345C122.679 131 122.735 131.672 122.846 132.36C123.612 136.813 127.287 140.311 131.774 140.838C132.207 140.888 132.629 140.91 133.039 140.91Z" fill="#009298"/>
<path d="M159.218 156.741C152.522 163.437 143.256 167.562 133.04 167.568V140.901C135.894 140.901 138.487 139.746 140.358 137.875L159.218 156.741Z" fill="#FFBA53"/>
<path d="M159.218 156.821L140.357 137.96C142.495 135.817 143.7 132.747 143.311 129.41C142.789 124.935 139.308 121.248 134.872 120.465C134.183 120.343 133.511 120.288 132.856 120.304H132.656C129.153 120.304 125.822 118.755 123.34 116.274C115.123 108.062 120.675 93.8707 132.29 93.6375C132.823 93.6208 133.362 93.6208 133.9 93.6375C153.416 94.0817 169.417 109.927 170.033 129.438C170.372 140.137 166.175 149.858 159.218 156.821Z" fill="#11354F"/>
<path d="M133.162 48.1305C133.056 48.1305 132.939 48.1305 132.834 48.1249C132.834 48.1305 132.834 48.1305 132.834 48.1416C132.951 48.136 133.056 48.1305 133.162 48.1305Z" fill="#FFCC60"/>
<path d="M132.834 48.1361C132.768 48.7024 132.69 49.3021 132.584 49.9294C131.996 53.6105 130.691 58.2465 127.887 62.8215C127.277 63.8153 126.605 64.8092 125.839 65.7919C122.019 70.6944 117.355 73.787 112.719 75.7136C106.589 78.2787 100.51 78.7894 96.5677 78.7839H96.551C99.4048 61.7499 113.624 48.7135 130.919 48.125C131.324 48.1417 131.729 48.1472 132.14 48.1472C132.368 48.1417 132.607 48.1417 132.834 48.1361Z" fill="#FFBA53"/>
<path d="M132.834 48.1342C132.834 48.1398 132.834 48.1398 132.834 48.1509C132.834 48.1564 132.834 48.1564 132.834 48.1675C132.607 48.1731 132.368 48.1731 132.146 48.1731C131.735 48.1731 131.33 48.1675 130.925 48.1509C131.33 48.1342 131.735 48.1286 132.146 48.1286C132.368 48.1231 132.607 48.1231 132.834 48.1342Z" fill="#FFBA53"/>
<path d="M133.04 85.1078V85.1022H96.0297C96.0297 82.948 96.2129 80.8271 96.5627 78.7783H96.5683C100.51 78.7839 106.584 78.2731 112.719 75.708C117.355 73.7814 122.019 70.6889 125.839 65.7863C126.605 64.8036 127.277 63.8098 127.888 62.816C130.692 58.241 131.996 53.605 132.585 49.9239C132.69 49.2965 132.768 48.6969 132.835 48.1306C132.951 48.1306 133.057 48.1306 133.162 48.125H133.246C133.285 48.4082 133.312 48.6969 133.362 48.9967V49.0022C133.401 49.3076 133.446 49.613 133.501 49.935C133.557 50.2792 133.618 50.629 133.684 50.9955C133.706 51.112 133.729 51.2342 133.762 51.3563C133.806 51.6006 133.862 51.8505 133.917 52.0948C134.034 52.6 134.156 53.1108 134.289 53.6272C134.428 54.1546 134.589 54.6821 134.756 55.2206C135.017 56.0479 135.311 56.8863 135.655 57.7469C135.722 57.9079 135.783 58.0689 135.861 58.2354C135.961 58.4797 136.061 58.7185 136.172 58.9628C136.272 59.2015 136.377 59.4291 136.494 59.6679C136.571 59.8289 136.644 59.9899 136.732 60.1509C136.91 60.5174 137.099 60.8894 137.304 61.2669C137.426 61.5056 137.554 61.7333 137.693 61.9609C137.854 62.2496 138.02 62.5439 138.198 62.8215C138.809 63.8153 139.481 64.8092 140.247 65.7863C144.067 70.6944 148.731 73.7814 153.367 75.7136C159.507 78.2731 165.587 78.7894 169.534 78.7783C169.879 80.8326 170.062 82.948 170.062 85.1078H133.04Z" fill="#F63B4B"/>
<path d="M133.245 48.125C133.245 48.1306 133.245 48.1306 133.245 48.1417H133.162C133.056 48.1472 132.951 48.1472 132.834 48.1472C132.834 48.1417 132.834 48.1417 132.834 48.1305C132.939 48.125 133.056 48.125 133.162 48.125H133.245Z" fill="#F63B4B"/>
<path d="M133.684 51.0605C133.617 50.694 133.556 50.3442 133.5 50C133.539 50.2276 133.578 50.4664 133.622 50.7051C133.634 50.8162 133.656 50.9383 133.684 51.0605Z" fill="#F63B4B"/>
<path d="M169.528 78.795C165.581 78.8117 159.501 78.2898 153.361 75.7302C148.725 73.7981 144.061 70.7111 140.241 65.803C139.475 64.8258 138.803 63.832 138.192 62.8382C138.015 62.555 137.848 62.2663 137.687 61.9776C137.548 61.7499 137.42 61.5167 137.298 61.2836C137.093 60.9116 136.899 60.534 136.726 60.1676C136.643 60.0066 136.565 59.8456 136.488 59.6845C136.371 59.4458 136.266 59.2182 136.166 58.9794C136.049 58.7351 135.955 58.4964 135.855 58.2521C135.777 58.0855 135.716 57.9245 135.649 57.7635C135.305 56.9029 135.005 56.059 134.75 55.2373C134.583 54.6932 134.422 54.1657 134.283 53.6438C134.145 53.1219 134.023 52.6111 133.911 52.1114C133.856 51.8671 133.806 51.6173 133.756 51.373C133.701 51.1287 133.656 50.89 133.617 50.6568C133.573 50.418 133.534 50.1848 133.495 49.9517C133.44 49.6407 133.395 49.3243 133.356 49.0189V49.0133C133.312 48.7135 133.279 48.4248 133.24 48.1417C133.467 48.1472 133.706 48.1472 133.928 48.1472C134.289 48.1472 134.639 48.1417 135 48.125H135.055C152.406 48.6747 166.664 61.7388 169.528 78.795Z" fill="#FFBA53"/>
<path d="M135.009 48.1417C134.648 48.1583 134.298 48.1639 133.937 48.1639C133.715 48.1639 133.476 48.1639 133.249 48.1583C133.249 48.1528 133.249 48.1528 133.249 48.1417C133.476 48.125 133.715 48.125 133.937 48.125C134.298 48.125 134.653 48.1361 135.009 48.1417Z" fill="#FFBA53"/>
<path d="M166.075 28.1367C164.67 30.9239 162.944 33.5223 160.923 35.8431C154.538 43.1886 145.343 47.9134 135.061 48.2299H135.005C134.655 48.2244 134.295 48.2133 133.934 48.2133C133.712 48.2133 133.473 48.2133 133.245 48.2299H133.162C133.056 48.2299 132.951 48.2244 132.834 48.2244C132.607 48.2188 132.368 48.2188 132.146 48.2188C131.735 48.2188 131.33 48.2244 130.924 48.241C120.747 47.8968 111.636 43.233 105.274 35.9986C102.592 32.9449 100.393 29.4248 98.8275 25.5605C102.797 22.2404 108.716 20.125 115.328 20.125C121.391 20.125 126.882 21.8961 130.797 24.7499C130.797 24.7499 130.802 24.7499 130.802 24.7555C131.663 25.3718 132.446 26.0547 133.14 26.7765C135.127 28.6531 137.731 30.1466 140.724 31.1682C143.733 32.1898 147.131 32.7561 150.679 32.7561C150.968 32.7561 151.251 32.7395 151.528 32.7339C155.326 32.6284 158.957 31.7512 162.355 30.3465C163.493 29.8745 164.692 29.3027 165.631 28.5587C165.792 28.431 165.936 28.2811 166.075 28.1367Z" fill="#F63B4B"/>
<path d="M135.005 48.1472C134.644 48.1639 134.295 48.1694 133.934 48.1694C133.712 48.1694 133.473 48.1694 133.245 48.1639H133.162C133.056 48.1694 132.951 48.1694 132.834 48.1694C132.607 48.175 132.368 48.175 132.146 48.175C131.735 48.175 131.33 48.1694 130.924 48.1528C131.33 48.1361 131.735 48.1306 132.146 48.1306C132.368 48.1306 132.607 48.1306 132.834 48.1361C132.951 48.1361 133.056 48.1417 133.162 48.1417H133.245C133.473 48.125 133.712 48.125 133.934 48.125C134.295 48.1306 134.65 48.1417 135.005 48.1472Z" fill="#F63B4B"/>
<path d="M169.517 17.5683H169.522C168.973 20.8607 167.996 23.9977 166.657 26.9237C166.713 26.5184 166.602 26.1075 166.285 25.73C165.997 25.3691 165.58 25.1137 165.147 24.8916C165.047 24.8472 164.942 24.7917 164.842 24.7528C158.535 21.8435 151.023 24.0477 144.665 25.6078C140.024 26.746 134.977 27.3123 130.807 24.7528C130.807 24.7472 130.802 24.7472 130.802 24.7472C126.882 21.8934 121.396 20.1223 115.334 20.1223C108.721 20.1223 102.802 22.2377 98.8326 25.5579C97.7888 23.0372 97.0226 20.3666 96.5673 17.5794C96.2175 15.5307 96.0343 13.4098 96.0343 11.2556H133.039V11.25H170.061C170.05 13.3987 169.867 15.514 169.517 17.5683Z" fill="#FFBA53"/>
<path d="M166.663 26.8381C166.48 27.2489 166.28 27.6653 166.074 28.054C165.936 28.1983 165.791 28.3427 165.641 28.4759C164.703 29.2144 163.504 29.7918 162.366 30.2637C158.968 31.6684 155.331 32.5457 151.539 32.6511C151.261 32.6567 150.984 32.6734 150.689 32.6734C147.136 32.6734 143.738 32.107 140.734 31.0854C137.742 30.0638 135.138 28.5759 133.15 26.6937C132.456 25.9664 131.679 25.289 130.813 24.6727C134.982 27.2323 140.029 26.6659 144.671 25.5278C151.023 23.9676 158.54 21.7634 164.847 24.6727C164.947 24.7116 165.053 24.7616 165.153 24.8115C165.586 25.0336 166.002 25.2946 166.291 25.6499C166.607 26.0163 166.713 26.4327 166.663 26.8381Z" fill="#11354F"/>
<path d="M44.7723 63.0223C44.7723 63.733 45.3386 64.3048 46.0548 64.3048H62.5891C58.747 83.3598 46.8377 82.8712 32.4132 82.7546C28.3824 81.1611 24.7013 78.8847 21.5033 76.0754C20.6649 75.3425 19.8488 74.5541 19.077 73.749C15.0073 69.4572 11.937 64.1938 10.2713 58.3474C9.34967 55.0938 8.84998 51.6737 8.84998 48.1315C8.84998 45.7885 9.07206 43.4788 9.49402 41.2579C11.7093 29.3763 19.5823 19.4769 30.209 14.4633C45.3664 14.4189 58.1363 12.3091 62.3892 31.575H46.0548C45.3386 31.575 44.7723 32.158 44.7723 32.8631C44.7723 33.5738 45.3386 34.1512 46.0548 34.1512H62.8778C63.5441 38.121 63.8938 42.8847 63.8938 48.5978C63.8938 53.7002 63.594 58.0365 63.0388 61.7342H46.0548C45.3386 61.7342 44.7723 62.3061 44.7723 63.0223Z" fill="#009298"/>
<path d="M201.415 130.406L199.71 133.149C198.894 133.515 198.095 133.932 197.312 134.398C196.273 134.992 195.291 135.669 194.352 136.413C194.025 136.674 193.703 136.941 193.392 137.207C191.432 138.912 189.733 140.888 188.351 143.093C188.029 143.592 187.74 144.098 187.457 144.625C187.257 144.325 187.118 143.992 187.029 143.631C186.84 142.837 186.974 142.038 187.423 141.333C196.473 126.869 196.512 126.814 196.529 126.792C196.773 126.414 196.868 126.014 196.818 125.553C196.773 125.082 196.612 124.715 196.312 124.393L196.173 124.276C195.779 123.877 195.341 123.693 194.797 123.693C194.652 123.693 194.33 123.727 193.758 123.954C193.309 124.199 193.02 124.549 192.848 125.048C192.431 126.32 191.393 127.058 190.005 127.058C189.006 127.058 188.134 126.619 187.545 125.826C186.94 125.009 186.779 124.038 187.101 123.094C187.623 121.578 188.523 120.318 189.777 119.33C191.066 118.336 192.52 117.775 194.114 117.647C194.147 117.642 194.18 117.636 194.214 117.636L194.391 117.625H194.802C197.001 117.625 198.911 118.413 200.465 119.968L200.554 120.057C201.953 121.456 202.736 123.16 202.875 125.131C203.014 127.075 202.525 128.846 201.415 130.406Z" fill="#11354F"/>
<path d="M202.402 144.583C202.702 144.1 202.858 143.545 202.858 142.951C202.858 142.135 202.552 141.391 201.958 140.774C201.37 140.186 200.62 139.881 199.782 139.881H195.59L195.595 139.875H199.871C200.698 139.875 201.436 140.18 202.014 140.758C202.597 141.363 202.896 142.101 202.896 142.906C202.896 143.517 202.73 144.089 202.402 144.583Z" fill="#11354F"/>
<path d="M220.719 139.865C220.158 139.865 219.714 139.677 219.325 139.271C218.915 138.849 218.726 138.366 218.726 137.75V137.839C218.726 138.427 218.903 138.894 219.298 139.299C219.675 139.693 220.086 139.871 220.625 139.871H220.736C220.763 139.871 220.797 139.871 220.825 139.865H220.719Z" fill="#11354F"/>
<path d="M228.875 125.439V137.76C228.875 139.786 228.231 141.563 226.959 143.056C228.108 141.652 228.719 140.014 228.78 138.154C228.314 137.704 227.836 137.271 227.337 136.855C226.865 136.46 226.382 136.077 225.888 135.722C225.765 135.633 225.643 135.544 225.521 135.461C225.049 135.133 224.561 134.811 224.072 134.523C223.661 134.267 223.234 134.029 222.806 133.801V125.439C222.806 124.834 222.612 124.351 222.195 123.913C221.812 123.513 221.374 123.324 220.824 123.324H220.719C220.163 123.324 219.719 123.513 219.325 123.924C218.92 124.346 218.725 124.834 218.725 125.439V132.063C218.253 131.908 217.765 131.763 217.276 131.636C216.799 131.502 216.31 131.397 215.822 131.297C215.699 131.269 215.577 131.247 215.455 131.23C214.978 131.13 214.495 131.053 214.006 130.992C213.556 130.93 213.107 130.886 212.651 130.853V125.439C212.651 123.196 213.445 121.248 215.005 119.66C216.577 118.061 218.498 117.25 220.719 117.25H220.824C223.034 117.25 224.955 118.061 226.521 119.66C228.081 121.248 228.875 123.196 228.875 125.439Z" fill="#11354F"/>
<path d="M251.578 139.911H247.22L253.122 130.406C254.232 128.846 254.726 127.069 254.582 125.131C254.437 123.166 253.66 121.456 252.261 120.057L252.172 119.968C250.618 118.413 248.708 117.625 246.509 117.625C246.492 117.625 246.47 117.625 246.454 117.625H246.104L245.932 117.636C245.898 117.642 245.865 117.647 245.832 117.653C244.238 117.775 242.784 118.341 241.495 119.335C240.241 120.323 239.341 121.584 238.819 123.099C238.497 124.043 238.658 125.02 239.264 125.831C239.852 126.625 240.724 127.064 241.723 127.064C243.111 127.064 244.149 126.325 244.571 125.048C244.743 124.549 245.032 124.199 245.482 123.954C246.054 123.727 246.376 123.693 246.52 123.693C247.064 123.693 247.503 123.877 247.897 124.271L248.03 124.388C248.336 124.71 248.491 125.07 248.536 125.548C248.586 126.009 248.491 126.408 248.247 126.786C248.23 126.808 248.197 126.864 239.141 141.327C238.692 142.032 238.558 142.832 238.753 143.626C238.941 144.414 239.391 145.064 240.063 145.508L240.119 145.541C240.579 145.813 241.085 145.958 241.673 145.98H251.595C252.422 145.98 253.161 145.674 253.755 145.08C254.321 144.492 254.621 143.753 254.621 142.937C254.621 142.132 254.321 141.399 253.738 140.794C253.149 140.217 252.405 139.911 251.578 139.911Z" fill="#11354F"/>
<path d="M274.469 118.133C273.892 117.555 273.148 117.25 272.326 117.25C271.504 117.25 270.76 117.555 270.183 118.133L264.897 123.418C264.32 123.996 264.015 124.74 264.015 125.562C264.015 126.367 264.314 127.105 264.914 127.721C265.503 128.288 266.241 128.587 267.057 128.587C267.862 128.587 268.595 128.288 269.2 127.705L269.3 127.605V142.967C269.3 143.784 269.6 144.528 270.183 145.127C270.76 145.705 271.504 146.01 272.326 146.01C273.148 146.01 273.892 145.705 274.469 145.127C275.058 144.539 275.369 143.789 275.369 142.967V120.27C275.369 119.443 275.052 118.694 274.469 118.133Z" fill="#11354F"/>
<path d="M228.78 138.176C228.719 140.036 228.108 141.674 226.959 143.079C226.82 143.245 226.676 143.406 226.521 143.567C224.955 145.161 223.034 145.971 220.824 145.971H220.719C218.498 145.971 216.577 145.161 215.005 143.567C213.445 141.974 212.651 140.03 212.651 137.782V130.875C213.107 130.908 213.556 130.953 214.006 131.014C214.495 131.075 214.978 131.153 215.455 131.253C215.577 131.269 215.699 131.291 215.822 131.319C216.31 131.419 216.799 131.525 217.276 131.658C217.765 131.786 218.253 131.93 218.725 132.085V137.871C218.725 138.459 218.903 138.926 219.297 139.331C219.675 139.725 220.086 139.903 220.624 139.903H220.735C220.763 139.903 220.796 139.903 220.824 139.897C220.863 139.897 220.896 139.897 220.935 139.892C221.435 139.869 221.84 139.681 222.207 139.303C222.612 138.881 222.806 138.398 222.806 137.782V133.823C223.234 134.051 223.661 134.29 224.072 134.545C224.561 134.834 225.049 135.156 225.521 135.483C225.643 135.567 225.765 135.655 225.888 135.744C226.382 136.1 226.865 136.483 227.337 136.877C227.836 137.293 228.314 137.726 228.78 138.176Z" fill="#009298"/>
<path d="M222.206 139.33C221.839 139.707 221.434 139.896 220.934 139.918C221.368 139.88 221.717 139.702 222.045 139.358C222.434 138.952 222.617 138.486 222.617 137.897V133.75C222.678 133.783 222.744 133.817 222.806 133.85V137.809C222.806 138.425 222.611 138.908 222.206 139.33Z" fill="#009298"/>
<path d="M226.52 143.578C226.492 143.612 226.459 143.639 226.431 143.673C224.866 145.266 222.939 146.082 220.735 146.082H220.624C218.403 146.082 216.482 145.266 214.905 143.673C213.35 142.085 212.556 140.136 212.556 137.882V130.875C212.59 130.875 212.618 130.881 212.651 130.886V137.793C212.651 140.042 213.445 141.985 215.005 143.578C216.576 145.172 218.497 145.982 220.718 145.982H220.824C223.033 145.982 224.954 145.172 226.52 143.578Z" fill="#009298"/>
<path d="M202.857 142.963C202.857 143.557 202.702 144.113 202.402 144.596C202.396 144.601 202.396 144.612 202.385 144.618C202.285 144.773 202.163 144.923 202.03 145.062C201.436 145.656 200.697 145.962 199.87 145.962H189.948C189.36 145.939 188.855 145.795 188.394 145.523L188.344 145.49C187.983 145.251 187.683 144.951 187.456 144.601C187.739 144.074 188.027 143.569 188.349 143.069C189.732 140.865 191.431 138.888 193.391 137.184C193.702 136.917 194.024 136.651 194.351 136.39C195.29 135.646 196.272 134.968 197.311 134.374C198.093 133.908 198.893 133.491 199.709 133.125L195.512 139.888H195.595L195.589 139.893H199.781C200.62 139.893 201.369 140.198 201.958 140.787C202.552 141.403 202.857 142.147 202.857 142.963Z" fill="#009298"/>
<path d="M195.595 139.943H195.512L199.709 133.181C199.748 133.158 199.793 133.142 199.832 133.125L195.595 139.943Z" fill="#009298"/>
<path d="M202.386 144.642C202.275 144.825 202.136 145.003 201.98 145.164C201.375 145.774 200.62 146.085 199.782 146.085H189.943C189.344 146.063 188.827 145.913 188.367 145.635C187.967 145.38 187.645 145.069 187.412 144.714C187.428 144.686 187.445 144.653 187.456 144.625C187.684 144.975 187.983 145.275 188.344 145.513L188.394 145.547C188.855 145.819 189.36 145.963 189.949 145.985H199.871C200.698 145.985 201.436 145.68 202.03 145.086C202.164 144.947 202.286 144.797 202.386 144.642Z" fill="#009298"/>
</svg>
