<svg width="281" height="294" viewBox="0 0 281 294" fill="none" xmlns="http://www.w3.org/2000/svg">
<path d="M77.0739 10.2923L62.8146 3.65143C61.7651 3.16307 60.6288 2.91089 59.4728 2.91089H11.0095C6.58651 2.91089 3 6.54957 3 11.0369V282.7C3 287.187 6.58257 290.822 11.0055 290.822H269.994C274.417 290.822 278 287.187 278 282.7V19.1588C278 14.6715 274.417 11.0369 269.994 11.0369H80.4118C79.2597 11.0369 78.1194 10.7807 77.0739 10.2923Z" fill="white" stroke="#FFB953" stroke-width="5.6289" stroke-miterlimit="10"/>
<path d="M197.273 105.863H79.3445V185.148H197.273V105.863Z" fill="white"/>
<path d="M77.0487 102.398C75.8511 104.922 74.6594 107.446 73.4618 109.969C72.2 138.588 70.9382 167.213 69.6763 195.832C116.89 195.832 164.109 195.832 211.323 195.832C210.657 168.539 209.996 141.246 209.331 113.953C207.87 110.764 206.41 107.58 204.949 104.39C202.56 102.661 200.171 100.938 197.775 99.2087C159.523 99.3431 121.277 99.4716 83.0249 99.606C81.0328 100.541 79.0407 101.47 77.0487 102.398ZM116.148 160.571C115.71 161.512 114.769 161.739 114.652 161.769C115.313 162.055 115.727 162.709 115.698 163.41C115.669 164.059 115.26 164.643 114.652 164.906C115.085 165.355 115.266 165.981 115.102 166.547C114.892 167.277 114.15 167.792 113.309 167.745C108.478 167.797 103.646 167.844 98.8153 167.897C97.5184 165.992 97.1503 164.251 97.0218 163.264C96.9809 162.931 96.3208 157.124 100.159 154.601C101.316 153.841 102.507 153.619 103.296 153.555C105.685 153.555 108.075 153.555 110.47 153.555C110.499 153.678 110.75 154.764 110.02 155.646C109.43 156.365 108.425 156.663 107.479 156.394C106.632 156.394 105.785 156.394 104.932 156.394C104.634 157.089 104.336 157.79 104.038 158.486C108.022 158.486 112.006 158.486 115.99 158.486C116.037 158.544 116.639 159.52 116.148 160.571ZM118.087 133.594C117.153 134.394 116.072 134.604 115.096 134.791C113.583 135.083 112.31 134.943 111.509 134.791C111.509 136.386 111.509 137.981 111.509 139.57C110.516 141.62 108.378 142.87 106.129 142.707C103.991 142.555 102.116 141.153 101.351 139.12C101.351 137.128 101.351 135.136 101.351 133.144C101.351 132.098 101.351 131.052 101.351 130.007C99.2943 129.878 97.7813 128.108 97.9156 126.274C98.0558 124.299 100.06 122.699 102.25 123.119C102.25 121.723 102.25 120.333 102.25 118.937C108.086 118.937 113.922 118.937 119.752 118.937C119.752 122.377 119.752 125.824 119.752 129.265C119.77 129.791 119.776 132.145 118.087 133.594ZM161.743 129.265C161.661 126.852 161.258 126.151 161.743 121.723C162.374 120.899 164.822 117.885 169.086 117.137C173.327 116.389 177.744 118.171 180.641 121.717C180.641 124.708 180.641 127.693 180.641 130.684C180.554 131.508 180.262 133.05 179.047 134.073C178.065 134.896 176.932 135.001 174.864 135.072C172.977 135.13 170.512 135.153 167.591 135.019C166.82 135.042 164.822 134.996 163.408 133.594C162.322 132.513 161.807 131.14 161.743 129.265ZM183.083 163.258C182.955 164.24 182.587 165.986 181.29 167.891C176.459 167.838 171.628 167.792 166.796 167.739C165.955 167.786 165.213 167.272 165.003 166.541C164.839 165.975 165.015 165.344 165.453 164.9C164.845 164.637 164.436 164.059 164.407 163.404C164.378 162.703 164.793 162.043 165.453 161.763C165.342 161.739 164.395 161.506 163.957 160.565C163.467 159.514 164.068 158.538 164.109 158.474C168.093 158.474 172.077 158.474 176.061 158.474C175.764 157.779 175.466 157.078 175.168 156.382C174.321 156.382 173.474 156.382 172.621 156.382C171.674 156.651 170.675 156.353 170.079 155.635C169.355 154.753 169.6 153.666 169.63 153.543C172.019 153.543 174.408 153.543 176.803 153.543C177.592 153.608 178.784 153.83 179.94 154.589C183.784 157.119 183.124 162.925 183.083 163.258Z" fill="#F9D797"/>
<path d="M191.998 149.612C191.793 148.478 191.028 145.114 188.014 142.438C183.743 138.653 178.439 139.354 177.656 139.47C176.692 141.568 174.543 142.859 172.276 142.707C170.138 142.561 168.263 141.159 167.497 139.12C166.323 139.067 162.783 139.062 159.331 141.445C155.212 144.284 154.131 148.496 153.904 149.501C153.904 159.607 153.904 169.719 153.904 179.826C166.656 179.907 179.403 179.995 192.156 180.077C192.097 169.924 192.05 159.771 191.998 149.612ZM183.083 163.258C182.955 164.24 182.587 165.986 181.29 167.891C176.459 167.838 171.628 167.791 166.796 167.739C165.955 167.786 165.213 167.272 165.003 166.541C164.839 165.975 165.015 165.344 165.453 164.9C164.845 164.637 164.436 164.059 164.407 163.404C164.378 162.703 164.793 162.043 165.453 161.763C165.342 161.739 164.395 161.506 163.957 160.565C163.467 159.514 164.068 158.538 164.109 158.474C168.093 158.474 172.077 158.474 176.061 158.474C175.764 157.779 175.466 157.078 175.168 156.382C174.321 156.382 173.474 156.382 172.621 156.382C171.674 156.651 170.675 156.353 170.079 155.635C169.355 154.753 169.6 153.666 169.63 153.543C172.019 153.543 174.408 153.543 176.803 153.543C177.592 153.608 178.784 153.83 179.94 154.589C183.784 157.119 183.124 162.925 183.083 163.258Z" fill="#88C3BF"/>
<path d="M125.857 149.612C125.653 148.478 124.887 145.114 121.873 142.438C117.603 138.653 112.298 139.354 111.515 139.47C110.551 141.568 108.402 142.859 106.135 142.707C103.997 142.561 102.122 141.159 101.356 139.12C100.182 139.067 96.6421 139.062 93.1896 141.445C89.0711 144.284 87.9904 148.496 87.7626 149.501C87.7626 159.607 87.7626 169.719 87.7626 179.826C100.515 179.907 113.262 179.995 126.015 180.077C125.956 169.924 125.91 159.771 125.857 149.612ZM116.148 160.571C115.71 161.512 114.769 161.739 114.652 161.769C115.313 162.055 115.727 162.709 115.698 163.41C115.669 164.059 115.26 164.643 114.652 164.906C115.085 165.355 115.266 165.981 115.102 166.547C114.892 167.277 114.15 167.791 113.309 167.745C108.478 167.797 103.646 167.844 98.8153 167.897C97.5184 165.992 97.1504 164.251 97.0218 163.264C96.9809 162.931 96.3208 157.124 100.159 154.601C101.316 153.841 102.507 153.619 103.296 153.555C105.685 153.555 108.075 153.555 110.47 153.555C110.499 153.678 110.75 154.764 110.02 155.646C109.43 156.365 108.425 156.663 107.479 156.394C106.632 156.394 105.785 156.394 104.932 156.394C104.634 157.089 104.336 157.79 104.038 158.486C108.022 158.486 112.006 158.486 115.99 158.486C116.037 158.544 116.639 159.519 116.148 160.571Z" fill="#88C3BF"/>
<path d="M206.369 180.293H74.5718V192.543H206.369V180.293Z" fill="#EA3546"/>
<path d="M102.25 118.936C108.086 118.936 113.922 118.936 119.752 118.936C120.313 118.633 121.762 117.751 122.568 115.963C123.918 112.978 122.293 110.133 122.118 109.835C121.727 110.302 121.043 110.992 120.027 111.477C118.73 112.096 117.538 112.078 117.036 112.072C114.728 112.049 108.904 112.09 101.047 112.072C99.7208 112.306 97.5534 112.925 95.9645 114.76C94.4748 116.489 93.8731 118.422 93.8731 121.186C93.8731 123.277 93.8731 125.368 93.8731 127.46C94.0542 128.032 95.205 131.426 98.5057 132.688C99.5864 133.103 100.591 133.167 101.345 133.138C101.345 132.092 101.345 131.047 101.345 130.001C99.2885 129.872 97.7754 128.102 97.9098 126.268C98.05 124.293 100.054 122.693 102.244 123.113C102.25 121.729 102.25 120.333 102.25 118.936Z" fill="#EA3546"/>
<path d="M225.617 120.701L240 116.144L235.262 109.099L225.617 120.701Z" fill="#FFBA53"/>
<path d="M222.329 119.468L229.029 109.111L222.375 107.136L222.329 119.468Z" fill="#FFBA53"/>
<path d="M224.858 125.853L234.082 129.761L234.731 124.159L224.858 125.853Z" fill="#FFBA53"/>
<path d="M54.8557 150.202L40 152.837L43.7738 160.437L54.8557 150.202Z" fill="#FFBA53"/>
<path d="M57.9519 151.861L49.9545 161.243L56.287 164.076L57.9519 151.861Z" fill="#FFBA53"/>
<path d="M56.287 145.195L47.6528 140.113L46.2741 145.575L56.287 145.195Z" fill="#FFBA53"/>
<path d="M74.5718 180.293C118.508 180.293 162.444 180.293 206.38 180.293" stroke="black" stroke-width="2.281" stroke-miterlimit="10" stroke-linecap="round" stroke-linejoin="round"/>
<path d="M140.479 99.4951C140.479 126.496 140.479 153.491 140.479 180.492" stroke="black" stroke-width="2.281" stroke-miterlimit="10" stroke-linecap="round" stroke-linejoin="round"/>
<path d="M100.907 138.974C99.4638 139.155 96.0288 139.763 92.8391 142.105C89.0478 144.892 88.0313 148.362 87.7568 149.501C87.7568 157.23 87.7568 172.103 87.7568 179.826" stroke="black" stroke-width="2.281" stroke-miterlimit="10" stroke-linecap="round" stroke-linejoin="round"/>
<path d="M111.515 139.476C112.923 139.441 116.469 139.517 119.881 141.48C125.577 144.752 125.974 150.436 126.009 151.131C126.009 159.07 126.009 172.144 126.009 180.083" stroke="black" stroke-width="2.0461" stroke-miterlimit="10" stroke-linecap="round" stroke-linejoin="round"/>
<path d="M115.698 126.706C113.455 126.706 111.217 126.706 108.974 126.706C108.811 128.71 110.388 130.416 112.263 130.456C114.191 130.497 115.862 128.768 115.698 126.706Z" fill="#EA3546"/>
<path d="M98.5641 139.85C99.8668 143.034 102.928 145.149 106.334 145.231C109.88 145.312 113.139 143.168 114.501 139.85" stroke="black" stroke-width="2.281" stroke-miterlimit="10" stroke-linecap="round" stroke-linejoin="round"/>
<path d="M101.351 167.891C96.8991 167.891 92.4535 167.891 88.0021 167.891" stroke="black" stroke-width="2.281" stroke-miterlimit="10" stroke-linecap="round" stroke-linejoin="round"/>
<path d="M92.5879 142.783C93.9023 143.349 98.2252 145.412 100.159 150.155C100.761 151.633 100.988 153.023 101.053 154.145" stroke="black" stroke-width="2.281" stroke-miterlimit="10" stroke-linecap="round" stroke-linejoin="round"/>
<path d="M107.181 168.341C107.017 169.007 106.532 170.578 105.089 171.928C104.02 172.927 102.887 173.365 102.25 173.557C100.106 173.563 97.9682 173.569 95.8243 173.575C95.4153 173.639 92.4769 174.036 90.146 171.933C88.4636 170.415 88.0955 168.498 88.0021 167.897" stroke="black" stroke-width="2.281" stroke-miterlimit="10" stroke-linecap="round" stroke-linejoin="round"/>
<path d="M187.266 142.105C188.049 142.543 189.305 143.379 190.403 144.833C191.805 146.691 192.208 148.566 192.343 149.501C192.343 159.607 192.343 169.719 192.343 179.826" stroke="black" stroke-width="2.281" stroke-miterlimit="10" stroke-linecap="round" stroke-linejoin="round"/>
<path d="M160.224 141.48C159.284 142.012 157.94 142.929 156.731 144.442C154.616 147.082 154.201 149.91 154.102 151.131C154.102 160.781 154.102 170.432 154.102 180.083" stroke="black" stroke-width="2.281" stroke-miterlimit="10" stroke-linecap="round" stroke-linejoin="round"/>
<path d="M178.749 167.891C183.2 167.891 187.646 167.891 192.097 167.891" stroke="black" stroke-width="2.281" stroke-miterlimit="10" stroke-linecap="round" stroke-linejoin="round"/>
<path d="M172.924 168.341C173.088 169.007 173.573 170.578 175.016 171.928C176.085 172.927 177.218 173.365 177.855 173.557C179.999 173.563 182.137 173.569 184.281 173.575C184.69 173.639 187.628 174.036 189.959 171.933C191.642 170.415 192.01 168.498 192.103 167.897" stroke="black" stroke-width="2.281" stroke-miterlimit="10" stroke-linecap="round" stroke-linejoin="round"/>
<path d="M187.219 119.731C187.219 119.24 187.143 115.724 184.228 113.358C182.014 111.558 179.543 111.547 178.848 111.564C176.108 111.395 169.939 111.091 164.302 111.564C163.104 111.664 161.352 111.851 159.921 113.159C158.39 114.555 158.034 116.506 157.928 117.505C157.928 121.834 157.928 126.163 157.928 130.492C157.853 131.152 157.829 132.139 158.127 133.278C158.612 135.13 159.675 136.322 160.218 136.853C160.218 138.396 160.218 139.938 160.218 141.48C160.61 142.999 161.661 146.066 164.501 148.222C168.812 151.493 175.466 151.318 181.033 147.626C181.635 146.72 182.534 145.569 183.819 144.436C185.075 143.326 186.302 142.59 187.254 142.105C187.249 134.651 187.231 127.191 187.219 119.731ZM179.047 134.073C178.065 134.896 176.932 135.002 174.864 135.072C172.977 135.13 170.512 135.153 167.591 135.019C166.82 135.042 164.822 134.996 163.408 133.594C162.316 132.513 161.807 131.14 161.743 129.265C161.661 126.852 161.258 126.151 161.743 121.723C162.374 120.899 164.822 117.885 169.086 117.137C173.327 116.39 177.744 118.171 180.641 121.717C180.641 124.708 180.641 127.693 180.641 130.684C180.554 131.508 180.262 133.056 179.047 134.073Z" fill="#EA3546"/>
<path d="M165.803 126.706C168.047 126.706 170.284 126.706 172.527 126.706C172.691 128.71 171.113 130.416 169.238 130.456C167.31 130.497 165.634 128.768 165.803 126.706Z" fill="#EA3546"/>
<path d="M187.266 142.105C185.718 142.946 181.775 145.371 179.946 150.155C179.385 151.622 179.14 152.994 179.052 154.145" stroke="black" stroke-width="2.281" stroke-miterlimit="10" stroke-linecap="round" stroke-linejoin="round"/>
<path d="M69.6763 93.6357V195.838H211.323V93.6357H69.6763ZM116.148 160.571C115.71 161.512 114.769 161.739 114.652 161.769C115.313 162.055 115.727 162.709 115.698 163.41C115.669 164.059 115.26 164.643 114.652 164.906C115.085 165.356 115.266 165.981 115.102 166.547C114.892 167.278 114.15 167.792 113.309 167.745C108.478 167.797 103.646 167.844 98.8153 167.897C97.5184 165.992 97.1503 164.251 97.0218 163.264C96.9809 162.931 96.3208 157.124 100.159 154.601C101.316 153.841 102.507 153.619 103.296 153.555C105.685 153.555 108.075 153.555 110.47 153.555C110.499 153.678 110.75 154.764 110.02 155.646C109.43 156.365 108.425 156.663 107.479 156.394C106.632 156.394 105.785 156.394 104.932 156.394C104.634 157.089 104.336 157.79 104.038 158.486C108.022 158.486 112.006 158.486 115.99 158.486C116.037 158.544 116.639 159.52 116.148 160.571ZM118.087 133.594C117.153 134.394 116.072 134.604 115.096 134.791C113.583 135.083 112.31 134.943 111.509 134.791C111.509 136.386 111.509 137.981 111.509 139.57C110.516 141.62 108.378 142.87 106.129 142.707C103.991 142.555 102.116 141.153 101.351 139.12C101.351 137.128 101.351 135.136 101.351 133.144C101.351 132.098 101.351 131.052 101.351 130.007C99.2943 129.878 97.7813 128.108 97.9156 126.274C98.0558 124.299 100.06 122.699 102.25 123.119C102.25 121.723 102.25 120.333 102.25 118.937C108.086 118.937 113.922 118.937 119.752 118.937C119.752 122.377 119.752 125.824 119.752 129.265C119.77 129.791 119.776 132.145 118.087 133.594ZM161.743 129.265C161.661 126.852 161.258 126.151 161.743 121.723C162.374 120.899 164.822 117.885 169.086 117.137C173.327 116.39 177.744 118.171 180.641 121.717C180.641 124.708 180.641 127.693 180.641 130.684C180.554 131.508 180.262 133.05 179.047 134.073C178.065 134.896 176.932 135.002 174.864 135.072C172.977 135.13 170.512 135.153 167.591 135.019C166.82 135.042 164.822 134.996 163.408 133.594C162.322 132.513 161.807 131.14 161.743 129.265ZM183.083 163.258C182.955 164.24 182.587 165.986 181.29 167.891C176.459 167.838 171.628 167.792 166.796 167.739C165.955 167.786 165.213 167.272 165.003 166.541C164.839 165.975 165.015 165.344 165.453 164.9C164.845 164.637 164.436 164.059 164.407 163.404C164.378 162.703 164.793 162.043 165.453 161.763C165.342 161.739 164.395 161.506 163.957 160.565C163.467 159.514 164.068 158.538 164.109 158.474C168.093 158.474 172.077 158.474 176.061 158.474C175.764 157.779 175.466 157.078 175.168 156.383C174.321 156.383 173.474 156.383 172.621 156.383C171.674 156.651 170.675 156.353 170.079 155.635C169.355 154.753 169.6 153.666 169.63 153.543C172.019 153.543 174.408 153.543 176.803 153.543C177.592 153.608 178.784 153.83 179.94 154.589C183.784 157.119 183.124 162.925 183.083 163.258Z" stroke="black" stroke-width="2.281" stroke-miterlimit="10" stroke-linecap="round" stroke-linejoin="round"/>
<path d="M66.6912 92V200.774H214.512V92H66.6912ZM202.157 191.252C198.547 193.671 194.744 192.701 194.189 192.549C157.514 192.549 120.839 192.549 84.1699 192.549C83.2878 192.567 80.8401 192.508 78.4917 190.837C75.1443 188.46 74.6594 184.704 74.5893 184.079C74.5893 158.17 74.5893 132.256 74.5893 106.347C74.899 105.448 75.5766 103.871 77.0487 102.398C79.0291 100.424 81.2724 99.8105 82.2304 99.6119C120.483 99.6119 158.729 99.6119 196.981 99.6119C197.629 99.5418 200.393 99.3198 202.957 101.207C205.901 103.374 206.316 106.645 206.375 107.183C206.375 132.951 206.375 158.713 206.375 184.482C206.293 185.06 205.714 188.869 202.157 191.252Z" fill="#88C3BF"/>
<path d="M196.175 192.549H84.7832C79.1517 192.549 74.5893 187.987 74.5893 182.355V109.806C74.5893 104.174 79.1517 99.6118 84.7832 99.6118H196.175C201.806 99.6118 206.369 104.174 206.369 109.806V182.349C206.369 187.981 201.806 192.549 196.175 192.549Z" stroke="black" stroke-width="2.281" stroke-miterlimit="10" stroke-linecap="round" stroke-linejoin="round"/>
<path d="M78.6435 133.08C76.5171 133.08 74.3907 133.08 72.2701 133.08C72.054 134.137 71.5925 137.128 73.269 139.85C75.5006 143.49 80.6414 145.178 85.8172 143.636C81.9733 146.142 77.0429 146.294 73.0646 144.033C69.1564 141.807 66.7788 137.589 66.8898 133.074C62.3098 133.074 57.724 133.074 53.144 133.074C52.5774 133.056 50.2757 132.928 48.494 131.146C47.384 130.036 46.9634 128.78 46.8641 128.453C46.6713 127.834 46.5662 127.179 46.5662 126.496V118.533C46.5662 114.9 49.5104 111.961 53.1382 111.961H78.6377C82.2713 111.961 85.2097 114.906 85.2097 118.533V126.502C85.1863 129.09 83.9479 131.397 81.9208 132.46C80.6297 133.15 79.3504 133.144 78.6435 133.08Z" fill="#FFBA53" stroke="black" stroke-width="2.281" stroke-miterlimit="10" stroke-linecap="round" stroke-linejoin="round"/>
<path d="M204.347 154.595C206.474 154.595 208.6 154.595 210.721 154.595C210.937 155.652 211.399 158.643 209.722 161.366C207.49 165.005 202.35 166.693 197.174 165.151C201.018 167.657 205.948 167.809 209.926 165.548C213.835 163.323 216.212 159.105 216.101 154.589C220.681 154.589 225.267 154.589 229.847 154.589C230.414 154.572 232.715 154.443 234.497 152.661C235.607 151.551 236.028 150.295 236.127 149.968C236.32 149.349 236.425 148.695 236.425 148.011V140.055C236.425 136.421 233.481 133.483 229.853 133.483H204.353C200.72 133.483 197.781 136.427 197.781 140.055V148.023C197.805 150.611 199.043 152.918 201.07 153.982C202.361 154.665 203.641 154.659 204.347 154.595Z" fill="#FFBA53" stroke="black" stroke-width="2.281" stroke-miterlimit="10" stroke-linecap="round" stroke-linejoin="round"/>
</svg>
