<svg width="281" height="294" viewBox="0 0 281 294" fill="none" xmlns="http://www.w3.org/2000/svg">
<path d="M77.0739 10.3814L62.8146 3.74055C61.7651 3.25219 60.6288 3 59.4728 3H11.0095C6.58651 3 3 6.63868 3 11.126V282.789C3 287.276 6.58257 290.911 11.0055 290.911H269.994C274.417 290.911 278 287.276 278 282.789V19.248C278 14.7607 274.417 11.126 269.994 11.126H80.4118C79.2597 11.126 78.1194 10.8698 77.0739 10.3814Z" fill="white" stroke="#FFB953" stroke-width="5.6289" stroke-miterlimit="10"/>
<path d="M203.972 206.518C200.863 211.039 198.692 219.095 203.972 234.518C190.426 222.91 176.872 211.302 163.326 199.687C140.033 199.687 116.74 199.687 93.4397 199.687C93.4397 156.932 93.4397 114.176 93.4397 71.4131H185.208C185.906 104.437 186.596 137.461 187.294 170.485C190.434 170.974 198.739 172.711 205.019 179.868C206.632 181.705 213.006 188.971 211.277 196.554C210.191 201.339 206.733 202.494 203.972 206.518Z" fill="white"/>
<path d="M85.3213 84.6259C71.2246 81.912 56.4998 79.1594 43.0622 100.064C34.2615 113.758 45.7606 138.415 60.4854 143.013C64.0754 144.13 67.3709 145.448 71.7053 146.037C79.6687 147.123 84.8948 145.27 92.0517 144.006C97.4485 143.052 105.327 142.122 115.345 142.602C115.345 141.331 115.345 140.051 115.345 138.78C127.363 134.313 134.908 125.52 135.722 118.456C136.389 112.695 134.458 107.151 134.458 107.151C133.791 105.236 133.008 103.716 132.372 102.631C131.473 99.1181 130.333 93.7058 129.938 86.9909C129.674 82.4625 129.488 79.043 129.767 76.3369C123.207 79.7332 115.577 83.0053 106.319 85.5719C99.6584 87.4096 92.5713 86.0216 85.3213 84.6259Z" fill="#F9D797"/>
<path d="M195.707 130.599C189.659 125.303 185.906 119.751 183.835 116.27C195.094 92.3256 193.807 69.94 183.3 62.2713C178.346 58.6502 171.049 58.0841 169.964 58.0299C161.791 57.5801 154.797 61.4881 146.205 66.7531C146.368 66.7763 146.508 66.7996 146.624 66.8229C147.306 66.3344 152.944 62.4031 159.767 64.4424C165.342 66.1095 169.483 71.0798 170.344 77.1356C170.312 102.08 170.274 127.025 170.243 151.977C163.636 152.186 157.038 152.396 150.431 152.613C145.035 152.938 139.63 153.272 134.233 153.597C141.274 162.476 141.817 172.742 139.684 182.566C137.862 190.941 133.784 195.826 132.861 206.619C131.799 218.987 136.777 229.54 153.207 234.766C172.406 240.868 184.65 221.925 184.58 213.846C184.471 201.75 181.626 190.599 190.954 186.428C198.235 183.171 203.019 184.047 207.997 184.931C211.354 185.528 214.797 186.133 219.155 185.474C226.296 184.396 233.251 177.301 234.787 169.276C236.089 162.468 233.12 156.808 232.22 155.148C225.187 142.191 210.866 143.882 195.707 130.599ZM190.946 179.108C181.633 179.108 174.089 171.563 174.089 162.251C174.089 152.938 181.633 145.394 190.946 145.394C200.258 145.394 207.803 152.938 207.803 162.251C207.803 171.556 200.258 179.108 190.946 179.108Z" fill="#F9D797"/>
<path d="M132.372 69.9554C130.783 71.6225 130.046 73.6153 129.767 76.3369C136.071 73.0725 141.398 69.7073 146.213 66.7608C143.879 66.4041 136.575 65.5434 132.372 69.9554Z" fill="#F9D797"/>
<path d="M175.407 200.152C174.942 199.098 174.383 197.594 174.058 195.725C173.841 194.484 172.809 188.607 176.019 183.381C180.548 175.999 189.697 175.743 190.271 175.735C185.309 183.869 180.354 192.011 175.407 200.152Z" fill="#F9C70E"/>
<path d="M182.68 209.1C188.123 200.176 193.574 191.259 199.018 182.334C200.289 183.489 201.569 184.652 202.84 185.808C197.855 194.151 192.877 202.494 187.891 210.837C186.154 210.264 184.417 209.682 182.68 209.1Z" fill="#F9C70E"/>
<path d="M179.865 206.96C181.827 208.077 186.301 210.256 192.117 209.829C194.815 209.635 197.033 208.93 198.638 208.263C198.638 215.04 198.638 221.817 198.638 228.602C196.381 227.121 194.117 225.647 191.861 224.166C187.953 226.337 184.037 228.508 180.129 230.687C180.036 222.778 179.951 214.869 179.865 206.96Z" fill="#F76623"/>
<path d="M91.5632 205.107C91.7338 160.615 91.9122 112.781 92.0827 68.2805C125.805 68.4511 159.519 68.6294 193.241 68.8C193.241 103.39 193.241 141.315 193.241 175.898C191.923 175.712 190.124 175.595 188.03 175.898C185.254 176.293 183.122 177.247 181.773 177.984C181.943 145.479 182.122 112.982 182.292 80.4775C155.526 80.3069 128.759 80.1286 101.992 79.958C101.938 118.487 101.876 157.017 101.822 195.539C125.572 195.306 149.33 195.073 173.081 194.841C173.026 195.771 173.081 196.981 173.43 198.315C174.321 201.719 176.593 203.766 177.601 204.572C148.927 204.758 120.245 204.929 91.5632 205.107Z" fill="#88C3BF"/>
<path d="M179.679 206.014C179.679 214.451 179.679 222.895 179.679 231.331C183.541 229.044 187.402 226.756 191.264 224.476C195.125 226.849 198.987 229.222 202.848 231.595C202.856 222.972 202.864 214.35 202.871 205.735C201.809 206.65 197.467 210.186 190.946 210.124C184.898 210.062 180.835 206.96 179.679 206.014Z" stroke="black" stroke-width="2.0462" stroke-miterlimit="10"/>
<path d="M191.264 224.476C191.264 216.009 191.264 218.591 191.264 210.124" stroke="black" stroke-width="2.1409" stroke-miterlimit="10"/>
<path d="M190.923 210.287C200.519 210.287 208.299 202.507 208.299 192.91C208.299 183.313 200.519 175.533 190.923 175.533C181.326 175.533 173.546 183.313 173.546 192.91C173.546 202.507 181.326 210.287 190.923 210.287Z" stroke="black" stroke-width="2.0462" stroke-miterlimit="10"/>
<path d="M190.923 175.533C185.727 184.024 180.532 192.515 175.329 201.005" stroke="black" stroke-width="2.0462" stroke-miterlimit="10"/>
<path d="M200.894 179.534C195.327 189.188 189.759 198.85 184.192 208.503" stroke="black" stroke-width="2.0462" stroke-miterlimit="10"/>
<path d="M204.856 182.597C199.56 191.576 194.265 200.555 188.961 209.534" stroke="black" stroke-width="2.0462" stroke-miterlimit="10"/>
<path d="M191.326 176.541L191.651 176.014L190.892 175.549V176.518C191.039 176.518 191.178 176.534 191.326 176.541Z" fill="#241438"/>
<path d="M212.734 184.544L232.856 192.205L233.81 180.132L212.734 184.544Z" fill="#F53B4B"/>
<path d="M206.051 166.097L220.527 150.17L209.641 144.874L206.051 166.097Z" fill="#F53B4B"/>
<path d="M214.975 172.013L239.997 161.568L230.398 149.713L214.975 172.013Z" fill="#F53B4B"/>
<path d="M78.3118 124.264L63.1295 139.524L57.2908 128.909L78.3118 124.264Z" fill="#F53B4B"/>
<path d="M76.823 104.709L57.0737 96.1407L64.8199 86.8359L76.823 104.709Z" fill="#F53B4B"/>
<path d="M71.1161 113.765L44.016 114.533L47.893 99.7849L71.1161 113.765Z" fill="#F53B4B"/>
<path d="M135.722 149.472C135.552 146.96 135.389 144.44 135.218 141.928C133.791 139.16 132.372 136.399 130.946 133.631C130.356 125.838 129.775 118.046 129.186 110.245C129.317 108.679 129.814 105.306 132.202 101.948C135.303 97.5984 139.576 96.0941 141.003 95.6599C145.36 95.7452 149.718 95.8305 154.076 95.908C155.789 96.5671 159.821 98.3816 162.876 102.701C167.164 108.756 166.366 115.293 166.149 116.782C166.063 128.513 165.978 140.245 165.901 151.985C164.466 151.845 161.985 151.791 159.116 152.714C156.503 153.559 154.65 154.861 153.579 155.753C153.579 149.046 153.579 142.347 153.579 135.639C154.122 135.5 156.542 134.817 158.108 132.367C159.775 129.754 159.224 127.079 159.116 126.583C159.116 121.977 159.116 117.363 159.116 112.757C159.023 111.749 158.635 108.857 156.348 106.221C154.285 103.84 151.819 102.987 150.819 102.701C148.47 102.367 146.128 102.034 143.778 101.692C142.801 101.817 140.134 102.282 137.746 104.461C137.443 104.74 135.017 107.004 134.326 110.625C134.28 110.881 134.249 111.098 134.226 111.245C134.474 116.278 134.73 121.302 134.978 126.335C134.954 126.986 134.931 130.018 137.242 132.623C139.684 135.383 142.926 135.608 143.53 135.639C143.53 139.245 143.53 142.851 143.53 146.448C142.577 146.464 141.134 146.596 139.506 147.201C137.715 147.867 136.459 148.813 135.722 149.472Z" fill="#E93747"/>
<path d="M128.177 154.753C130.271 153.326 132.365 151.907 134.466 150.48C134.45 151.52 134.582 153.915 136.226 156.009C138.521 158.932 142.817 160.049 147.035 158.777C149.299 157.521 151.563 156.265 153.828 155.009C155.309 153.985 157.984 152.45 161.62 151.992C163.264 151.783 164.722 151.845 165.893 151.992C165.893 162.553 165.893 173.114 165.893 183.675C155.758 183.481 145.616 183.287 135.482 183.094C135.614 178.317 132.698 174.215 128.682 173.122C125.898 172.362 122.494 173.021 120.137 175.386C117.182 178.34 117.562 182.248 117.624 182.752C116.283 182.729 114.941 182.698 113.6 182.675C113.29 180.325 112.476 171.881 117.872 163.817C121.346 158.607 125.82 155.939 128.177 154.753Z" fill="#E93747"/>
<path d="M125.495 173.316C125.13 171.059 124.456 164.926 127.759 158.436C132.458 149.209 141.514 146.487 143.096 146.045C143.096 142.354 143.096 138.663 143.096 134.972C142.259 134.903 139.855 134.6 137.746 132.701C134.73 129.971 134.784 126.164 134.799 125.59V112.176C134.799 106.624 139.304 102.119 144.856 102.119H148.206C149.121 102.158 152.432 102.429 155.316 105.065C158.41 107.896 158.852 111.486 158.93 112.346C158.93 116.789 158.93 121.232 158.93 125.675C159.007 126.443 159.24 129.49 157.17 132.212C155.952 133.817 154.471 134.616 153.649 134.98C153.649 141.602 153.649 148.224 153.649 154.846" stroke="black" stroke-width="2.0462" stroke-miterlimit="10"/>
<path d="M170.25 151.814C170.25 162.204 170.25 172.602 170.25 182.993C156.131 182.993 137.854 182.993 123.734 182.993" stroke="black" stroke-width="2.0462" stroke-miterlimit="10"/>
<path d="M137.816 182.745C137.955 181.302 140.134 161.677 155.921 154.334C161.419 151.775 166.707 151.574 170.251 151.822C170.282 139.501 170.305 127.18 170.336 114.859C170.398 113.106 170.53 104.794 164.637 99.7694C161.489 97.0866 157.898 95.7451 154.58 95.7451C150.447 95.7451 146.314 95.7451 142.173 95.7451C140.816 95.9622 137.49 96.6756 134.466 99.436C130.806 102.762 129.976 106.88 129.775 108.151C129.775 114.409 129.775 120.666 129.775 126.924C129.721 129.529 130.023 134.368 133.047 138.989C133.822 140.183 134.66 141.176 135.474 142.005C135.458 144.518 135.443 147.038 135.435 149.55" stroke="black" stroke-width="2.0462" stroke-miterlimit="10"/>
<path d="M138.483 115.192C140.274 115.192 142.057 115.192 143.848 115.192C143.848 117.425 143.848 119.658 143.848 121.899" stroke="black" stroke-width="2.0462" stroke-miterlimit="10"/>
<path d="M134.458 150.729C134.567 151.93 135.001 154.66 137.141 156.761C140.227 159.801 145.601 160.297 150.385 157.769" stroke="black" stroke-width="2.5941" stroke-miterlimit="10"/>
<path d="M169.498 156.932C166.808 157.195 160.38 158.203 154.409 163.135C145.67 170.346 144.538 180.488 144.352 182.582" stroke="black" stroke-width="2.0462" stroke-miterlimit="10"/>
<path d="M133.039 151.814C130.372 152.861 127.247 154.497 124.238 157.094C113.747 166.143 113.011 179.658 112.925 182.993C117.423 182.962 121.92 182.938 126.417 182.907" stroke="black" stroke-width="2.0462" stroke-miterlimit="10"/>
<path d="M117.198 182.365C117.151 177.247 120.912 173.114 125.246 172.688C130.263 172.184 135.373 176.72 135.179 182.745" stroke="black" stroke-width="2.0462" stroke-miterlimit="10"/>
<path d="M127.131 176.836C128.806 178.93 130.48 181.023 132.163 183.125" stroke="black" stroke-width="2.0462" stroke-miterlimit="10"/>
<path d="M123.355 179.348C124.378 180.535 125.394 181.721 126.417 182.907" stroke="black" stroke-width="2.0462" stroke-miterlimit="10"/>
<path d="M169.661 163.127C168.188 163.236 161.938 163.879 156.921 169.16C151.594 174.774 151.54 181.535 151.556 182.908" stroke="black" stroke-width="2.0462" stroke-miterlimit="10"/>
<path d="M182.246 177.441C182.261 145.65 182.277 112.277 182.292 80.4854C155.704 80.4776 129.108 80.4699 102.52 80.4543C102.45 118.86 102.388 157.273 102.318 195.678C126.231 195.694 150.137 195.702 174.05 195.717" stroke="black" stroke-width="2.0462" stroke-miterlimit="10"/>
</svg>
