<svg width="281" height="294" viewBox="0 0 281 294" fill="none" xmlns="http://www.w3.org/2000/svg">
<path d="M77.0739 10.3814L62.8146 3.74055C61.7651 3.25219 60.6288 3 59.4728 3H11.0095C6.58651 3 3 6.63868 3 11.126V282.789C3 287.276 6.58257 290.911 11.0055 290.911H269.994C274.417 290.911 278 287.276 278 282.789V19.248C278 14.7607 274.417 11.126 269.994 11.126H80.4118C79.2597 11.126 78.1194 10.8698 77.0739 10.3814Z" fill="white" stroke="#FFB953" stroke-width="5.6289" stroke-miterlimit="10"/>
<path d="M185.77 65.344C181.536 65.4112 177.302 65.47 173.076 65.5372C168.876 72.1904 164.667 78.852 160.467 85.5053C159.77 88.4286 159.064 91.3436 158.367 94.267C162.433 96.0815 165.533 96.0059 167.473 95.6699C176.915 94.0318 184.753 81.8846 185.77 65.344Z" fill="#FFB953"/>
<path d="M239.634 141.486C240.264 143.108 242.322 148.988 239.709 155.045C238.886 156.96 237.794 158.422 236.811 159.48L139.617 226.39C135.022 229.549 126.63 230.062 120.901 227.533L47.5305 195.258C46.5141 194.527 42.8934 191.73 41.5158 186.48C40.2221 181.548 41.709 177.525 42.213 176.307C75.0843 153.575 107.964 130.843 140.835 108.111C147.682 111.043 154.528 113.975 161.383 116.898C187.466 125.089 213.55 133.287 239.634 141.486Z" fill="#F53B4B"/>
<path d="M235.14 137.648C240.541 140.159 241.305 144.544 236.828 147.569L139.634 213.227C135.03 216.335 126.638 216.831 120.901 214.353L47.5389 182.666C41.751 179.978 40.9445 175.584 45.4472 172.552L142.658 106.902C147.253 103.802 155.629 103.298 161.374 105.784L234.736 137.471C234.879 137.53 235.014 137.589 235.14 137.648Z" fill="#F9D797"/>
<path d="M55.007 167.133C86.0133 180.095 117.02 193.057 148.026 206.019C149.353 209.968 148.874 212.37 148.026 213.899C144.086 221.014 126.126 220.208 102.831 212.849C83.5604 203.743 64.2896 194.628 45.0272 185.522C44.0947 182.447 43.1622 179.373 42.2214 176.29C46.4804 173.24 50.7479 170.191 55.007 167.133Z" fill="#F53B4B"/>
<path d="M166.944 107.75C190.239 118.083 213.542 128.424 236.836 138.756C239.382 139.395 240.919 141.797 240.516 144.015C240.197 145.746 238.735 147.174 236.828 147.577C234.845 148.963 232.863 150.341 230.88 151.727C207.527 141.1 184.165 130.473 160.812 119.847C162.853 115.806 164.894 111.782 166.944 107.75Z" fill="#F53B4B"/>
<path d="M140.449 213.58L140.104 213.815C135.089 216.957 126.311 217.419 120.254 214.798L46.8753 183.119L46.4637 182.926C40.6421 180.221 39.7937 175.475 44.624 172.216L141.843 106.557L142.171 106.33C147.194 103.18 155.965 102.726 162.038 105.339L235.4 137.026L235.803 137.211C241.633 139.924 242.49 144.662 237.651 147.93L140.449 213.58ZM138.5 213.059L236.022 147.216C240.146 144.427 239.415 140.378 234.442 138.067L160.728 106.229C155.561 103.986 148.068 104.381 143.784 107.069L46.2789 172.913C42.129 175.702 42.8599 179.751 47.833 182.061L121.564 213.907C126.731 216.15 134.216 215.747 138.5 213.059Z" fill="black"/>
<path d="M93.599 165.562C109.484 171.964 125.361 178.373 141.247 184.774C150.479 179.087 159.703 173.408 168.935 167.721C169.263 164.84 169.59 161.95 169.918 159.069C172.766 160.001 175.605 160.934 178.453 161.858C184.77 157.968 191.079 154.079 197.396 150.189C193.515 121.905 189.642 93.6203 185.761 65.3273C181.284 73.2322 176.815 81.1371 172.337 89.042C169.951 89.4872 167.566 89.9408 165.18 90.3861C156.04 81.5991 146.892 72.7954 137.744 64C125.345 67.0746 112.937 70.1492 100.538 73.2238C98.2193 104.003 95.9091 134.783 93.599 165.562Z" fill="#88C3BF"/>
<path d="M137.341 65.1846C138.643 105.053 139.945 144.914 141.255 184.783C150.647 179.003 160.039 173.215 169.431 167.436C168.599 148.073 167.776 128.701 166.944 109.338C168.7 109.161 170.447 108.985 172.203 108.809C174.429 126.416 176.647 144.015 178.873 161.623C185.047 157.817 191.23 154.012 197.404 150.206" stroke="black" stroke-width="2.0462" stroke-miterlimit="10" stroke-linecap="round" stroke-linejoin="round"/>
<path d="M141.247 184.783C125.361 178.382 109.484 171.972 93.599 165.571" stroke="black" stroke-width="2.0462" stroke-miterlimit="10" stroke-linecap="round" stroke-linejoin="round"/>
<path d="M109.308 71.1403C109.896 84.22 110.476 97.2996 111.064 110.379C114.92 110.614 118.775 110.85 122.623 111.076C124.026 96.2411 125.429 81.4142 126.823 66.5789C120.985 68.0994 115.146 69.6198 109.308 71.1403Z" fill="#FFB953"/>
<path d="M108.611 120.191C114.096 120.779 119.59 121.359 125.076 121.947C125.546 135.841 126.008 149.744 126.479 163.639C119.237 160.833 111.996 158.036 104.755 155.23C106.04 143.545 107.325 131.868 108.611 120.191Z" fill="#FFB953"/>
<path d="M109.308 71.1403C109.896 84.22 110.476 97.2996 111.064 110.379C114.92 110.614 118.775 110.85 122.623 111.076C124.026 96.2411 125.429 81.4142 126.823 66.5789" stroke="black" stroke-width="2.0462" stroke-miterlimit="10" stroke-linecap="round" stroke-linejoin="round"/>
<path d="M110.19 94.6115C114.567 94.4351 118.952 94.2587 123.328 94.0823" stroke="black" stroke-width="2.0462" stroke-miterlimit="10" stroke-linecap="round" stroke-linejoin="round"/>
<path d="M108.082 125.357C113.601 126.323 119.12 127.281 124.639 128.247" stroke="black" stroke-width="2.0462" stroke-miterlimit="10" stroke-linecap="round" stroke-linejoin="round"/>
<path d="M107.821 130.876C113.559 132.237 119.296 133.59 125.034 134.951" stroke="black" stroke-width="2.0462" stroke-miterlimit="10" stroke-linecap="round" stroke-linejoin="round"/>
<path d="M107.031 137.051C113.164 138.538 119.296 140.025 125.429 141.52" stroke="black" stroke-width="2.0462" stroke-miterlimit="10" stroke-linecap="round" stroke-linejoin="round"/>
<path d="M106.376 142.957C112.727 144.796 119.078 146.636 125.429 148.476" stroke="black" stroke-width="2.0462" stroke-miterlimit="10" stroke-linecap="round" stroke-linejoin="round"/>
<path d="M105.721 149.265C112.29 151.458 118.859 153.642 125.429 155.835" stroke="black" stroke-width="2.0462" stroke-miterlimit="10" stroke-linecap="round" stroke-linejoin="round"/>
<path d="M115.306 121.283C114.827 133.808 114.34 146.334 113.861 158.859" stroke="black" stroke-width="2.0462" stroke-miterlimit="10" stroke-linecap="round" stroke-linejoin="round"/>
<path d="M108.611 120.191C107.325 131.868 106.04 143.545 104.755 155.221C111.996 158.027 119.237 160.825 126.479 163.63C126.008 149.736 125.546 135.833 125.076 121.938C119.59 121.359 114.096 120.771 108.611 120.191Z" stroke="black" stroke-width="2.0462" stroke-miterlimit="10" stroke-linecap="round" stroke-linejoin="round"/>
<path d="M94.4978 187.185C97.7236 188.689 98.0681 191.318 95.2959 193.057C92.5153 194.796 87.6598 194.99 84.434 193.494C81.2082 191.991 80.847 189.37 83.6276 187.631C86.4081 185.892 91.2804 185.69 94.4978 187.185Z" fill="#FFB953"/>
<path d="M203.36 90.0752L227.604 82.3887L219.615 70.5188L203.36 90.0752Z" fill="#FFBA53"/>
<path d="M197.824 87.9919L209.106 70.544L197.9 67.209L197.824 87.9919Z" fill="#FFBA53"/>
<path d="M202.083 98.7531L217.633 105.339L218.725 95.9053L202.083 98.7531Z" fill="#FFBA53"/>
<path d="M81.5527 119.057L58.258 108.859L56.4435 123.047L81.5527 119.057Z" fill="#FFBA53"/>
<path d="M84.3417 124.274L64.3568 129.961L70.59 139.848L84.3417 124.274Z" fill="#FFBA53"/>
<path d="M88.2395 113.37L80.8806 98.1733L73.841 104.549L88.2395 113.37Z" fill="#FFBA53"/>
<path d="M156.553 102.332C156.553 104.432 156.553 106.523 156.553 108.624" stroke="black" stroke-width="1.9189" stroke-miterlimit="10" stroke-linecap="round" stroke-linejoin="round"/>
<path d="M152.461 100.92C152.461 103.491 152.461 106.062 152.461 108.632" stroke="black" stroke-width="2.1238" stroke-miterlimit="10" stroke-linecap="round" stroke-linejoin="round"/>
<path d="M156.553 119.502C156.553 121.602 156.553 123.694 156.553 125.794" stroke="black" stroke-width="1.9189" stroke-miterlimit="10" stroke-linecap="round" stroke-linejoin="round"/>
<path d="M152.461 118.083C152.461 120.653 152.461 123.224 152.461 125.794" stroke="black" stroke-width="2.1238" stroke-miterlimit="10" stroke-linecap="round" stroke-linejoin="round"/>
<path d="M156.553 136.303C156.553 138.403 156.553 140.495 156.553 142.595" stroke="black" stroke-width="1.9189" stroke-miterlimit="10" stroke-linecap="round" stroke-linejoin="round"/>
<path d="M152.461 137.253C152.461 139.823 152.461 142.394 152.461 144.964" stroke="black" stroke-width="2.1238" stroke-miterlimit="10" stroke-linecap="round" stroke-linejoin="round"/>
<path d="M185.106 113.328C185.358 115.31 185.618 117.301 185.87 119.284" stroke="black" stroke-width="1.6765" stroke-miterlimit="10" stroke-linecap="round" stroke-linejoin="round"/>
<path d="M181.687 112.404C181.998 114.832 182.317 117.268 182.628 119.695" stroke="black" stroke-width="1.8556" stroke-miterlimit="10" stroke-linecap="round" stroke-linejoin="round"/>
<path d="M183.401 100.122C183.653 102.105 183.913 104.096 184.165 106.078" stroke="black" stroke-width="1.6765" stroke-miterlimit="10" stroke-linecap="round" stroke-linejoin="round"/>
<path d="M179.99 99.1982C180.301 101.626 180.62 104.062 180.931 106.49" stroke="black" stroke-width="1.8556" stroke-miterlimit="10" stroke-linecap="round" stroke-linejoin="round"/>
<path d="M187.147 129.23C187.399 131.213 187.66 133.203 187.912 135.186" stroke="black" stroke-width="1.6765" stroke-miterlimit="10" stroke-linecap="round" stroke-linejoin="round"/>
<path d="M184.022 130.541C184.333 132.968 184.652 135.404 184.963 137.832" stroke="black" stroke-width="1.8556" stroke-miterlimit="10" stroke-linecap="round" stroke-linejoin="round"/>
<path d="M188.693 141.218C188.945 143.2 189.205 145.191 189.457 147.174" stroke="black" stroke-width="1.6765" stroke-miterlimit="10" stroke-linecap="round" stroke-linejoin="round"/>
<path d="M185.568 142.528C185.879 144.956 186.198 147.392 186.509 149.82" stroke="black" stroke-width="1.8556" stroke-miterlimit="10" stroke-linecap="round" stroke-linejoin="round"/>
<path d="M156.553 155.045C156.553 157.145 156.553 159.237 156.553 161.337" stroke="black" stroke-width="1.9189" stroke-miterlimit="10" stroke-linecap="round" stroke-linejoin="round"/>
<path d="M152.461 156.523C152.461 159.094 152.461 161.665 152.461 164.235" stroke="black" stroke-width="2.1238" stroke-miterlimit="10" stroke-linecap="round" stroke-linejoin="round"/>
</svg>
